0
SECTION
2
HEADER
9
$INSUNITS
70
4
9
$ACADVER
1
AC1014
9
$HANDSEED
5
FFFF
0
ENDSEC
0
SECTION
2
TABLES
0
TABLE
2
VPORT
5
8
100
AcDbSymbolTable
0
ENDTAB
0
TABLE
2
LTYPE
5
5
100
AcDbSymbolTable
0
LTYPE
5
14
100
AcDbSymbolTableRecord
100
AcDbLinetypeTableRecord
2
BYBLOCK
70
0
0
LTYPE
5
15
100
AcDbSymbolTableRecord
100
AcDbLinetypeTableRecord
2
BYLAYER
70
0
0
ENDTAB
0
TABLE
2
LAYER
5
2
100
AcDbSymbolTable
70
2
0
LAYER
5
50
100
AcDbSymbolTableRecord
100
AcDbLayerTableRecord
2
0
70
0
6
CONTINUOUS
0
ENDTAB
0
TABLE
2
STYLE
5
3
100
AcDbSymbolTable
70
1
0
STYLE
5
11
100
AcDbSymbolTableRecord
100
AcDbTextStyleTableRecord
2
STANDARD
70
0
0
ENDTAB
0
TABLE
2
VIEW
5
6
100
AcDbSymbolTable
70
0
0
ENDTAB
0
TABLE
2
UCS
5
7
100
AcDbSymbolTable
70
0
0
ENDTAB
0
TABLE
2
APPID
5
9
100
AcDbSymbolTable
70
2
0
APPID
5
12
100
AcDbSymbolTableRecord
100
AcDbRegAppTableRecord
2
ACAD
70
0
0
ENDTAB
0
TABLE
2
DIMSTYLE
5
A
100
AcDbSymbolTable
70
1
0
ENDTAB
0
TABLE
2
BLOCK_RECORD
5
1
100
AcDbSymbolTable
70
1
0
BLOCK_RECORD
5
1F
100
AcDbSymbolTableRecord
100
AcDbBlockTableRecord
2
*MODEL_SPACE
0
BLOCK_RECORD
5
1B
100
AcDbSymbolTableRecord
100
AcDbBlockTableRecord
2
*PAPER_SPACE
0
ENDTAB
0
ENDSEC
0
SECTION
2
BLOCKS
0
BLOCK
5
20
100
AcDbEntity
100
AcDbBlockBegin
2
*MODEL_SPACE
0
ENDBLK
5
21
100
AcDbEntity
100
AcDbBlockEnd
0
BLOCK
5
1C
100
AcDbEntity
100
AcDbBlockBegin
2
*PAPER_SPACE
0
ENDBLK
5
1D
100
AcDbEntity
100
AcDbBlockEnd
0
ENDSEC
0
SECTION
2
ENTITIES
0
CIRCLE
5
100
100
AcDbEntity
8
0
100
AcDbCircle
10
20.999999999999996
20
245.00000000000003
30
0
40
1.7499999999999893
210
0
220
-0
230
1
0
CIRCLE
5
101
100
AcDbEntity
8
0
100
AcDbCircle
10
249
20
245.00000000000003
30
0
40
1.7500000000000071
210
0
220
-0
230
1
0
CIRCLE
5
102
100
AcDbEntity
8
0
100
AcDbCircle
10
242.00000000000003
20
12.000000000000002
30
0
40
5
210
0
220
0
230
1
0
CIRCLE
5
103
100
AcDbEntity
8
0
100
AcDbCircle
10
28.250000000000867
20
72.08999999999952
30
0
40
8.5
210
-4.9303806576313238e-32
220
-0
230
1
0
CIRCLE
5
104
100
AcDbEntity
8
0
100
AcDbCircle
10
28.250000000000867
20
37.089999999999527
30
0
40
8.5
210
-4.9303806576313238e-32
220
-0
230
1
0
LWPOLYLINE
5
105
100
AcDbEntity
8
0
100
AcDbPolyline
90
22
70
1
43
0.0
10
72.920000000000314
20
218.34000000000017
10
5.9999999999999956
20
218.34000000000017
10
6
20
490.00000000000006
10
-6.1062266354383048e-17
20
490.00000000000006
10
0
20
494
10
84.999999999999986
20
494
10
84.999999999999986
20
490
10
185
20
489.99999999999994
10
185
20
494
10
269.99999999999994
20
494
10
269.99999999999994
20
490.00000000000006
10
264
20
490.00000000000006
10
264
20
0
10
185
20
0
10
185
20
-4.0000000000000027
10
85
20
-3.9999999999999791
10
85
20
0
10
6
20
0
10
5.9999999999999964
20
107.34000000000029
10
72.920000000000314
20
107.34000000000029
42
0.41421356237309853
10
75.9200000000003
20
110.34000000000032
10
75.9200000000003
20
215.34000000000015
42
0.41421356237310197
0
LWPOLYLINE
5
106
100
AcDbEntity
8
0
100
AcDbPolyline
90
24
70
1
43
0.0
10
200.5
20
17.999999999999929
42
-0.41421356237309659
10
205.49999999999997
20
22.999999999999989
10
207.50000000000014
20
23.000000000000007
42
0.41421356237309698
10
209.50000000000014
20
25.000000000000007
10
209.50000000000014
20
71
42
0.41421356237309631
10
207.50000000000014
20
73
10
181.50000000000011
20
73
42
-0.41421356237309503
10
176.50000000000011
20
78
10
176.50000000000009
20
79.999999999999986
42
0.41421356237309892
10
174.50000000000011
20
82
10
78.500000000000313
20
82
42
0.41421356237309631
10
76.500000000000313
20
79.999999999999986
10
76.500000000000369
20
68.000000000000028
42
-0.41421356237309503
10
71.500000000000398
20
63.000000000000014
10
69.500000000000327
20
62.999999999999986
42
0.4142135623730937
10
67.500000000000313
20
61
10
67.500000000000313
20
15.000000000000009
42
0.41421356237309176
10
69.500000000000327
20
13.000000000000007
10
95.500000000000327
20
12.999999999999998
42
-0.41421356237309503
10
100.50000000000033
20
7.9999999999999982
10
100.50000000000033
20
5.9999999999999964
42
0.41421356237309553
10
102.50000000000031
20
4.0000000000000036
10
198.50000000000017
20
3.9999999999999858
42
0.41421356237309781
10
200.50000000000014
20
5.9999999999999964
0
CIRCLE
5
107
100
AcDbEntity
8
0
100
AcDbCircle
10
69.500000000000298
20
5.9999999999999964
30
0
40
2.2499999999999964
210
-2.8596207814261678e-30
220
-4.5116860764493277e-60
230
1
0
CIRCLE
5
108
100
AcDbEntity
8
0
100
AcDbCircle
10
207.50000000000014
20
80.000000000000014
30
0
40
2.2500000000000142
210
1.5284180038657104e-30
220
2.4114184201711924e-60
230
1
0
CIRCLE
5
109
100
AcDbEntity
8
0
100
AcDbCircle
10
69.500000000000313
20
70
30
0
40
2.2499999999999964
210
-2.8596207814261678e-30
220
-4.5116860764493277e-60
230
1
0
CIRCLE
5
110
100
AcDbEntity
8
0
100
AcDbCircle
10
207.50000000000014
20
16.000000000000007
30
0
40
2.2500000000000142
210
1.5284180038657104e-30
220
2.4114184201711924e-60
230
1
0
CIRCLE
5
111
100
AcDbEntity
8
0
100
AcDbCircle
10
93.500000000000341
20
5.9999999999999964
30
0
40
2.2499999999999964
210
-2.8596207814261678e-30
220
-4.5116860764493277e-60
230
1
0
CIRCLE
5
112
100
AcDbEntity
8
0
100
AcDbCircle
10
183.50000000000011
20
80
30
0
40
2.2500000000000142
210
1.5284180038657104e-30
220
2.4114184201711924e-60
230
1
0
CIRCLE
5
113
100
AcDbEntity
8
0
100
AcDbCircle
10
69.500000000000341
20
79.999999999999986
30
0
40
2.2499999999999964
210
-2.8596207814261678e-30
220
-4.5116860764493277e-60
230
1
0
CIRCLE
5
114
100
AcDbEntity
8
0
100
AcDbCircle
10
207.50000000000011
20
5.9999999999999964
30
0
40
2.2500000000000142
210
1.5284180038657104e-30
220
2.4114184201711924e-60
230
1
0
CIRCLE
5
115
100
AcDbEntity
8
0
100
AcDbCircle
10
12.007106781186533
20
98.340000000000373
30
0
40
1.7999999999999992
210
0
220
-0
230
1
0
CIRCLE
5
116
100
AcDbEntity
8
0
100
AcDbCircle
10
12.007106781186604
20
227.34000000000006
30
0
40
1.7999999999999992
210
0
220
-0
230
1
0
CIRCLE
5
117
100
AcDbEntity
8
0
100
AcDbCircle
10
103.36710678118695
20
130.65500000000029
30
0
40
1.7999999999999972
210
-4.9303806576313238e-32
220
-0
230
1
0
CIRCLE
5
118
100
AcDbEntity
8
0
100
AcDbCircle
10
103.36710678118695
20
461.44000000000062
30
0
40
1.7999999999999972
210
-4.9303806576313238e-32
220
-0
230
1
0
LWPOLYLINE
5
119
100
AcDbEntity
8
0
100
AcDbPolyline
90
8
70
1
43
0.0
10
98.660000000000338
20
449.44000000000068
10
98.660000000000309
20
142.65500000000029
42
0.41421356237308815
10
101.66000000000032
20
139.65500000000026
10
210.70000000000005
20
139.65500000000029
42
0.41421356237309331
10
213.7000000000001
20
142.65500000000029
10
213.70000000000016
20
449.44000000000068
42
0.41421356237307771
10
210.7000000000001
20
452.44000000000062
10
101.66000000000032
20
452.44000000000062
42
0.41421356237308637
0
CIRCLE
5
120
100
AcDbEntity
8
0
100
AcDbCircle
10
93.660000000000565
20
144.36210678118681
30
0
40
1.7999999999999794
210
0
220
-0
230
1
0
CIRCLE
5
121
100
AcDbEntity
8
0
100
AcDbCircle
10
71.212893218813662
20
227.34000000000009
30
0
40
1.7999999999999972
210
-4.9303806576313238e-32
220
-0
230
1
0
CIRCLE
5
122
100
AcDbEntity
8
0
100
AcDbCircle
10
46.000000000001734
20
98.340000000000373
30
0
40
1.7999999999999972
210
-4.9303806576313238e-32
220
-0
230
1
0
CIRCLE
5
123
100
AcDbEntity
8
0
100
AcDbCircle
10
80.920000000000343
20
213.63289321881382
30
0
40
1.7999999999999972
210
-4.9303806576313238e-32
220
-0
230
1
0
CIRCLE
5
124
100
AcDbEntity
8
0
100
AcDbCircle
10
208.99289321881355
20
130.65500000000162
30
0
40
1.7999999999999972
210
-4.9303806576313238e-32
220
-0
230
1
0
CIRCLE
5
125
100
AcDbEntity
8
0
100
AcDbCircle
10
93.660000000000593
20
447.73289321881407
30
0
40
1.7999999999999972
210
-4.9303806576313238e-32
220
-0
230
1
0
CIRCLE
5
126
100
AcDbEntity
8
0
100
AcDbCircle
10
208.99289321881355
20
461.43999999999926
30
0
40
1.7999999999999972
210
-4.9303806576313238e-32
220
-0
230
1
0
CIRCLE
5
127
100
AcDbEntity
8
0
100
AcDbCircle
10
93.660000000000878
20
296.04750000000047
30
0
40
1.7999999999999972
210
-4.9303806576313238e-32
220
-0
230
1
0
CIRCLE
5
128
100
AcDbEntity
8
0
100
AcDbCircle
10
80.920000000000343
20
112.04710678118687
30
0
40
1.7999999999999972
210
-4.9303806576313238e-32
220
-0
230
1
0
LINE
5
129
100
AcDbEntity
8
0
100
AcDbLine
10
215.00000000000006
20
0
30
0
11
215.00000000000006
21
483.99999999999989
31
0
0
LINE
5
130
100
AcDbEntity
8
0
100
AcDbLine
10
215.00000000000006
20
101.99999999999996
30
0
11
55.499999999987978
21
101.99999999999996
31
0
0
LINE
5
131
100
AcDbEntity
8
0
100
AcDbLine
10
55.500000000001741
20
101.99999999999996
30
0
11
55.500000000001748
21
3.0000000000000071
31
2.908924588002466e-30
0
LINE
5
132
100
AcDbEntity
8
0
100
AcDbLine
10
184.91499999999999
20
494
30
0
11
184.91499999999999
21
490.08499999999992
31
0
0
LINE
5
133
100
AcDbEntity
8
0
100
AcDbLine
10
184.91499999999999
20
490.08499999999992
30
0
11
85.08499999999998
21
490.08499999999998
31
0
0
LINE
5
134
100
AcDbEntity
8
0
100
AcDbLine
10
85.08499999999998
20
490.08499999999998
30
0
11
85.08499999999998
21
494
31
0
0
LINE
5
135
100
AcDbEntity
8
0
100
AcDbLine
10
184.91499999999999
20
494
30
0
11
185
21
494
31
0
0
LINE
5
136
100
AcDbEntity
8
0
100
AcDbLine
10
84.999999999999986
20
494
30
0
11
85.08499999999998
21
494
31
0
0
LINE
5
137
100
AcDbEntity
8
0
100
AcDbLine
10
185.08500000000001
20
-4.0000000000000027
30
0
11
185.08500000000001
21
0
31
0
0
LINE
5
138
100
AcDbEntity
8
0
100
AcDbLine
10
84.915000000000006
20
0
30
0
11
84.915000000000006
21
-3.9999999999999791
31
0
0
LINE
5
139
100
AcDbEntity
8
0
100
AcDbLine
10
85
20
-3.9999999999999791
30
0
11
84.915000000000006
21
-3.9999999999999791
31
0
0
LINE
5
140
100
AcDbEntity
8
0
100
AcDbLine
10
185
20
-4.0000000000000027
30
0
11
185.08500000000001
21
-4.0000000000000027
31
0
0
ARC
5
141
100
AcDbEntity
8
0
100
AcDbCircle
10
85.08499999999998
20
490.08499999999998
30
0
40
1.0000000000000142
210
0
220
-0
230
1
100
AcDbArc
50
-270
51
0
0
ARC
5
142
100
AcDbEntity
8
0
100
AcDbCircle
10
184.91499999999999
20
490.08499999999992
30
0
40
1.0000000000000142
210
0
220
0
230
1
100
AcDbArc
50
-180
51
90
0
ENDSEC
0
SECTION
2
OBJECTS
0
DICTIONARY
5
C
100
AcDbDictionary
3
ACAD_GROUP
350
D
3
ACAD_MLINESTYLE
350
17
0
DICTIONARY
5
D
100
AcDbDictionary
0
DICTIONARY
5
1A
330
C
100
AcDbDictionary
0
DICTIONARY
5
17
100
AcDbDictionary
0
ENDSEC
0
EOF
