0
SECTION
2
HEADER
9
$INSUNITS
70
4
9
$ACADVER
1
AC1014
9
$HANDSEED
5
FFFF
0
ENDSEC
0
SECTION
2
TABLES
0
TABLE
2
VPORT
5
8
100
AcDbSymbolTable
0
ENDTAB
0
TABLE
2
LTYPE
5
5
100
AcDbSymbolTable
0
LTYPE
5
14
100
AcDbSymbolTableRecord
100
AcDbLinetypeTableRecord
2
BYBLOCK
70
0
0
LTYPE
5
15
100
AcDbSymbolTableRecord
100
AcDbLinetypeTableRecord
2
BYLAYER
70
0
0
ENDTAB
0
TABLE
2
LAYER
5
2
100
AcDbSymbolTable
70
2
0
LAYER
5
50
100
AcDbSymbolTableRecord
100
AcDbLayerTableRecord
2
0
70
0
6
CONTINUOUS
0
ENDTAB
0
TABLE
2
STYLE
5
3
100
AcDbSymbolTable
70
1
0
STYLE
5
11
100
AcDbSymbolTableRecord
100
AcDbTextStyleTableRecord
2
STANDARD
70
0
0
ENDTAB
0
TABLE
2
VIEW
5
6
100
AcDbSymbolTable
70
0
0
ENDTAB
0
TABLE
2
UCS
5
7
100
AcDbSymbolTable
70
0
0
ENDTAB
0
TABLE
2
APPID
5
9
100
AcDbSymbolTable
70
2
0
APPID
5
12
100
AcDbSymbolTableRecord
100
AcDbRegAppTableRecord
2
ACAD
70
0
0
ENDTAB
0
TABLE
2
DIMSTYLE
5
A
100
AcDbSymbolTable
70
1
0
ENDTAB
0
TABLE
2
BLOCK_RECORD
5
1
100
AcDbSymbolTable
70
1
0
BLOCK_RECORD
5
1F
100
AcDbSymbolTableRecord
100
AcDbBlockTableRecord
2
*MODEL_SPACE
0
BLOCK_RECORD
5
1B
100
AcDbSymbolTableRecord
100
AcDbBlockTableRecord
2
*PAPER_SPACE
0
ENDTAB
0
ENDSEC
0
SECTION
2
BLOCKS
0
BLOCK
5
20
100
AcDbEntity
100
AcDbBlockBegin
2
*MODEL_SPACE
0
ENDBLK
5
21
100
AcDbEntity
100
AcDbBlockEnd
0
BLOCK
5
1C
100
AcDbEntity
100
AcDbBlockBegin
2
*PAPER_SPACE
0
ENDBLK
5
1D
100
AcDbEntity
100
AcDbBlockEnd
0
ENDSEC
0
SECTION
2
ENTITIES
0
LWPOLYLINE
5
100
100
AcDbEntity
8
0
100
AcDbPolyline
90
6
70
1
43
0.0
10
80.855441631794704
20
316.21913188765666
10
82.443154872066003
20
313.46913188765677
10
85.618581352608857
20
313.4691318876566
10
87.206294592880425
20
316.21913188765649
10
85.618581352609141
20
318.96913188765649
10
82.443154872066287
20
318.9691318876566
0
LWPOLYLINE
5
101
100
AcDbEntity
8
0
100
AcDbPolyline
90
6
70
1
43
0.0
10
189.64455836819332
20
213.78086811234334
10
188.05684512792203
20
216.53086811234334
10
184.88141864737918
20
216.53086811234351
10
183.29370540710761
20
213.78086811234368
10
184.88141864737889
20
211.03086811234365
10
188.05684512792175
20
211.03086811234348
0
LWPOLYLINE
5
102
100
AcDbEntity
8
0
100
AcDbPolyline
90
6
70
1
43
0.0
10
82.443154872066287
20
211.03086811234348
10
85.618581352609141
20
211.03086811234365
10
87.206294592880425
20
213.78086811234368
10
85.618581352608857
20
216.53086811234351
10
82.443154872066003
20
216.53086811234334
10
80.855441631794719
20
213.78086811234334
0
LWPOLYLINE
5
103
100
AcDbEntity
8
0
100
AcDbPolyline
90
6
70
1
43
0.0
10
184.88141864737889
20
318.96913188765654
10
183.29370540710761
20
316.21913188765654
10
184.88141864737918
20
313.46913188765666
10
188.05684512792203
20
313.46913188765689
10
189.64455836819332
20
316.21913188765677
10
188.05684512792175
20
318.96913188765672
0
LWPOLYLINE
5
104
100
AcDbEntity
8
0
100
AcDbPolyline
90
20
70
1
43
0.0
10
212.00000000000006
20
481.57457351945305
10
215.00000000000006
20
481.57457351945305
10
214.99999999999977
20
194.42542648054302
10
211.99999999999983
20
194.42542648054302
10
211.99999999999983
20
190.75000000000014
10
214.99999999999977
20
190.75000000000006
10
215.00000000000006
20
185
10
55.499999999987978
20
185
10
55.499999999988233
20
190.75000000000006
10
58.499999999988233
20
190.75000000000014
10
58.499999999988233
20
194.42542648054302
10
55.499999999988233
20
194.42542648054302
10
55.499999999987978
20
479.57457351945271
10
58.499999999987992
20
479.57457351945271
10
58.499999999987992
20
483.24999999999562
10
55.499999999987978
20
483.24999999999568
10
55.499999999987978
20
488.99999999999585
10
215.00000000000006
20
488.99999999999602
10
215.00000000000006
20
485.24999999999602
10
212.00000000000006
20
485.24999999999602
0
LWPOLYLINE
5
105
100
AcDbEntity
8
0
100
AcDbPolyline
90
6
70
1
43
0.0
10
93.362688293244844
20
223.1126882932509
10
150.58182018090142
20
207.78086811234348
10
192.46913188765049
20
249.66817981909253
10
177.13731170674311
20
306.88731170674913
10
119.91817981908652
20
322.2191318876566
10
78.030868112337387
20
280.33182018090753
0
LWPOLYLINE
5
106
100
AcDbEntity
8
0
100
AcDbPolyline
90
6
70
1
43
0.0
10
170.60533905932132
20
300.35533905932721
10
183.54629131444727
20
252.05904774487394
10
148.19095225511995
20
216.70370868554667
10
99.894660940666682
20
229.64466094067274
10
86.953708685540718
20
277.94095225512598
10
122.30904774486805
20
313.2962913144533
0
LWPOLYLINE
5
107
100
AcDbEntity
8
0
100
AcDbPolyline
90
6
70
1
43
0.0
10
150.55641720918996
20
207.87567329343375
10
192.3743267065602
20
249.69358279080396
10
177.0679094973643
20
306.81790949737029
10
119.94358279079798
20
322.12432670656631
10
78.125673293427681
20
280.30641720919607
10
93.432090502623709
20
223.18209050262976
0
LWPOLYLINE
5
108
100
AcDbEntity
8
0
100
AcDbPolyline
90
6
70
1
43
0.0
10
99.825258731287818
20
229.57525873129387
10
86.858903504450424
20
277.96635522683744
10
122.28364477315664
20
313.39109649554359
10
170.67474126870019
20
300.4247412687061
10
183.64109649553757
20
252.03364477316251
10
148.21635522683135
20
216.60890350445638
0
ENDSEC
0
SECTION
2
OBJECTS
0
DICTIONARY
5
C
100
AcDbDictionary
3
ACAD_GROUP
350
D
3
ACAD_MLINESTYLE
350
17
0
DICTIONARY
5
D
100
AcDbDictionary
0
DICTIONARY
5
1A
330
C
100
AcDbDictionary
0
DICTIONARY
5
17
100
AcDbDictionary
0
ENDSEC
0
EOF
