0
SECTION
2
HEADER
9
$INSUNITS
70
4
9
$ACADVER
1
AC1014
9
$HANDSEED
5
FFFF
0
ENDSEC
0
SECTION
2
TABLES
0
TABLE
2
VPORT
5
8
100
AcDbSymbolTable
0
ENDTAB
0
TABLE
2
LTYPE
5
5
100
AcDbSymbolTable
0
LTYPE
5
14
100
AcDbSymbolTableRecord
100
AcDbLinetypeTableRecord
2
BYBLOCK
70
0
0
LTYPE
5
15
100
AcDbSymbolTableRecord
100
AcDbLinetypeTableRecord
2
BYLAYER
70
0
0
ENDTAB
0
TABLE
2
LAYER
5
2
100
AcDbSymbolTable
70
2
0
LAYER
5
50
100
AcDbSymbolTableRecord
100
AcDbLayerTableRecord
2
0
70
0
6
CONTINUOUS
0
ENDTAB
0
TABLE
2
STYLE
5
3
100
AcDbSymbolTable
70
1
0
STYLE
5
11
100
AcDbSymbolTableRecord
100
AcDbTextStyleTableRecord
2
STANDARD
70
0
0
ENDTAB
0
TABLE
2
VIEW
5
6
100
AcDbSymbolTable
70
0
0
ENDTAB
0
TABLE
2
UCS
5
7
100
AcDbSymbolTable
70
0
0
ENDTAB
0
TABLE
2
APPID
5
9
100
AcDbSymbolTable
70
2
0
APPID
5
12
100
AcDbSymbolTableRecord
100
AcDbRegAppTableRecord
2
ACAD
70
0
0
ENDTAB
0
TABLE
2
DIMSTYLE
5
A
100
AcDbSymbolTable
70
1
0
ENDTAB
0
TABLE
2
BLOCK_RECORD
5
1
100
AcDbSymbolTable
70
1
0
BLOCK_RECORD
5
1F
100
AcDbSymbolTableRecord
100
AcDbBlockTableRecord
2
*MODEL_SPACE
0
BLOCK_RECORD
5
1B
100
AcDbSymbolTableRecord
100
AcDbBlockTableRecord
2
*PAPER_SPACE
0
ENDTAB
0
ENDSEC
0
SECTION
2
BLOCKS
0
BLOCK
5
20
100
AcDbEntity
100
AcDbBlockBegin
2
*MODEL_SPACE
0
ENDBLK
5
21
100
AcDbEntity
100
AcDbBlockEnd
0
BLOCK
5
1C
100
AcDbEntity
100
AcDbBlockBegin
2
*PAPER_SPACE
0
ENDBLK
5
1D
100
AcDbEntity
100
AcDbBlockEnd
0
ENDSEC
0
SECTION
2
ENTITIES
0
LWPOLYLINE
5
100
100
AcDbEntity
8
0
100
AcDbPolyline
90
6
70
1
43
0.0
10
373.99999999997385
20
409.00000000005156
10
377.99999999997135
20
412.99999999968264
10
377.99999999996919
20
417.00000000020668
10
374.00000000012608
20
421.00000000000011
10
357.99999999998141
20
420.9999999999971
10
357.99999999997999
20
409.0000000000191
0
LWPOLYLINE
5
101
100
AcDbEntity
8
0
100
AcDbPolyline
90
6
70
1
43
0.0
10
377.99999999997294
20
437.00000000031338
10
373.99999999997596
20
440.99999999994503
10
357.99999999998215
20
440.99999999997965
10
357.99999999998249
20
429.0000000000025
10
374.00000000012659
20
428.99999999999648
10
377.99999999996857
20
432.99999999978934
0
LWPOLYLINE
5
102
100
AcDbEntity
8
0
100
AcDbPolyline
90
9
70
1
43
0.0
10
381.99999999998198
20
401.00000000000023
10
349.99999999998192
20
400.99999999999989
10
349.99999999998249
20
448.99999999999989
10
382.00000000005383
20
448.99999999999102
10
385.99999999999574
20
445.00000000006816
10
385.99999999999199
20
428.99999999968566
10
381.99999999966155
20
424.99999999999773
10
385.99999999998784
20
420.99999999968566
10
385.99999999998272
20
404.99999999991644
0
LWPOLYLINE
5
103
100
AcDbEntity
8
0
100
AcDbPolyline
90
22
70
1
43
0.0
10
401.99999998199189
20
416.99996406082641
10
406.00003592093503
20
413.00000000036442
10
409.99999999999466
20
417.00003592071027
10
409.99999999999443
20
444.99999999941497
10
414.00000000052677
20
448.99999999991917
10
418.00000000084651
20
444.99999999920237
10
418.00000000013796
20
417.00003107986907
10
421.99996892008386
20
413.00000000032844
10
425.99999999971595
20
416.99996892018294
10
425.99999999997328
20
448.99999999967264
10
430.00000000040393
20
448.99999999963552
10
434.0000000000004
20
444.99999999950387
10
433.99999999999403
20
404.99999999980355
10
430.00000000012705
20
400.99999999994236
10
418.00000000013341
20
400.99999999995941
10
414.00000000033617
20
404.99999999982253
10
410.00000000046043
20
400.99999999997021
10
398.00000000000659
20
400.99999999998312
10
394.00000000000364
20
405.0000000000457
10
394.00000000000659
20
445.00000000010368
10
397.99999999986943
20
448.99999999996919
10
401.99999998608462
20
448.99999999995669
0
LWPOLYLINE
5
104
100
AcDbEntity
8
0
100
AcDbPolyline
90
9
70
1
43
0.0
10
382.03520815278318
20
400.91500000000025
10
349.914999999982
20
400.91499999999991
10
349.91499999998257
20
449.08499999999992
10
382.03520815285538
20
449.084999999991
10
386.08499999999572
20
445.03520815286998
10
386.08499999999196
20
428.96479184687996
10
382.12020815246819
20
424.99999999999307
10
386.08499999998787
20
421.03520815248748
10
386.08499999998276
20
404.96479184711416
0
LWPOLYLINE
5
105
100
AcDbEntity
8
0
100
AcDbPolyline
90
6
70
1
43
0.0
10
377.91499999996864
20
433.03520815259151
10
377.91499999997291
20
436.96479184750945
10
373.9647918471764
20
440.91499999994511
10
358.08499999998213
20
440.91499999997944
10
358.08499999998247
20
429.08500000000242
10
373.96479184732522
20
429.08499999999651
0
LWPOLYLINE
5
106
100
AcDbEntity
8
0
100
AcDbPolyline
90
6
70
1
43
0.0
10
377.91499999997137
20
413.03520815248669
10
377.91499999996921
20
416.96479184740451
10
373.9647918473247
20
420.91500000000008
10
358.08499999998139
20
420.91499999999712
10
358.08499999997997
20
409.08500000001925
10
373.9647918471743
20
409.08500000005148
0
LWPOLYLINE
5
107
100
AcDbEntity
8
0
100
AcDbPolyline
90
22
70
1
43
0.0
10
393.91500000000661
20
445.0352081529054
10
397.96479184706777
20
449.08499999996934
10
402.08499998609545
20
449.08499999995638
10
402.08499998199636
20
417.03517266099476
10
406.00003484116701
20
413.12020815288184
10
409.91499999999468
20
417.0352436263741
10
409.91499999999451
20
445.0352081522168
10
414.00000000053001
20
449.12020815272365
10
418.0850000008474
20
445.03520815200068
10
418.08500000013885
20
417.0352388457905
10
421.99996985409649
20
413.12020815312519
10
425.91499999971626
20
417.03517745986687
10
425.91499999997404
20
449.08499999967341
10
430.03520815320934
20
449.08499999963516
10
434.08500000000038
20
445.03520815230229
10
434.08499999999401
20
404.96479184700172
10
430.0352081529287
20
400.91499999994232
10
417.9647918473313
20
400.91499999995955
10
414.00000000033549
20
404.8797918470205
10
410.03520815326198
20
400.91499999997018
10
397.96479184720442
20
400.91499999998319
10
393.9150000000036
20
404.96479184724427
0
ENDSEC
0
SECTION
2
OBJECTS
0
DICTIONARY
5
C
100
AcDbDictionary
3
ACAD_GROUP
350
D
3
ACAD_MLINESTYLE
350
17
0
DICTIONARY
5
D
100
AcDbDictionary
0
DICTIONARY
5
1A
330
C
100
AcDbDictionary
0
DICTIONARY
5
17
100
AcDbDictionary
0
ENDSEC
0
EOF
