0
SECTION
2
HEADER
9
$INSUNITS
70
4
9
$ACADVER
1
AC1014
9
$HANDSEED
5
FFFF
0
ENDSEC
0
SECTION
2
TABLES
0
TABLE
2
VPORT
5
8
100
AcDbSymbolTable
0
ENDTAB
0
TABLE
2
LTYPE
5
5
100
AcDbSymbolTable
0
LTYPE
5
14
100
AcDbSymbolTableRecord
100
AcDbLinetypeTableRecord
2
BYBLOCK
70
0
0
LTYPE
5
15
100
AcDbSymbolTableRecord
100
AcDbLinetypeTableRecord
2
BYLAYER
70
0
0
ENDTAB
0
TABLE
2
LAYER
5
2
100
AcDbSymbolTable
70
2
0
LAYER
5
50
100
AcDbSymbolTableRecord
100
AcDbLayerTableRecord
2
0
70
0
6
CONTINUOUS
0
ENDTAB
0
TABLE
2
STYLE
5
3
100
AcDbSymbolTable
70
1
0
STYLE
5
11
100
AcDbSymbolTableRecord
100
AcDbTextStyleTableRecord
2
STANDARD
70
0
0
ENDTAB
0
TABLE
2
VIEW
5
6
100
AcDbSymbolTable
70
0
0
ENDTAB
0
TABLE
2
UCS
5
7
100
AcDbSymbolTable
70
0
0
ENDTAB
0
TABLE
2
APPID
5
9
100
AcDbSymbolTable
70
2
0
APPID
5
12
100
AcDbSymbolTableRecord
100
AcDbRegAppTableRecord
2
ACAD
70
0
0
ENDTAB
0
TABLE
2
DIMSTYLE
5
A
100
AcDbSymbolTable
70
1
0
ENDTAB
0
TABLE
2
BLOCK_RECORD
5
1
100
AcDbSymbolTable
70
1
0
BLOCK_RECORD
5
1F
100
AcDbSymbolTableRecord
100
AcDbBlockTableRecord
2
*MODEL_SPACE
0
BLOCK_RECORD
5
1B
100
AcDbSymbolTableRecord
100
AcDbBlockTableRecord
2
*PAPER_SPACE
0
ENDTAB
0
ENDSEC
0
SECTION
2
BLOCKS
0
BLOCK
5
20
100
AcDbEntity
100
AcDbBlockBegin
2
*MODEL_SPACE
0
ENDBLK
5
21
100
AcDbEntity
100
AcDbBlockEnd
0
BLOCK
5
1C
100
AcDbEntity
100
AcDbBlockBegin
2
*PAPER_SPACE
0
ENDBLK
5
1D
100
AcDbEntity
100
AcDbBlockEnd
0
ENDSEC
0
SECTION
2
ENTITIES
0
LWPOLYLINE
5
100
100
AcDbEntity
8
0
100
AcDbPolyline
90
6
70
1
43
0.0
10
-44.000000000000057
20
82.824573519457076
10
-41.250000000000043
20
84.412286759728545
10
-41.250000000000043
20
87.587713240271512
10
-44.000000000000057
20
89.175426480542995
10
-46.750000000000071
20
87.587713240271512
10
-46.750000000000071
20
84.412286759728545
0
LWPOLYLINE
5
101
100
AcDbEntity
8
0
100
AcDbPolyline
90
6
70
1
43
0.0
10
-44.00000000000005
20
20.824573519457068
10
-41.250000000000028
20
22.412286759728545
10
-41.250000000000028
20
25.587713240271505
10
-44.00000000000005
20
27.175426480542988
10
-46.750000000000071
20
25.587713240271516
10
-46.750000000000071
20
22.412286759728556
0
LWPOLYLINE
5
102
100
AcDbEntity
8
0
100
AcDbPolyline
90
6
70
1
43
0.0
10
-117.00000000000011
20
82.82457351945709
10
-114.2500000000001
20
84.412286759728531
10
-114.2500000000001
20
87.587713240271498
10
-117.00000000000011
20
89.175426480542967
10
-119.75000000000014
20
87.587713240271512
10
-119.75000000000001
20
84.412286759728531
0
LWPOLYLINE
5
103
100
AcDbEntity
8
0
100
AcDbPolyline
90
6
70
1
43
0.0
10
-117.0000000000001
20
20.824573519457058
10
-114.2500000000001
20
22.412286759728538
10
-114.2500000000001
20
25.587713240271498
10
-117.0000000000001
20
27.175426480542978
10
-119.7500000000001
20
25.587713240271498
10
-119.7500000000001
20
22.412286759728538
0
CIRCLE
5
104
100
AcDbEntity
8
0
100
AcDbCircle
10
-339.99999999997647
20
462.99999999999909
30
0
40
1.7499999999999716
210
0
220
0
230
1
0
CIRCLE
5
105
100
AcDbEntity
8
0
100
AcDbCircle
10
-329.99999999997647
20
462.99999999999909
30
0
40
1.7499999999999716
210
0
220
0
230
1
0
CIRCLE
5
106
100
AcDbEntity
8
0
100
AcDbCircle
10
-455.60000042332274
20
459.32999999999907
30
0
40
1.7500000000000426
210
0
220
0
230
1
0
CIRCLE
5
107
100
AcDbEntity
8
0
100
AcDbCircle
10
-352.60000042332263
20
459.32999999999907
30
0
40
1.7500000000000426
210
0
220
0
230
1
0
CIRCLE
5
108
100
AcDbEntity
8
0
100
AcDbCircle
10
-373.00000000000097
20
251.78499999999968
30
0
40
1.7499999999999716
210
0
220
0
230
1
0
CIRCLE
5
109
100
AcDbEntity
8
0
100
AcDbCircle
10
-373.00000000000102
20
327.9349999999996
30
0
40
1.7499999999999716
210
0
220
0
230
1
0
CIRCLE
5
110
100
AcDbEntity
8
0
100
AcDbCircle
10
-373.00000000000114
20
266.21499999999958
30
0
40
1.7499999999999716
210
0
220
0
230
1
0
CIRCLE
5
111
100
AcDbEntity
8
0
100
AcDbCircle
10
-449.60000000000105
20
190.06499999999966
30
0
40
1.7499999999999716
210
0
220
0
230
1
0
CIRCLE
5
112
100
AcDbEntity
8
0
100
AcDbCircle
10
-449.60000000000099
20
251.78499999999974
30
0
40
1.7499999999999716
210
0
220
0
230
1
0
CIRCLE
5
113
100
AcDbEntity
8
0
100
AcDbCircle
10
-449.60000000000105
20
327.93499999999966
30
0
40
1.7499999999999716
210
0
220
0
230
1
0
CIRCLE
5
114
100
AcDbEntity
8
0
100
AcDbCircle
10
-449.60000000000105
20
266.21499999999958
30
0
40
1.7499999999999716
210
0
220
0
230
1
0
CIRCLE
5
115
100
AcDbEntity
8
0
100
AcDbCircle
10
-373.00000000000102
20
190.0649999999996
30
0
40
1.7499999999999716
210
0
220
0
230
1
0
LWPOLYLINE
5
116
100
AcDbEntity
8
0
100
AcDbPolyline
90
4
70
1
43
0.0
10
-413.00000000000114
20
183.99999999999966
10
-413.00000000000114
20
178.99999999999974
10
-405.00000000000108
20
178.99999999999974
10
-405.00000000000108
20
183.99999999999966
0
LWPOLYLINE
5
117
100
AcDbEntity
8
0
100
AcDbPolyline
90
4
70
1
43
0.0
10
-413.00000000000102
20
333.99999999999955
10
-405.00000000000108
20
333.99999999999955
10
-405.00000000000108
20
338.99999999999955
10
-413.00000000000102
20
338.99999999999955
0
LWPOLYLINE
5
118
100
AcDbEntity
8
0
100
AcDbPolyline
90
6
70
1
43
0.0
10
-347.99999999999
20
399.17542648016359
10
-350.74999999998971
20
397.58771323989231
10
-350.74999999998971
20
394.41228675934957
10
-347.99999999999
20
392.82457351907829
10
-345.24999999999034
20
394.41228675934957
10
-345.24999999999034
20
397.58771323989231
0
LWPOLYLINE
5
119
100
AcDbEntity
8
0
100
AcDbPolyline
90
6
70
1
43
0.0
10
-438.79999999999006
20
443.17542648016388
10
-441.54999999999001
20
441.58771323989231
10
-441.54999999998995
20
438.41228675934957
10
-438.79999999998995
20
436.82457351907817
10
-436.04999999999001
20
438.41228675934957
10
-436.04999999999018
20
441.58771323989231
0
LWPOLYLINE
5
120
100
AcDbEntity
8
0
100
AcDbPolyline
90
6
70
1
43
0.0
10
-345.19999999999004
20
443.17542648016371
10
-347.94999999998981
20
441.58771323989231
10
-347.94999999998981
20
438.41228675934963
10
-345.19999999999004
20
436.82457351907829
10
-342.44999999999027
20
438.41228675934963
10
-342.44999999999027
20
441.58771323989237
0
LWPOLYLINE
5
121
100
AcDbEntity
8
0
100
AcDbPolyline
90
6
70
1
43
0.0
10
-435.99999999999005
20
399.17542648016365
10
-438.74999999998983
20
397.58771323989237
10
-438.74999999998977
20
394.41228675934951
10
-435.99999999998994
20
392.82457351907823
10
-433.24999999999017
20
394.41228675934963
10
-433.24999999999022
20
397.58771323989237
0
LWPOLYLINE
5
122
100
AcDbEntity
8
0
100
AcDbPolyline
90
9
70
1
43
0.0
10
-382.00000000005383
20
448.99999999999102
10
-385.99999999999574
20
445.00000000006816
10
-385.99999999999199
20
428.99999999968566
10
-381.99999999966155
20
424.99999999999773
10
-385.99999999998784
20
420.99999999968566
10
-385.99999999998272
20
404.99999999991644
10
-381.99999999998198
20
401.00000000000023
10
-349.99999999998192
20
400.99999999999989
10
-349.99999999998249
20
448.99999999999989
0
LWPOLYLINE
5
123
100
AcDbEntity
8
0
100
AcDbPolyline
90
22
70
1
43
0.0
10
-430.00000000040393
20
448.99999999963552
10
-434.0000000000004
20
444.99999999950387
10
-433.99999999999403
20
404.99999999980355
10
-430.00000000012705
20
400.99999999994236
10
-418.00000000013341
20
400.99999999995941
10
-414.00000000033617
20
404.99999999982253
10
-410.00000000046043
20
400.99999999997021
10
-398.00000000000659
20
400.99999999998312
10
-394.00000000000364
20
405.0000000000457
10
-394.00000000000659
20
445.00000000010368
10
-397.99999999986943
20
448.99999999996919
10
-401.99999998608462
20
448.99999999995669
10
-401.99999998199189
20
416.99996406082641
10
-406.00003592093503
20
413.00000000036442
10
-409.99999999999466
20
417.00003592071027
10
-409.99999999999443
20
444.99999999941497
10
-414.00000000052677
20
448.99999999991917
10
-418.00000000084651
20
444.99999999920237
10
-418.00000000013796
20
417.00003107986907
10
-421.99996892008386
20
413.00000000032844
10
-425.99999999971595
20
416.99996892018294
10
-425.99999999997328
20
448.99999999967264
0
LWPOLYLINE
5
124
100
AcDbEntity
8
0
100
AcDbPolyline
90
8
70
1
43
0.0
10
-42.339999999999932
20
134.20000000000067
10
-126.75999999999974
20
134.20000000000067
42
0.41421356237309293
10
-131.75999999999974
20
129.20000000000067
10
-131.75999999999974
20
116.99999999999996
42
0.41421356237309293
10
-126.75999999999974
20
111.99999999999996
10
-42.339999999999932
20
111.99999999999996
42
0.41421356237309243
10
-37.339999999999932
20
116.99999999999996
10
-37.339999999999932
20
129.20000000000067
42
0.41421356237309243
0
LWPOLYLINE
5
125
100
AcDbEntity
8
0
100
AcDbPolyline
90
8
70
1
43
0.0
10
-57.340000000000003
20
464.00000000000006
10
-137.33999999999997
20
464.00000000000006
42
0.41421356237310542
10
-142.33999999999997
20
459.00000000000006
10
-142.33999999999997
20
454
42
0.41421356237309193
10
-137.34
20
449.00000000000006
10
-57.340000000000018
20
449.00000000000006
42
0.41421356237310442
10
-52.340000000000018
20
454.00000000000006
10
-52.340000000000025
20
459.00000000000006
42
0.41421356237310281
0
LWPOLYLINE
5
126
100
AcDbEntity
8
0
100
AcDbPolyline
90
8
70
1
43
0.0
10
-301.17999999999961
20
324.06666666666695
10
-301.17999999999961
20
259.13333333333384
42
0.41421356237309503
10
-296.17999999999961
20
254.13333333333384
10
-276.17999999999961
20
254.13333333333384
42
0.41421356237309503
10
-271.17999999999967
20
259.13333333333384
10
-271.17999999999967
20
324.066666666667
42
0.41421356237308876
10
-276.17999999999961
20
329.06666666666695
10
-296.17999999999961
20
329.06666666666695
42
0.41421356237310542
0
LWPOLYLINE
5
127
100
AcDbEntity
8
0
100
AcDbPolyline
90
8
70
1
43
0.0
10
-230
20
65.000000000000014
10
-230
20
25.000000000000018
42
0.41421356237309398
10
-225
20
20.000000000000028
10
-165
20
20.000000000000028
42
0.41421356237309398
10
-160
20
25.000000000000018
10
-160
20
65.000000000000014
42
0.41421356237309348
10
-165
20
70.000000000000014
10
-225
20
70.000000000000014
42
0.41421356237309398
0
LWPOLYLINE
5
128
100
AcDbEntity
8
0
100
AcDbPolyline
90
8
70
1
43
0.0
10
-166.75999999999974
20
134.20000000000067
10
-251.17999999999961
20
134.20000000000064
42
0.41421356237308982
10
-256.1799999999995
20
129.20000000000067
10
-256.17999999999955
20
116.99999999999996
42
0.41421356237308876
10
-251.17999999999955
20
111.99999999999994
10
-166.75999999999974
20
111.99999999999996
42
0.41421356237309398
10
-161.75999999999974
20
116.99999999999996
10
-161.75999999999974
20
129.20000000000064
42
0.41421356237310025
0
LWPOLYLINE
5
129
100
AcDbEntity
8
0
100
AcDbPolyline
90
8
70
1
43
0.0
10
-296.17999999999961
20
354.06666666666695
10
-276.17999999999961
20
354.06666666666695
42
0.41421356237310125
10
-271.17999999999967
20
359.06666666666695
10
-271.17999999999961
20
424.00000000000006
42
0.41421356237310542
10
-276.17999999999961
20
429.00000000000006
10
-296.17999999999961
20
429.00000000000006
42
0.41421356237310542
10
-301.17999999999961
20
424.00000000000006
10
-301.17999999999961
20
359.06666666666695
42
0.41421356237310542
0
LWPOLYLINE
5
130
100
AcDbEntity
8
0
100
AcDbPolyline
90
8
70
1
43
0.0
10
-301.17999999999961
20
224.13333333333384
10
-301.17999999999967
20
159.20000000000067
42
0.4142135623730992
10
-296.17999999999967
20
154.20000000000067
10
-276.17999999999967
20
154.2000000000007
42
0.41421356237309609
10
-271.17999999999967
20
159.20000000000067
10
-271.17999999999967
20
224.13333333333384
42
0.41421356237309503
10
-276.17999999999961
20
229.13333333333384
10
-296.17999999999961
20
229.13333333333384
42
0.41421356237309503
0
LWPOLYLINE
5
131
100
AcDbEntity
8
0
100
AcDbPolyline
90
8
70
1
43
0.0
10
-325
20
65.000000000000014
10
-325
20
25.000000000000018
42
0.41421356237310386
10
-320
20
20.000000000000036
10
-260
20
20.000000000000028
42
0.41421356237309398
10
-255
20
25.000000000000018
10
-255
20
65.000000000000014
42
0.41421356237309348
10
-260
20
70.000000000000014
10
-320
20
69.999999999999986
42
0.41421356237310281
0
CIRCLE
5
132
100
AcDbEntity
8
0
100
AcDbCircle
10
-356.50000000000102
20
353.99999999999932
30
0
40
2.2500000000000142
210
0
220
-0
230
1
0
CIRCLE
5
133
100
AcDbEntity
8
0
100
AcDbCircle
10
-461.50000000000176
20
163.99999999999989
30
0
40
2.2500000000000142
210
0
220
-0
230
1
0
CIRCLE
5
134
100
AcDbEntity
8
0
100
AcDbCircle
10
-461.50000000000102
20
353.99999999999977
30
0
40
2.2500000000000142
210
0
220
-0
230
1
0
CIRCLE
5
135
100
AcDbEntity
8
0
100
AcDbCircle
10
-356.50000000000176
20
163.99999999999946
30
0
40
2.2500000000000142
210
0
220
-0
230
1
0
CIRCLE
5
136
100
AcDbEntity
8
0
100
AcDbCircle
10
-10.300000000000015
20
446.73289321881407
30
0
40
1.7999999999999992
210
0
220
0
230
1
0
CIRCLE
5
137
100
AcDbEntity
8
0
100
AcDbCircle
10
-10.300000000000015
20
296.04750000000058
30
0
40
1.7999999999999992
210
0
220
0
230
1
0
CIRCLE
5
138
100
AcDbEntity
8
0
100
AcDbCircle
10
-10.300000000000866
20
145.36210678118707
30
0
40
1.7999999999999992
210
0
220
0
230
1
0
LWPOLYLINE
5
139
100
AcDbEntity
8
0
100
AcDbPolyline
90
4
70
1
43
0.0
10
-481.66228675972457
20
93.249999999999957
10
-481.66228675972457
20
95.249999999999943
42
0.99999999999999989
10
-485.16228675972451
20
95.249999999999943
10
-485.16228675972451
20
93.249999999999957
42
0.99999999999999989
0
LWPOLYLINE
5
140
100
AcDbEntity
8
0
100
AcDbPolyline
90
4
70
1
43
0.0
10
-190.83771324027146
20
93.249999999999972
10
-190.83771324027146
20
95.249999999999972
42
0.99999999999999989
10
-194.33771324027148
20
95.249999999999972
10
-194.33771324027148
20
93.249999999999972
42
0.99999999999999989
0
LWPOLYLINE
5
141
100
AcDbEntity
8
0
100
AcDbPolyline
90
4
70
1
43
0.0
10
-21.250000000000444
20
198.3900000000005
10
-21.250000000000444
20
188.2000000000005
10
-20.390000000000445
20
188.20000000000047
10
-20.390000000000445
20
198.39000000000044
0
LWPOLYLINE
5
142
100
AcDbEntity
8
0
100
AcDbPolyline
90
4
70
1
43
0.0
10
-21.250000000000423
20
279.67000000000036
10
-21.250000000000423
20
269.48000000000042
10
-20.390000000000427
20
269.48000000000042
10
-20.390000000000427
20
279.67000000000036
0
CIRCLE
5
143
100
AcDbEntity
8
0
100
AcDbCircle
10
-32.500000000000398
20
234.45000000000047
30
0
40
1.750000000000016
210
0
220
-0
230
1
0
CIRCLE
5
144
100
AcDbEntity
8
0
100
AcDbCircle
10
-55.360000000000355
20
437.64999999999986
30
0
40
1.750000000000016
210
0
220
-0
230
1
0
CIRCLE
5
145
100
AcDbEntity
8
0
100
AcDbCircle
10
-187.44000000000014
20
437.64999999999986
30
0
40
1.7500000000000071
210
0
220
-0
230
1
0
CIRCLE
5
146
100
AcDbEntity
8
0
100
AcDbCircle
10
-32.500000000000398
20
280.17000000000036
30
0
40
1.750000000000016
210
0
220
-0
230
1
0
CIRCLE
5
147
100
AcDbEntity
8
0
100
AcDbCircle
10
-259.82999999999998
20
155.7100000000006
30
0
40
1.7500000000000071
210
0
220
-0
230
1
0
LWPOLYLINE
5
148
100
AcDbEntity
8
0
100
AcDbPolyline
90
4
70
1
43
0.0
10
-21.250000000000433
20
218.71000000000043
10
-21.250000000000433
20
208.52000000000046
10
-20.390000000000441
20
208.52000000000044
10
-20.390000000000441
20
218.71000000000041
0
LWPOLYLINE
5
149
100
AcDbEntity
8
0
100
AcDbPolyline
90
4
70
1
43
0.0
10
-21.250000000000444
20
178.0700000000005
10
-21.250000000000448
20
167.88000000000054
10
-20.390000000000448
20
167.88000000000051
10
-20.390000000000445
20
178.07000000000048
0
LWPOLYLINE
5
150
100
AcDbEntity
8
0
100
AcDbPolyline
90
4
70
1
43
0.0
10
-21.250000000000423
20
259.35000000000042
10
-21.250000000000426
20
249.16000000000042
10
-20.390000000000434
20
249.16000000000042
10
-20.390000000000427
20
259.35000000000042
0
CIRCLE
5
151
100
AcDbEntity
8
0
100
AcDbCircle
10
-32.500000000000398
20
155.7100000000006
30
0
40
1.750000000000016
210
0
220
-0
230
1
0
CIRCLE
5
152
100
AcDbEntity
8
0
100
AcDbCircle
10
-259.83000000000004
20
280.17000000000036
30
0
40
1.7500000000000071
210
0
220
-0
230
1
0
CIRCLE
5
153
100
AcDbEntity
8
0
100
AcDbCircle
10
-259.82999999999998
20
437.64999999999998
30
0
40
1.7500000000000071
210
0
220
-0
230
1
0
CIRCLE
5
154
100
AcDbEntity
8
0
100
AcDbCircle
10
-187.44000000000017
20
280.17000000000036
30
0
40
1.7500000000000071
210
0
220
-0
230
1
0
CIRCLE
5
155
100
AcDbEntity
8
0
100
AcDbCircle
10
-187.44000000000011
20
155.7100000000006
30
0
40
1.7500000000000071
210
0
220
-0
230
1
0
LWPOLYLINE
5
156
100
AcDbEntity
8
0
100
AcDbPolyline
90
4
70
1
43
0.0
10
-21.25000000000043
20
239.03000000000043
10
-21.250000000000433
20
228.84000000000043
10
-20.390000000000441
20
228.8400000000004
10
-20.390000000000438
20
239.03000000000037
0
LWPOLYLINE
5
157
100
AcDbEntity
8
0
100
AcDbPolyline
90
4
70
1
43
0.0
10
-21.250000000000448
20
157.75000000000051
10
-21.250000000000455
20
147.56000000000054
10
-20.390000000000455
20
147.56000000000054
10
-20.390000000000448
20
157.75000000000051
0
LWPOLYLINE
5
158
100
AcDbEntity
8
0
100
AcDbPolyline
90
10
70
1
43
0.0
10
-479.00000000000023
20
90.000000000000298
10
-479.00000000000023
20
2.7484589226515518e-14
10
-489.00000000000057
20
0
10
-489.00000000000057
20
483.99999999999989
10
-4.9999999999999725
20
483.99999999999989
10
-5
20
0
10
-354.0000000000004
20
3.5527136788005009e-14
10
-354.0000000000004
20
90.000000000000313
42
0.41421356237310231
10
-359.0000000000004
20
95.000000000000298
10
-474.00000000000023
20
95.000000000000298
42
0.41421356237310231
0
LWPOLYLINE
5
159
100
AcDbEntity
8
0
100
AcDbPolyline
90
9
70
1
43
0.0
10
-385.9149999999828
20
405.03520815271872
10
-381.96479184718078
20
401.08500000000021
10
-350.08499999998196
20
401.08499999999987
10
-350.08499999998253
20
448.91499999999996
10
-381.96479184725229
20
448.91499999999104
10
-385.91499999999576
20
444.96479184726638
10
-385.91499999999201
20
429.03520815249135
10
-381.87979184685491
20
425.00000000000239
10
-385.91499999998791
20
420.96479184688383
0
LWPOLYLINE
5
160
100
AcDbEntity
8
0
100
AcDbPolyline
90
22
70
1
43
0.0
10
-409.96479184765889
20
401.08499999997031
10
-398.03520815280876
20
401.08499999998298
10
-394.08500000000356
20
405.03520815284708
10
-394.08500000000657
20
444.96479184730191
10
-398.03520815267115
20
448.9149999999691
10
-401.91499998607378
20
448.91499999995699
10
-401.91499998198742
20
416.96475546065807
10
-406.00003700070306
20
412.87979184784695
10
-410.08499999999464
20
416.96482821504645
10
-410.08499999999447
20
444.96479184661314
10
-414.00000000052358
20
448.87979184711475
10
-417.91500000084562
20
444.96479184640407
10
-417.91500000013707
20
416.96482331394776
10
-421.99996798607123
20
412.87979184753169
10
-426.08499999971565
20
416.96476038049894
10
-426.08499999997258
20
448.91499999967186
10
-429.96479184759858
20
448.91499999963594
10
-433.91500000000042
20
444.96479184670545
10
-433.91499999999405
20
405.03520815260526
10
-429.96479184732539
20
401.08499999994245
10
-418.03520815293558
20
401.08499999995934
10
-414.0000000003368
20
405.12020815262451
0
LWPOLYLINE
5
161
100
AcDbEntity
8
0
100
AcDbPolyline
90
6
70
1
43
0.0
10
-44.000000000000057
20
82.824573519457076
10
-41.250000000000043
20
84.412286759728545
10
-41.250000000000043
20
87.587713240271512
10
-44.000000000000057
20
89.175426480542995
10
-46.750000000000071
20
87.587713240271512
10
-46.750000000000071
20
84.412286759728545
0
LWPOLYLINE
5
162
100
AcDbEntity
8
0
100
AcDbPolyline
90
6
70
1
43
0.0
10
-44.00000000000005
20
20.824573519457068
10
-41.250000000000028
20
22.412286759728545
10
-41.250000000000028
20
25.587713240271505
10
-44.00000000000005
20
27.175426480542988
10
-46.750000000000071
20
25.587713240271516
10
-46.750000000000071
20
22.412286759728556
0
LWPOLYLINE
5
163
100
AcDbEntity
8
0
100
AcDbPolyline
90
6
70
1
43
0.0
10
-117.00000000000011
20
82.82457351945709
10
-114.2500000000001
20
84.412286759728531
10
-114.2500000000001
20
87.587713240271498
10
-117.00000000000011
20
89.175426480542967
10
-119.75000000000014
20
87.587713240271512
10
-119.75000000000001
20
84.412286759728531
0
LWPOLYLINE
5
164
100
AcDbEntity
8
0
100
AcDbPolyline
90
6
70
1
43
0.0
10
-117.0000000000001
20
20.824573519457058
10
-114.2500000000001
20
22.412286759728538
10
-114.2500000000001
20
25.587713240271498
10
-117.0000000000001
20
27.175426480542978
10
-119.7500000000001
20
25.587713240271498
10
-119.7500000000001
20
22.412286759728538
0
CIRCLE
5
165
100
AcDbEntity
8
0
100
AcDbCircle
10
-339.99999999997647
20
462.99999999999909
30
0
40
1.7499999999999716
210
0
220
0
230
1
0
CIRCLE
5
166
100
AcDbEntity
8
0
100
AcDbCircle
10
-329.99999999997647
20
462.99999999999909
30
0
40
1.7499999999999716
210
0
220
0
230
1
0
CIRCLE
5
167
100
AcDbEntity
8
0
100
AcDbCircle
10
-455.60000042332274
20
459.32999999999907
30
0
40
1.7500000000000426
210
0
220
0
230
1
0
CIRCLE
5
168
100
AcDbEntity
8
0
100
AcDbCircle
10
-352.60000042332263
20
459.32999999999907
30
0
40
1.7500000000000426
210
0
220
0
230
1
0
CIRCLE
5
169
100
AcDbEntity
8
0
100
AcDbCircle
10
-373.00000000000097
20
251.78499999999968
30
0
40
1.7499999999999716
210
0
220
0
230
1
0
CIRCLE
5
170
100
AcDbEntity
8
0
100
AcDbCircle
10
-373.00000000000102
20
327.9349999999996
30
0
40
1.7499999999999716
210
0
220
0
230
1
0
CIRCLE
5
171
100
AcDbEntity
8
0
100
AcDbCircle
10
-373.00000000000114
20
266.21499999999958
30
0
40
1.7499999999999716
210
0
220
0
230
1
0
CIRCLE
5
172
100
AcDbEntity
8
0
100
AcDbCircle
10
-449.60000000000105
20
190.06499999999966
30
0
40
1.7499999999999716
210
0
220
0
230
1
0
CIRCLE
5
173
100
AcDbEntity
8
0
100
AcDbCircle
10
-449.60000000000099
20
251.78499999999974
30
0
40
1.7499999999999716
210
0
220
0
230
1
0
CIRCLE
5
174
100
AcDbEntity
8
0
100
AcDbCircle
10
-449.60000000000105
20
327.93499999999966
30
0
40
1.7499999999999716
210
0
220
0
230
1
0
CIRCLE
5
175
100
AcDbEntity
8
0
100
AcDbCircle
10
-449.60000000000105
20
266.21499999999958
30
0
40
1.7499999999999716
210
0
220
0
230
1
0
CIRCLE
5
176
100
AcDbEntity
8
0
100
AcDbCircle
10
-373.00000000000102
20
190.0649999999996
30
0
40
1.7499999999999716
210
0
220
0
230
1
0
LWPOLYLINE
5
177
100
AcDbEntity
8
0
100
AcDbPolyline
90
4
70
1
43
0.0
10
-413.00000000000114
20
183.99999999999966
10
-413.00000000000114
20
178.99999999999974
10
-405.00000000000108
20
178.99999999999974
10
-405.00000000000108
20
183.99999999999966
0
LWPOLYLINE
5
178
100
AcDbEntity
8
0
100
AcDbPolyline
90
4
70
1
43
0.0
10
-413.00000000000102
20
333.99999999999955
10
-405.00000000000108
20
333.99999999999955
10
-405.00000000000108
20
338.99999999999955
10
-413.00000000000102
20
338.99999999999955
0
LWPOLYLINE
5
179
100
AcDbEntity
8
0
100
AcDbPolyline
90
6
70
1
43
0.0
10
-347.99999999999
20
399.17542648016359
10
-350.74999999998971
20
397.58771323989231
10
-350.74999999998971
20
394.41228675934957
10
-347.99999999999
20
392.82457351907829
10
-345.24999999999034
20
394.41228675934957
10
-345.24999999999034
20
397.58771323989231
0
LWPOLYLINE
5
180
100
AcDbEntity
8
0
100
AcDbPolyline
90
6
70
1
43
0.0
10
-438.79999999999006
20
443.17542648016388
10
-441.54999999999001
20
441.58771323989231
10
-441.54999999998995
20
438.41228675934957
10
-438.79999999998995
20
436.82457351907817
10
-436.04999999999001
20
438.41228675934957
10
-436.04999999999018
20
441.58771323989231
0
LWPOLYLINE
5
181
100
AcDbEntity
8
0
100
AcDbPolyline
90
6
70
1
43
0.0
10
-345.19999999999004
20
443.17542648016371
10
-347.94999999998981
20
441.58771323989231
10
-347.94999999998981
20
438.41228675934963
10
-345.19999999999004
20
436.82457351907829
10
-342.44999999999027
20
438.41228675934963
10
-342.44999999999027
20
441.58771323989237
0
LWPOLYLINE
5
182
100
AcDbEntity
8
0
100
AcDbPolyline
90
6
70
1
43
0.0
10
-435.99999999999005
20
399.17542648016365
10
-438.74999999998983
20
397.58771323989237
10
-438.74999999998977
20
394.41228675934951
10
-435.99999999998994
20
392.82457351907823
10
-433.24999999999017
20
394.41228675934963
10
-433.24999999999022
20
397.58771323989237
0
LWPOLYLINE
5
183
100
AcDbEntity
8
0
100
AcDbPolyline
90
9
70
1
43
0.0
10
-382.00000000005383
20
448.99999999999102
10
-385.99999999999574
20
445.00000000006816
10
-385.99999999999199
20
428.99999999968566
10
-381.99999999966155
20
424.99999999999773
10
-385.99999999998784
20
420.99999999968566
10
-385.99999999998272
20
404.99999999991644
10
-381.99999999998198
20
401.00000000000023
10
-349.99999999998192
20
400.99999999999989
10
-349.99999999998249
20
448.99999999999989
0
LWPOLYLINE
5
184
100
AcDbEntity
8
0
100
AcDbPolyline
90
22
70
1
43
0.0
10
-430.00000000040393
20
448.99999999963552
10
-434.0000000000004
20
444.99999999950387
10
-433.99999999999403
20
404.99999999980355
10
-430.00000000012705
20
400.99999999994236
10
-418.00000000013341
20
400.99999999995941
10
-414.00000000033617
20
404.99999999982253
10
-410.00000000046043
20
400.99999999997021
10
-398.00000000000659
20
400.99999999998312
10
-394.00000000000364
20
405.0000000000457
10
-394.00000000000659
20
445.00000000010368
10
-397.99999999986943
20
448.99999999996919
10
-401.99999998608462
20
448.99999999995669
10
-401.99999998199189
20
416.99996406082641
10
-406.00003592093503
20
413.00000000036442
10
-409.99999999999466
20
417.00003592071027
10
-409.99999999999443
20
444.99999999941497
10
-414.00000000052677
20
448.99999999991917
10
-418.00000000084651
20
444.99999999920237
10
-418.00000000013796
20
417.00003107986907
10
-421.99996892008386
20
413.00000000032844
10
-425.99999999971595
20
416.99996892018294
10
-425.99999999997328
20
448.99999999967264
0
LWPOLYLINE
5
185
100
AcDbEntity
8
0
100
AcDbPolyline
90
8
70
1
43
0.0
10
-42.339999999999932
20
134.20000000000067
10
-126.75999999999974
20
134.20000000000067
42
0.41421356237309293
10
-131.75999999999974
20
129.20000000000067
10
-131.75999999999974
20
116.99999999999996
42
0.41421356237309293
10
-126.75999999999974
20
111.99999999999996
10
-42.339999999999932
20
111.99999999999996
42
0.41421356237309243
10
-37.339999999999932
20
116.99999999999996
10
-37.339999999999932
20
129.20000000000067
42
0.41421356237309243
0
LWPOLYLINE
5
186
100
AcDbEntity
8
0
100
AcDbPolyline
90
8
70
1
43
0.0
10
-57.340000000000003
20
464.00000000000006
10
-137.33999999999997
20
464.00000000000006
42
0.41421356237310542
10
-142.33999999999997
20
459.00000000000006
10
-142.33999999999997
20
454
42
0.41421356237309193
10
-137.34
20
449.00000000000006
10
-57.340000000000018
20
449.00000000000006
42
0.41421356237310442
10
-52.340000000000018
20
454.00000000000006
10
-52.340000000000025
20
459.00000000000006
42
0.41421356237310281
0
LWPOLYLINE
5
187
100
AcDbEntity
8
0
100
AcDbPolyline
90
8
70
1
43
0.0
10
-301.17999999999961
20
324.06666666666695
10
-301.17999999999961
20
259.13333333333384
42
0.41421356237309503
10
-296.17999999999961
20
254.13333333333384
10
-276.17999999999961
20
254.13333333333384
42
0.41421356237309503
10
-271.17999999999967
20
259.13333333333384
10
-271.17999999999967
20
324.066666666667
42
0.41421356237308876
10
-276.17999999999961
20
329.06666666666695
10
-296.17999999999961
20
329.06666666666695
42
0.41421356237310542
0
LWPOLYLINE
5
188
100
AcDbEntity
8
0
100
AcDbPolyline
90
8
70
1
43
0.0
10
-230
20
65.000000000000014
10
-230
20
25.000000000000018
42
0.41421356237309398
10
-225
20
20.000000000000028
10
-165
20
20.000000000000028
42
0.41421356237309398
10
-160
20
25.000000000000018
10
-160
20
65.000000000000014
42
0.41421356237309348
10
-165
20
70.000000000000014
10
-225
20
70.000000000000014
42
0.41421356237309398
0
LWPOLYLINE
5
189
100
AcDbEntity
8
0
100
AcDbPolyline
90
8
70
1
43
0.0
10
-166.75999999999974
20
134.20000000000067
10
-251.17999999999961
20
134.20000000000064
42
0.41421356237308982
10
-256.1799999999995
20
129.20000000000067
10
-256.17999999999955
20
116.99999999999996
42
0.41421356237308876
10
-251.17999999999955
20
111.99999999999994
10
-166.75999999999974
20
111.99999999999996
42
0.41421356237309398
10
-161.75999999999974
20
116.99999999999996
10
-161.75999999999974
20
129.20000000000064
42
0.41421356237310025
0
LWPOLYLINE
5
190
100
AcDbEntity
8
0
100
AcDbPolyline
90
8
70
1
43
0.0
10
-296.17999999999961
20
354.06666666666695
10
-276.17999999999961
20
354.06666666666695
42
0.41421356237310125
10
-271.17999999999967
20
359.06666666666695
10
-271.17999999999961
20
424.00000000000006
42
0.41421356237310542
10
-276.17999999999961
20
429.00000000000006
10
-296.17999999999961
20
429.00000000000006
42
0.41421356237310542
10
-301.17999999999961
20
424.00000000000006
10
-301.17999999999961
20
359.06666666666695
42
0.41421356237310542
0
LWPOLYLINE
5
191
100
AcDbEntity
8
0
100
AcDbPolyline
90
8
70
1
43
0.0
10
-301.17999999999961
20
224.13333333333384
10
-301.17999999999967
20
159.20000000000067
42
0.4142135623730992
10
-296.17999999999967
20
154.20000000000067
10
-276.17999999999967
20
154.2000000000007
42
0.41421356237309609
10
-271.17999999999967
20
159.20000000000067
10
-271.17999999999967
20
224.13333333333384
42
0.41421356237309503
10
-276.17999999999961
20
229.13333333333384
10
-296.17999999999961
20
229.13333333333384
42
0.41421356237309503
0
LWPOLYLINE
5
192
100
AcDbEntity
8
0
100
AcDbPolyline
90
8
70
1
43
0.0
10
-325
20
65.000000000000014
10
-325
20
25.000000000000018
42
0.41421356237310386
10
-320
20
20.000000000000036
10
-260
20
20.000000000000028
42
0.41421356237309398
10
-255
20
25.000000000000018
10
-255
20
65.000000000000014
42
0.41421356237309348
10
-260
20
70.000000000000014
10
-320
20
69.999999999999986
42
0.41421356237310281
0
CIRCLE
5
193
100
AcDbEntity
8
0
100
AcDbCircle
10
-356.50000000000102
20
353.99999999999932
30
0
40
2.2500000000000142
210
0
220
-0
230
1
0
CIRCLE
5
194
100
AcDbEntity
8
0
100
AcDbCircle
10
-461.50000000000176
20
163.99999999999989
30
0
40
2.2500000000000142
210
0
220
-0
230
1
0
CIRCLE
5
195
100
AcDbEntity
8
0
100
AcDbCircle
10
-461.50000000000102
20
353.99999999999977
30
0
40
2.2500000000000142
210
0
220
-0
230
1
0
CIRCLE
5
196
100
AcDbEntity
8
0
100
AcDbCircle
10
-356.50000000000176
20
163.99999999999946
30
0
40
2.2500000000000142
210
0
220
-0
230
1
0
CIRCLE
5
197
100
AcDbEntity
8
0
100
AcDbCircle
10
-10.300000000000015
20
446.73289321881407
30
0
40
1.7999999999999992
210
0
220
0
230
1
0
CIRCLE
5
198
100
AcDbEntity
8
0
100
AcDbCircle
10
-10.300000000000015
20
296.04750000000058
30
0
40
1.7999999999999992
210
0
220
0
230
1
0
CIRCLE
5
199
100
AcDbEntity
8
0
100
AcDbCircle
10
-10.300000000000866
20
145.36210678118707
30
0
40
1.7999999999999992
210
0
220
0
230
1
0
LWPOLYLINE
5
200
100
AcDbEntity
8
0
100
AcDbPolyline
90
4
70
1
43
0.0
10
-481.66228675972457
20
93.249999999999957
10
-481.66228675972457
20
95.249999999999943
42
0.99999999999999989
10
-485.16228675972451
20
95.249999999999943
10
-485.16228675972451
20
93.249999999999957
42
0.99999999999999989
0
LWPOLYLINE
5
201
100
AcDbEntity
8
0
100
AcDbPolyline
90
4
70
1
43
0.0
10
-190.83771324027146
20
93.249999999999972
10
-190.83771324027146
20
95.249999999999972
42
0.99999999999999989
10
-194.33771324027148
20
95.249999999999972
10
-194.33771324027148
20
93.249999999999972
42
0.99999999999999989
0
LWPOLYLINE
5
202
100
AcDbEntity
8
0
100
AcDbPolyline
90
4
70
1
43
0.0
10
-21.250000000000444
20
198.3900000000005
10
-21.250000000000444
20
188.2000000000005
10
-20.390000000000445
20
188.20000000000047
10
-20.390000000000445
20
198.39000000000044
0
LWPOLYLINE
5
203
100
AcDbEntity
8
0
100
AcDbPolyline
90
4
70
1
43
0.0
10
-21.250000000000423
20
279.67000000000036
10
-21.250000000000423
20
269.48000000000042
10
-20.390000000000427
20
269.48000000000042
10
-20.390000000000427
20
279.67000000000036
0
CIRCLE
5
204
100
AcDbEntity
8
0
100
AcDbCircle
10
-32.500000000000398
20
234.45000000000047
30
0
40
1.750000000000016
210
0
220
-0
230
1
0
CIRCLE
5
205
100
AcDbEntity
8
0
100
AcDbCircle
10
-55.360000000000355
20
437.64999999999986
30
0
40
1.750000000000016
210
0
220
-0
230
1
0
CIRCLE
5
206
100
AcDbEntity
8
0
100
AcDbCircle
10
-187.44000000000014
20
437.64999999999986
30
0
40
1.7500000000000071
210
0
220
-0
230
1
0
CIRCLE
5
207
100
AcDbEntity
8
0
100
AcDbCircle
10
-32.500000000000398
20
280.17000000000036
30
0
40
1.750000000000016
210
0
220
-0
230
1
0
CIRCLE
5
208
100
AcDbEntity
8
0
100
AcDbCircle
10
-259.82999999999998
20
155.7100000000006
30
0
40
1.7500000000000071
210
0
220
-0
230
1
0
LWPOLYLINE
5
209
100
AcDbEntity
8
0
100
AcDbPolyline
90
4
70
1
43
0.0
10
-21.250000000000433
20
218.71000000000043
10
-21.250000000000433
20
208.52000000000046
10
-20.390000000000441
20
208.52000000000044
10
-20.390000000000441
20
218.71000000000041
0
LWPOLYLINE
5
210
100
AcDbEntity
8
0
100
AcDbPolyline
90
4
70
1
43
0.0
10
-21.250000000000444
20
178.0700000000005
10
-21.250000000000448
20
167.88000000000054
10
-20.390000000000448
20
167.88000000000051
10
-20.390000000000445
20
178.07000000000048
0
LWPOLYLINE
5
211
100
AcDbEntity
8
0
100
AcDbPolyline
90
4
70
1
43
0.0
10
-21.250000000000423
20
259.35000000000042
10
-21.250000000000426
20
249.16000000000042
10
-20.390000000000434
20
249.16000000000042
10
-20.390000000000427
20
259.35000000000042
0
CIRCLE
5
212
100
AcDbEntity
8
0
100
AcDbCircle
10
-32.500000000000398
20
155.7100000000006
30
0
40
1.750000000000016
210
0
220
-0
230
1
0
CIRCLE
5
213
100
AcDbEntity
8
0
100
AcDbCircle
10
-259.83000000000004
20
280.17000000000036
30
0
40
1.7500000000000071
210
0
220
-0
230
1
0
CIRCLE
5
214
100
AcDbEntity
8
0
100
AcDbCircle
10
-259.82999999999998
20
437.64999999999998
30
0
40
1.7500000000000071
210
0
220
-0
230
1
0
CIRCLE
5
215
100
AcDbEntity
8
0
100
AcDbCircle
10
-187.44000000000017
20
280.17000000000036
30
0
40
1.7500000000000071
210
0
220
-0
230
1
0
CIRCLE
5
216
100
AcDbEntity
8
0
100
AcDbCircle
10
-187.44000000000011
20
155.7100000000006
30
0
40
1.7500000000000071
210
0
220
-0
230
1
0
LWPOLYLINE
5
217
100
AcDbEntity
8
0
100
AcDbPolyline
90
4
70
1
43
0.0
10
-21.25000000000043
20
239.03000000000043
10
-21.250000000000433
20
228.84000000000043
10
-20.390000000000441
20
228.8400000000004
10
-20.390000000000438
20
239.03000000000037
0
LWPOLYLINE
5
218
100
AcDbEntity
8
0
100
AcDbPolyline
90
4
70
1
43
0.0
10
-21.250000000000448
20
157.75000000000051
10
-21.250000000000455
20
147.56000000000054
10
-20.390000000000455
20
147.56000000000054
10
-20.390000000000448
20
157.75000000000051
0
LWPOLYLINE
5
219
100
AcDbEntity
8
0
100
AcDbPolyline
90
10
70
1
43
0.0
10
-479.00000000000023
20
90.000000000000298
10
-479.00000000000023
20
2.7484589226515518e-14
10
-489.00000000000057
20
0
10
-489.00000000000057
20
483.99999999999989
10
-4.9999999999999725
20
483.99999999999989
10
-5
20
0
10
-354.0000000000004
20
3.5527136788005009e-14
10
-354.0000000000004
20
90.000000000000313
42
0.41421356237310231
10
-359.0000000000004
20
95.000000000000298
10
-474.00000000000023
20
95.000000000000298
42
0.41421356237310231
0
LWPOLYLINE
5
220
100
AcDbEntity
8
0
100
AcDbPolyline
90
6
70
1
43
0.0
10
-44.000000000000057
20
82.824573519457076
10
-41.250000000000043
20
84.412286759728545
10
-41.250000000000043
20
87.587713240271512
10
-44.000000000000057
20
89.175426480542995
10
-46.750000000000071
20
87.587713240271512
10
-46.750000000000071
20
84.412286759728545
0
LWPOLYLINE
5
221
100
AcDbEntity
8
0
100
AcDbPolyline
90
6
70
1
43
0.0
10
-44.00000000000005
20
20.824573519457068
10
-41.250000000000028
20
22.412286759728545
10
-41.250000000000028
20
25.587713240271505
10
-44.00000000000005
20
27.175426480542988
10
-46.750000000000071
20
25.587713240271516
10
-46.750000000000071
20
22.412286759728556
0
LWPOLYLINE
5
222
100
AcDbEntity
8
0
100
AcDbPolyline
90
6
70
1
43
0.0
10
-117.00000000000011
20
82.82457351945709
10
-114.2500000000001
20
84.412286759728531
10
-114.2500000000001
20
87.587713240271498
10
-117.00000000000011
20
89.175426480542967
10
-119.75000000000014
20
87.587713240271512
10
-119.75000000000001
20
84.412286759728531
0
LWPOLYLINE
5
223
100
AcDbEntity
8
0
100
AcDbPolyline
90
6
70
1
43
0.0
10
-117.0000000000001
20
20.824573519457058
10
-114.2500000000001
20
22.412286759728538
10
-114.2500000000001
20
25.587713240271498
10
-117.0000000000001
20
27.175426480542978
10
-119.7500000000001
20
25.587713240271498
10
-119.7500000000001
20
22.412286759728538
0
CIRCLE
5
224
100
AcDbEntity
8
0
100
AcDbCircle
10
-339.99999999997647
20
462.99999999999909
30
0
40
1.7499999999999716
210
0
220
0
230
1
0
CIRCLE
5
225
100
AcDbEntity
8
0
100
AcDbCircle
10
-329.99999999997647
20
462.99999999999909
30
0
40
1.7499999999999716
210
0
220
0
230
1
0
CIRCLE
5
226
100
AcDbEntity
8
0
100
AcDbCircle
10
-455.60000042332274
20
459.32999999999907
30
0
40
1.7500000000000426
210
0
220
0
230
1
0
CIRCLE
5
227
100
AcDbEntity
8
0
100
AcDbCircle
10
-352.60000042332263
20
459.32999999999907
30
0
40
1.7500000000000426
210
0
220
0
230
1
0
CIRCLE
5
228
100
AcDbEntity
8
0
100
AcDbCircle
10
-373.00000000000097
20
251.78499999999968
30
0
40
1.7499999999999716
210
0
220
0
230
1
0
CIRCLE
5
229
100
AcDbEntity
8
0
100
AcDbCircle
10
-373.00000000000102
20
327.9349999999996
30
0
40
1.7499999999999716
210
0
220
0
230
1
0
CIRCLE
5
230
100
AcDbEntity
8
0
100
AcDbCircle
10
-373.00000000000114
20
266.21499999999958
30
0
40
1.7499999999999716
210
0
220
0
230
1
0
CIRCLE
5
231
100
AcDbEntity
8
0
100
AcDbCircle
10
-449.60000000000105
20
190.06499999999966
30
0
40
1.7499999999999716
210
0
220
0
230
1
0
CIRCLE
5
232
100
AcDbEntity
8
0
100
AcDbCircle
10
-449.60000000000099
20
251.78499999999974
30
0
40
1.7499999999999716
210
0
220
0
230
1
0
CIRCLE
5
233
100
AcDbEntity
8
0
100
AcDbCircle
10
-449.60000000000105
20
327.93499999999966
30
0
40
1.7499999999999716
210
0
220
0
230
1
0
CIRCLE
5
234
100
AcDbEntity
8
0
100
AcDbCircle
10
-449.60000000000105
20
266.21499999999958
30
0
40
1.7499999999999716
210
0
220
0
230
1
0
CIRCLE
5
235
100
AcDbEntity
8
0
100
AcDbCircle
10
-373.00000000000102
20
190.0649999999996
30
0
40
1.7499999999999716
210
0
220
0
230
1
0
LWPOLYLINE
5
236
100
AcDbEntity
8
0
100
AcDbPolyline
90
4
70
1
43
0.0
10
-413.00000000000114
20
183.99999999999966
10
-413.00000000000114
20
178.99999999999974
10
-405.00000000000108
20
178.99999999999974
10
-405.00000000000108
20
183.99999999999966
0
LWPOLYLINE
5
237
100
AcDbEntity
8
0
100
AcDbPolyline
90
4
70
1
43
0.0
10
-413.00000000000102
20
333.99999999999955
10
-405.00000000000108
20
333.99999999999955
10
-405.00000000000108
20
338.99999999999955
10
-413.00000000000102
20
338.99999999999955
0
LWPOLYLINE
5
238
100
AcDbEntity
8
0
100
AcDbPolyline
90
6
70
1
43
0.0
10
-347.99999999999
20
399.17542648016359
10
-350.74999999998971
20
397.58771323989231
10
-350.74999999998971
20
394.41228675934957
10
-347.99999999999
20
392.82457351907829
10
-345.24999999999034
20
394.41228675934957
10
-345.24999999999034
20
397.58771323989231
0
LWPOLYLINE
5
239
100
AcDbEntity
8
0
100
AcDbPolyline
90
6
70
1
43
0.0
10
-438.79999999999006
20
443.17542648016388
10
-441.54999999999001
20
441.58771323989231
10
-441.54999999998995
20
438.41228675934957
10
-438.79999999998995
20
436.82457351907817
10
-436.04999999999001
20
438.41228675934957
10
-436.04999999999018
20
441.58771323989231
0
LWPOLYLINE
5
240
100
AcDbEntity
8
0
100
AcDbPolyline
90
6
70
1
43
0.0
10
-345.19999999999004
20
443.17542648016371
10
-347.94999999998981
20
441.58771323989231
10
-347.94999999998981
20
438.41228675934963
10
-345.19999999999004
20
436.82457351907829
10
-342.44999999999027
20
438.41228675934963
10
-342.44999999999027
20
441.58771323989237
0
LWPOLYLINE
5
241
100
AcDbEntity
8
0
100
AcDbPolyline
90
6
70
1
43
0.0
10
-435.99999999999005
20
399.17542648016365
10
-438.74999999998983
20
397.58771323989237
10
-438.74999999998977
20
394.41228675934951
10
-435.99999999998994
20
392.82457351907823
10
-433.24999999999017
20
394.41228675934963
10
-433.24999999999022
20
397.58771323989237
0
LWPOLYLINE
5
242
100
AcDbEntity
8
0
100
AcDbPolyline
90
9
70
1
43
0.0
10
-382.00000000005383
20
448.99999999999102
10
-385.99999999999574
20
445.00000000006816
10
-385.99999999999199
20
428.99999999968566
10
-381.99999999966155
20
424.99999999999773
10
-385.99999999998784
20
420.99999999968566
10
-385.99999999998272
20
404.99999999991644
10
-381.99999999998198
20
401.00000000000023
10
-349.99999999998192
20
400.99999999999989
10
-349.99999999998249
20
448.99999999999989
0
LWPOLYLINE
5
243
100
AcDbEntity
8
0
100
AcDbPolyline
90
22
70
1
43
0.0
10
-430.00000000040393
20
448.99999999963552
10
-434.0000000000004
20
444.99999999950387
10
-433.99999999999403
20
404.99999999980355
10
-430.00000000012705
20
400.99999999994236
10
-418.00000000013341
20
400.99999999995941
10
-414.00000000033617
20
404.99999999982253
10
-410.00000000046043
20
400.99999999997021
10
-398.00000000000659
20
400.99999999998312
10
-394.00000000000364
20
405.0000000000457
10
-394.00000000000659
20
445.00000000010368
10
-397.99999999986943
20
448.99999999996919
10
-401.99999998608462
20
448.99999999995669
10
-401.99999998199189
20
416.99996406082641
10
-406.00003592093503
20
413.00000000036442
10
-409.99999999999466
20
417.00003592071027
10
-409.99999999999443
20
444.99999999941497
10
-414.00000000052677
20
448.99999999991917
10
-418.00000000084651
20
444.99999999920237
10
-418.00000000013796
20
417.00003107986907
10
-421.99996892008386
20
413.00000000032844
10
-425.99999999971595
20
416.99996892018294
10
-425.99999999997328
20
448.99999999967264
0
LWPOLYLINE
5
244
100
AcDbEntity
8
0
100
AcDbPolyline
90
8
70
1
43
0.0
10
-42.339999999999932
20
134.20000000000067
10
-126.75999999999974
20
134.20000000000067
42
0.41421356237309293
10
-131.75999999999974
20
129.20000000000067
10
-131.75999999999974
20
116.99999999999996
42
0.41421356237309293
10
-126.75999999999974
20
111.99999999999996
10
-42.339999999999932
20
111.99999999999996
42
0.41421356237309243
10
-37.339999999999932
20
116.99999999999996
10
-37.339999999999932
20
129.20000000000067
42
0.41421356237309243
0
LWPOLYLINE
5
245
100
AcDbEntity
8
0
100
AcDbPolyline
90
8
70
1
43
0.0
10
-57.340000000000003
20
464.00000000000006
10
-137.33999999999997
20
464.00000000000006
42
0.41421356237310542
10
-142.33999999999997
20
459.00000000000006
10
-142.33999999999997
20
454
42
0.41421356237309193
10
-137.34
20
449.00000000000006
10
-57.340000000000018
20
449.00000000000006
42
0.41421356237310442
10
-52.340000000000018
20
454.00000000000006
10
-52.340000000000025
20
459.00000000000006
42
0.41421356237310281
0
LWPOLYLINE
5
246
100
AcDbEntity
8
0
100
AcDbPolyline
90
8
70
1
43
0.0
10
-301.17999999999961
20
324.06666666666695
10
-301.17999999999961
20
259.13333333333384
42
0.41421356237309503
10
-296.17999999999961
20
254.13333333333384
10
-276.17999999999961
20
254.13333333333384
42
0.41421356237309503
10
-271.17999999999967
20
259.13333333333384
10
-271.17999999999967
20
324.066666666667
42
0.41421356237308876
10
-276.17999999999961
20
329.06666666666695
10
-296.17999999999961
20
329.06666666666695
42
0.41421356237310542
0
LWPOLYLINE
5
247
100
AcDbEntity
8
0
100
AcDbPolyline
90
8
70
1
43
0.0
10
-230
20
65.000000000000014
10
-230
20
25.000000000000018
42
0.41421356237309398
10
-225
20
20.000000000000028
10
-165
20
20.000000000000028
42
0.41421356237309398
10
-160
20
25.000000000000018
10
-160
20
65.000000000000014
42
0.41421356237309348
10
-165
20
70.000000000000014
10
-225
20
70.000000000000014
42
0.41421356237309398
0
LWPOLYLINE
5
248
100
AcDbEntity
8
0
100
AcDbPolyline
90
8
70
1
43
0.0
10
-166.75999999999974
20
134.20000000000067
10
-251.17999999999961
20
134.20000000000064
42
0.41421356237308982
10
-256.1799999999995
20
129.20000000000067
10
-256.17999999999955
20
116.99999999999996
42
0.41421356237308876
10
-251.17999999999955
20
111.99999999999994
10
-166.75999999999974
20
111.99999999999996
42
0.41421356237309398
10
-161.75999999999974
20
116.99999999999996
10
-161.75999999999974
20
129.20000000000064
42
0.41421356237310025
0
LWPOLYLINE
5
249
100
AcDbEntity
8
0
100
AcDbPolyline
90
8
70
1
43
0.0
10
-296.17999999999961
20
354.06666666666695
10
-276.17999999999961
20
354.06666666666695
42
0.41421356237310125
10
-271.17999999999967
20
359.06666666666695
10
-271.17999999999961
20
424.00000000000006
42
0.41421356237310542
10
-276.17999999999961
20
429.00000000000006
10
-296.17999999999961
20
429.00000000000006
42
0.41421356237310542
10
-301.17999999999961
20
424.00000000000006
10
-301.17999999999961
20
359.06666666666695
42
0.41421356237310542
0
LWPOLYLINE
5
250
100
AcDbEntity
8
0
100
AcDbPolyline
90
8
70
1
43
0.0
10
-301.17999999999961
20
224.13333333333384
10
-301.17999999999967
20
159.20000000000067
42
0.4142135623730992
10
-296.17999999999967
20
154.20000000000067
10
-276.17999999999967
20
154.2000000000007
42
0.41421356237309609
10
-271.17999999999967
20
159.20000000000067
10
-271.17999999999967
20
224.13333333333384
42
0.41421356237309503
10
-276.17999999999961
20
229.13333333333384
10
-296.17999999999961
20
229.13333333333384
42
0.41421356237309503
0
LWPOLYLINE
5
251
100
AcDbEntity
8
0
100
AcDbPolyline
90
8
70
1
43
0.0
10
-325
20
65.000000000000014
10
-325
20
25.000000000000018
42
0.41421356237310386
10
-320
20
20.000000000000036
10
-260
20
20.000000000000028
42
0.41421356237309398
10
-255
20
25.000000000000018
10
-255
20
65.000000000000014
42
0.41421356237309348
10
-260
20
70.000000000000014
10
-320
20
69.999999999999986
42
0.41421356237310281
0
CIRCLE
5
252
100
AcDbEntity
8
0
100
AcDbCircle
10
-356.50000000000102
20
353.99999999999932
30
0
40
2.2500000000000142
210
0
220
-0
230
1
0
CIRCLE
5
253
100
AcDbEntity
8
0
100
AcDbCircle
10
-461.50000000000176
20
163.99999999999989
30
0
40
2.2500000000000142
210
0
220
-0
230
1
0
CIRCLE
5
254
100
AcDbEntity
8
0
100
AcDbCircle
10
-461.50000000000102
20
353.99999999999977
30
0
40
2.2500000000000142
210
0
220
-0
230
1
0
CIRCLE
5
255
100
AcDbEntity
8
0
100
AcDbCircle
10
-356.50000000000176
20
163.99999999999946
30
0
40
2.2500000000000142
210
0
220
-0
230
1
0
CIRCLE
5
256
100
AcDbEntity
8
0
100
AcDbCircle
10
-10.300000000000015
20
446.73289321881407
30
0
40
1.7999999999999992
210
0
220
0
230
1
0
CIRCLE
5
257
100
AcDbEntity
8
0
100
AcDbCircle
10
-10.300000000000015
20
296.04750000000058
30
0
40
1.7999999999999992
210
0
220
0
230
1
0
CIRCLE
5
258
100
AcDbEntity
8
0
100
AcDbCircle
10
-10.300000000000866
20
145.36210678118707
30
0
40
1.7999999999999992
210
0
220
0
230
1
0
LWPOLYLINE
5
259
100
AcDbEntity
8
0
100
AcDbPolyline
90
4
70
1
43
0.0
10
-481.66228675972457
20
93.249999999999957
10
-481.66228675972457
20
95.249999999999943
42
0.99999999999999989
10
-485.16228675972451
20
95.249999999999943
10
-485.16228675972451
20
93.249999999999957
42
0.99999999999999989
0
LWPOLYLINE
5
260
100
AcDbEntity
8
0
100
AcDbPolyline
90
4
70
1
43
0.0
10
-190.83771324027146
20
93.249999999999972
10
-190.83771324027146
20
95.249999999999972
42
0.99999999999999989
10
-194.33771324027148
20
95.249999999999972
10
-194.33771324027148
20
93.249999999999972
42
0.99999999999999989
0
LWPOLYLINE
5
261
100
AcDbEntity
8
0
100
AcDbPolyline
90
4
70
1
43
0.0
10
-21.250000000000444
20
198.3900000000005
10
-21.250000000000444
20
188.2000000000005
10
-20.390000000000445
20
188.20000000000047
10
-20.390000000000445
20
198.39000000000044
0
LWPOLYLINE
5
262
100
AcDbEntity
8
0
100
AcDbPolyline
90
4
70
1
43
0.0
10
-21.250000000000423
20
279.67000000000036
10
-21.250000000000423
20
269.48000000000042
10
-20.390000000000427
20
269.48000000000042
10
-20.390000000000427
20
279.67000000000036
0
CIRCLE
5
263
100
AcDbEntity
8
0
100
AcDbCircle
10
-32.500000000000398
20
234.45000000000047
30
0
40
1.750000000000016
210
0
220
-0
230
1
0
CIRCLE
5
264
100
AcDbEntity
8
0
100
AcDbCircle
10
-55.360000000000355
20
437.64999999999986
30
0
40
1.750000000000016
210
0
220
-0
230
1
0
CIRCLE
5
265
100
AcDbEntity
8
0
100
AcDbCircle
10
-187.44000000000014
20
437.64999999999986
30
0
40
1.7500000000000071
210
0
220
-0
230
1
0
CIRCLE
5
266
100
AcDbEntity
8
0
100
AcDbCircle
10
-32.500000000000398
20
280.17000000000036
30
0
40
1.750000000000016
210
0
220
-0
230
1
0
CIRCLE
5
267
100
AcDbEntity
8
0
100
AcDbCircle
10
-259.82999999999998
20
155.7100000000006
30
0
40
1.7500000000000071
210
0
220
-0
230
1
0
LWPOLYLINE
5
268
100
AcDbEntity
8
0
100
AcDbPolyline
90
4
70
1
43
0.0
10
-21.250000000000433
20
218.71000000000043
10
-21.250000000000433
20
208.52000000000046
10
-20.390000000000441
20
208.52000000000044
10
-20.390000000000441
20
218.71000000000041
0
LWPOLYLINE
5
269
100
AcDbEntity
8
0
100
AcDbPolyline
90
4
70
1
43
0.0
10
-21.250000000000444
20
178.0700000000005
10
-21.250000000000448
20
167.88000000000054
10
-20.390000000000448
20
167.88000000000051
10
-20.390000000000445
20
178.07000000000048
0
LWPOLYLINE
5
270
100
AcDbEntity
8
0
100
AcDbPolyline
90
4
70
1
43
0.0
10
-21.250000000000423
20
259.35000000000042
10
-21.250000000000426
20
249.16000000000042
10
-20.390000000000434
20
249.16000000000042
10
-20.390000000000427
20
259.35000000000042
0
CIRCLE
5
271
100
AcDbEntity
8
0
100
AcDbCircle
10
-32.500000000000398
20
155.7100000000006
30
0
40
1.750000000000016
210
0
220
-0
230
1
0
CIRCLE
5
272
100
AcDbEntity
8
0
100
AcDbCircle
10
-259.83000000000004
20
280.17000000000036
30
0
40
1.7500000000000071
210
0
220
-0
230
1
0
CIRCLE
5
273
100
AcDbEntity
8
0
100
AcDbCircle
10
-259.82999999999998
20
437.64999999999998
30
0
40
1.7500000000000071
210
0
220
-0
230
1
0
CIRCLE
5
274
100
AcDbEntity
8
0
100
AcDbCircle
10
-187.44000000000017
20
280.17000000000036
30
0
40
1.7500000000000071
210
0
220
-0
230
1
0
CIRCLE
5
275
100
AcDbEntity
8
0
100
AcDbCircle
10
-187.44000000000011
20
155.7100000000006
30
0
40
1.7500000000000071
210
0
220
-0
230
1
0
LWPOLYLINE
5
276
100
AcDbEntity
8
0
100
AcDbPolyline
90
4
70
1
43
0.0
10
-21.25000000000043
20
239.03000000000043
10
-21.250000000000433
20
228.84000000000043
10
-20.390000000000441
20
228.8400000000004
10
-20.390000000000438
20
239.03000000000037
0
LWPOLYLINE
5
277
100
AcDbEntity
8
0
100
AcDbPolyline
90
4
70
1
43
0.0
10
-21.250000000000448
20
157.75000000000051
10
-21.250000000000455
20
147.56000000000054
10
-20.390000000000455
20
147.56000000000054
10
-20.390000000000448
20
157.75000000000051
0
LWPOLYLINE
5
278
100
AcDbEntity
8
0
100
AcDbPolyline
90
10
70
1
43
0.0
10
-479.00000000000023
20
90.000000000000298
10
-479.00000000000023
20
2.7484589226515518e-14
10
-489.00000000000057
20
0
10
-489.00000000000057
20
483.99999999999989
10
-4.9999999999999725
20
483.99999999999989
10
-5
20
0
10
-354.0000000000004
20
3.5527136788005009e-14
10
-354.0000000000004
20
90.000000000000313
42
0.41421356237310231
10
-359.0000000000004
20
95.000000000000298
10
-474.00000000000023
20
95.000000000000298
42
0.41421356237310231
0
LWPOLYLINE
5
279
100
AcDbEntity
8
0
100
AcDbPolyline
90
6
70
1
43
0.0
10
-357.99999999998215
20
440.99999999997965
10
-357.99999999998249
20
429.0000000000025
10
-374.00000000012659
20
428.99999999999648
10
-377.99999999996857
20
432.99999999978934
10
-377.99999999997294
20
437.00000000031338
10
-373.99999999997596
20
440.99999999994503
0
LWPOLYLINE
5
280
100
AcDbEntity
8
0
100
AcDbPolyline
90
6
70
1
43
0.0
10
-377.99999999996919
20
417.00000000020668
10
-374.00000000012608
20
421.00000000000011
10
-357.99999999998141
20
420.9999999999971
10
-357.99999999997999
20
409.0000000000191
10
-373.99999999997385
20
409.00000000005156
10
-377.99999999997135
20
412.99999999968264
0
LWPOLYLINE
5
281
100
AcDbEntity
8
0
100
AcDbPolyline
90
6
70
1
43
0.0
10
-378.08499999996849
20
432.96479184698728
10
-378.08499999997304
20
437.03520815311731
10
-374.03520815277551
20
441.0849999999449
10
-357.91499999998217
20
441.0849999999798
10
-357.91499999998251
20
428.91500000000246
10
-374.03520815292808
20
428.91499999999655
0
LWPOLYLINE
5
282
100
AcDbEntity
8
0
100
AcDbPolyline
90
6
70
1
43
0.0
10
-378.08499999997133
20
412.9647918468786
10
-378.08499999996917
20
417.03520815300874
10
-374.03520815292757
20
421.08500000000004
10
-357.91499999998143
20
421.08499999999708
10
-357.91499999998001
20
408.91500000001895
10
-374.03520815277341
20
408.91500000005169
0
ENDSEC
0
SECTION
2
OBJECTS
0
DICTIONARY
5
C
100
AcDbDictionary
3
ACAD_GROUP
350
D
3
ACAD_MLINESTYLE
350
17
0
DICTIONARY
5
D
100
AcDbDictionary
0
DICTIONARY
5
1A
330
C
100
AcDbDictionary
0
DICTIONARY
5
17
100
AcDbDictionary
0
ENDSEC
0
EOF
