0
SECTION
2
HEADER
9
$INSUNITS
70
4
9
$ACADVER
1
AC1014
9
$HANDSEED
5
FFFF
0
ENDSEC
0
SECTION
2
TABLES
0
TABLE
2
VPORT
5
8
100
AcDbSymbolTable
0
ENDTAB
0
TABLE
2
LTYPE
5
5
100
AcDbSymbolTable
0
LTYPE
5
14
100
AcDbSymbolTableRecord
100
AcDbLinetypeTableRecord
2
BYBLOCK
70
0
0
LTYPE
5
15
100
AcDbSymbolTableRecord
100
AcDbLinetypeTableRecord
2
BYLAYER
70
0
0
ENDTAB
0
TABLE
2
LAYER
5
2
100
AcDbSymbolTable
70
2
0
LAYER
5
50
100
AcDbSymbolTableRecord
100
AcDbLayerTableRecord
2
0
70
0
6
CONTINUOUS
0
ENDTAB
0
TABLE
2
STYLE
5
3
100
AcDbSymbolTable
70
1
0
STYLE
5
11
100
AcDbSymbolTableRecord
100
AcDbTextStyleTableRecord
2
STANDARD
70
0
0
ENDTAB
0
TABLE
2
VIEW
5
6
100
AcDbSymbolTable
70
0
0
ENDTAB
0
TABLE
2
UCS
5
7
100
AcDbSymbolTable
70
0
0
ENDTAB
0
TABLE
2
APPID
5
9
100
AcDbSymbolTable
70
2
0
APPID
5
12
100
AcDbSymbolTableRecord
100
AcDbRegAppTableRecord
2
ACAD
70
0
0
ENDTAB
0
TABLE
2
DIMSTYLE
5
A
100
AcDbSymbolTable
70
1
0
ENDTAB
0
TABLE
2
BLOCK_RECORD
5
1
100
AcDbSymbolTable
70
1
0
BLOCK_RECORD
5
1F
100
AcDbSymbolTableRecord
100
AcDbBlockTableRecord
2
*MODEL_SPACE
0
BLOCK_RECORD
5
1B
100
AcDbSymbolTableRecord
100
AcDbBlockTableRecord
2
*PAPER_SPACE
0
ENDTAB
0
ENDSEC
0
SECTION
2
BLOCKS
0
BLOCK
5
20
100
AcDbEntity
100
AcDbBlockBegin
2
*MODEL_SPACE
0
ENDBLK
5
21
100
AcDbEntity
100
AcDbBlockEnd
0
BLOCK
5
1C
100
AcDbEntity
100
AcDbBlockBegin
2
*PAPER_SPACE
0
ENDBLK
5
1D
100
AcDbEntity
100
AcDbBlockEnd
0
ENDSEC
0
SECTION
2
ENTITIES
0
LWPOLYLINE
5
100
100
AcDbEntity
8
0
100
AcDbPolyline
90
19
70
1
43
0.0
10
-49.699747468306619
20
277.45648580077761
10
-41.750000000000597
20
285.40623326908354
10
-41.750000000000554
20
400.15811690796136
10
-62.660776738885097
20
421.06889364684594
42
-1.7122794893232676
10
-43.568893646848814
20
440.16077673888304
10
-16.800252531694579
20
413.39213562372885
42
-0.19891236737966239
10
-14.750000000000439
20
408.4423881554232
10
-14.750000000000696
20
277.12196202162136
42
-0.1989123673796625
10
-16.800252531694937
20
272.17221455331548
10
-24.750000000000757
20
264.22246708500984
10
-24.750000000000803
20
181.61943670467977
10
-16.800252531694973
20
173.6696892363739
42
-0.19891236737965834
10
-14.750000000000776
20
168.71994176806808
10
-14.750000000000831
20
44.705773105863429
42
-1.7122794893232485
10
-41.750000000000838
20
44.705773105863393
10
-41.75000000000081
20
160.43567052060624
10
-49.699747468306896
20
168.38541798891231
42
-0.19891236737964405
10
-51.750000000000817
20
173.33516545721793
10
-51.750000000000853
20
272.50673833247197
42
-0.19891236737965154
0
LWPOLYLINE
5
101
100
AcDbEntity
8
0
100
AcDbPolyline
90
16
70
1
43
0.0
10
-185
20
493.99999999999989
10
-84.999999999999943
20
493.99999999999989
10
-84.999999999999972
20
489.99999999999994
10
-5.9999999999994795
20
490
10
-5.999999999999436
20
440
10
5.8792029668133952e-13
20
440
10
6.3837823915946501e-13
20
50.000000000000028
10
-5.9999999999993854
20
50
10
-5.9999999999994102
20
0
10
-44.999999999998934
20
0
10
-44.999999999998934
20
-2.1999999999995885
10
-254.99999999999903
20
-2.1999999999995885
10
-254.99999999999903
20
0
10
-269.9999999999979
20
1.4210854715202004e-13
10
-269.99999999999778
20
489.99999999999977
10
-185
20
489.99999999999989
0
LWPOLYLINE
5
102
100
AcDbEntity
8
0
100
AcDbPolyline
90
40
70
1
43
0.0
10
-70.360254037831325
20
38.103629710818481
10
-70.360254037831382
20
50.990381056766424
10
-81.52050807567565
20
57.433756729740367
10
-81.520508075675707
20
70.320508075688792
10
-95.180762113520103
20
78.207259421636905
10
-106.3410161513645
20
71.763883748662806
10
-115.00127018920887
20
76.763883748662835
10
-115.00127018920894
20
89.65063509461082
10
-128.66152422705318
20
97.537386440558777
10
-139.8217782648974
20
91.094010767584791
10
-150.98203230274197
20
97.537386440558777
10
-162.14228634058617
20
91.094010767584791
10
-173.30254037843073
20
97.537386440558777
10
-184.46279441627493
20
91.094010767584791
10
-195.6230484541195
20
97.537386440558777
10
-206.7833024919637
20
91.094010767584791
10
-217.94355652980829
20
97.537386440558777
10
-231.60381056765246
20
89.65063509461072
10
-231.60381056765246
20
76.763883748662764
10
-242.76406460549711
20
70.320508075688736
10
-242.76406460549708
20
54.54700538379246
10
-231.60381056765266
20
48.103629710818431
10
-231.60381056765246
20
35.21687836487024
10
-220.44355652980815
20
28.773502691896304
10
-220.44355652980835
20
15.886751345948083
10
-206.78330249196392
20
7.9999999999999858
10
-195.62304845411956
20
14.443375672974078
10
-184.46279441627513
20
7.9999999999999858
10
-173.30254037843076
20
14.443375672974078
10
-162.14228634058634
20
7.9999999999999849
10
-150.98203230274197
20
14.443375672974078
10
-139.8217782648976
20
7.9999999999999858
10
-128.66152422705323
20
14.443375672974078
10
-117.50127018920881
20
7.9999999999999858
10
-106.34101615136444
20
14.443375672974078
10
-95.180762113520046
20
7.9999999999999858
10
-84.02050807567565
20
14.443375672974078
10
-72.860254037831282
20
8.0000000000000036
10
-59.199999999986908
20
15.886751345948159
10
-59.199999999986943
20
31.660254037844414
0
LWPOLYLINE
5
103
100
AcDbEntity
8
0
100
AcDbPolyline
90
6
70
1
43
0.0
10
-162.14228634058634
20
13.773502691896242
10
-153.482032302742
20
18.773502691896265
10
-153.48203230274203
20
28.773502691896272
10
-162.14228634058642
20
33.773502691896262
10
-170.80254037843079
20
28.773502691896233
10
-170.80254037843076
20
18.773502691896226
0
LWPOLYLINE
5
104
100
AcDbEntity
8
0
100
AcDbPolyline
90
6
70
1
43
0.0
10
-184.46279441627513
20
13.773502691896242
10
-175.80254037843076
20
18.773502691896265
10
-175.80254037843076
20
28.773502691896272
10
-184.46279441627519
20
33.773502691896262
10
-193.12304845411958
20
28.773502691896233
10
-193.12304845411956
20
18.773502691896226
0
LWPOLYLINE
5
105
100
AcDbEntity
8
0
100
AcDbPolyline
90
6
70
1
43
0.0
10
-128.66152422705309
20
33.103629710818517
10
-120.00127018920887
20
38.103629710818453
10
-120.00127018920892
20
48.103629710818282
10
-128.66152422705318
20
53.103629710818161
10
-137.3217782648974
20
48.103629710818218
10
-137.32177826489738
20
38.103629710818382
0
LWPOLYLINE
5
106
100
AcDbEntity
8
0
100
AcDbPolyline
90
6
70
1
43
0.0
10
-106.34101615136433
20
33.103629710818517
10
-97.680762113520103
20
38.103629710818453
10
-97.68076211352016
20
48.103629710818282
10
-106.34101615136441
20
53.103629710818161
10
-115.00127018920863
20
48.103629710818218
10
-115.00127018920858
20
38.103629710818382
0
LWPOLYLINE
5
107
100
AcDbEntity
8
0
100
AcDbPolyline
90
6
70
1
43
0.0
10
-139.82177826489763
20
13.773502691896242
10
-131.16152422705323
20
18.773502691896265
10
-131.16152422705323
20
28.773502691896272
10
-139.82177826489766
20
33.773502691896262
10
-148.48203230274206
20
28.773502691896233
10
-148.48203230274203
20
18.773502691896226
0
LWPOLYLINE
5
108
100
AcDbEntity
8
0
100
AcDbPolyline
90
6
70
1
43
0.0
10
-92.680762113519847
20
48.103629710818218
10
-92.680762113519819
20
38.103629710818382
10
-84.020508075675551
20
33.103629710818517
10
-75.360254037831325
20
38.103629710818453
10
-75.360254037831368
20
48.103629710818282
10
-84.020508075675636
20
53.103629710818161
0
LWPOLYLINE
5
109
100
AcDbEntity
8
0
100
AcDbPolyline
90
6
70
1
43
0.0
10
-95.180762113520075
20
52.433756729740622
10
-86.520508075675693
20
57.433756729740651
10
-86.520508075675707
20
67.433756729740651
10
-95.180762113520103
20
72.433756729740651
10
-103.8410161513645
20
67.433756729740622
10
-103.84101615136447
20
57.433756729740608
0
LWPOLYLINE
5
110
100
AcDbEntity
8
0
100
AcDbPolyline
90
6
70
1
43
0.0
10
-117.50127018920884
20
52.433756729740622
10
-108.84101615136446
20
57.433756729740651
10
-108.84101615136447
20
67.433756729740651
10
-117.50127018920887
20
72.433756729740651
10
-126.16152422705328
20
67.433756729740622
10
-126.16152422705325
20
57.433756729740608
0
LWPOLYLINE
5
111
100
AcDbEntity
8
0
100
AcDbPolyline
90
6
70
1
43
0.0
10
-139.82177826489763
20
52.433756729740622
10
-131.16152422705323
20
57.433756729740651
10
-131.16152422705323
20
67.433756729740651
10
-139.82177826489766
20
72.433756729740651
10
-148.48203230274206
20
67.433756729740622
10
-148.48203230274203
20
57.433756729740608
0
LWPOLYLINE
5
112
100
AcDbEntity
8
0
100
AcDbPolyline
90
6
70
1
43
0.0
10
-117.50127018920884
20
13.773502691896242
10
-108.84101615136446
20
18.773502691896265
10
-108.84101615136447
20
28.773502691896272
10
-117.50127018920887
20
33.773502691896262
10
-126.16152422705328
20
28.773502691896233
10
-126.16152422705325
20
18.773502691896226
0
LWPOLYLINE
5
113
100
AcDbEntity
8
0
100
AcDbPolyline
90
6
70
1
43
0.0
10
-150.98203230274189
20
71.763883748662892
10
-142.32177826489766
20
76.763883748662835
10
-142.32177826489769
20
86.763883748662664
10
-150.98203230274197
20
91.763883748662522
10
-159.64228634058617
20
86.763883748662607
10
-159.64228634058614
20
76.763883748662764
0
LWPOLYLINE
5
114
100
AcDbEntity
8
0
100
AcDbPolyline
90
6
70
1
43
0.0
10
-173.30254037843062
20
71.763883748662892
10
-164.64228634058642
20
76.763883748662835
10
-164.64228634058645
20
86.763883748662664
10
-173.30254037843071
20
91.763883748662522
10
-181.96279441627493
20
86.763883748662607
10
-181.9627944162749
20
76.763883748662764
0
LWPOLYLINE
5
115
100
AcDbEntity
8
0
100
AcDbPolyline
90
6
70
1
43
0.0
10
-195.62304845411941
20
71.763883748662892
10
-186.96279441627519
20
76.763883748662835
10
-186.96279441627522
20
86.763883748662664
10
-195.62304845411947
20
91.763883748662522
10
-204.2833024919637
20
86.763883748662607
10
-204.28330249196364
20
76.763883748662764
0
LWPOLYLINE
5
116
100
AcDbEntity
8
0
100
AcDbPolyline
90
6
70
1
43
0.0
10
-217.94355652980818
20
71.763883748662892
10
-209.28330249196395
20
76.763883748662835
10
-209.28330249196398
20
86.763883748662664
10
-217.94355652980826
20
91.763883748662522
10
-226.60381056765246
20
86.763883748662607
10
-226.60381056765246
20
76.763883748662764
0
LWPOLYLINE
5
117
100
AcDbEntity
8
0
100
AcDbPolyline
90
6
70
1
43
0.0
10
-128.66152422705309
20
71.763883748662892
10
-120.00127018920887
20
76.763883748662835
10
-120.00127018920892
20
86.763883748662664
10
-128.66152422705318
20
91.763883748662522
10
-137.3217782648974
20
86.763883748662607
10
-137.32177826489738
20
76.763883748662764
0
LWPOLYLINE
5
118
100
AcDbEntity
8
0
100
AcDbPolyline
90
6
70
1
43
0.0
10
-95.180762113520075
20
13.773502691896242
10
-86.520508075675693
20
18.773502691896265
10
-86.520508075675707
20
28.773502691896272
10
-95.180762113520103
20
33.773502691896262
10
-103.8410161513645
20
28.773502691896233
10
-103.84101615136447
20
18.773502691896226
0
LWPOLYLINE
5
119
100
AcDbEntity
8
0
100
AcDbPolyline
90
6
70
1
43
0.0
10
-229.10381056765266
20
52.433756729740622
10
-220.44355652980829
20
57.433756729740651
10
-220.44355652980835
20
67.433756729740651
10
-229.10381056765274
20
72.433756729740651
10
-237.76406460549711
20
67.433756729740622
10
-237.76406460549708
20
57.433756729740608
0
LWPOLYLINE
5
120
100
AcDbEntity
8
0
100
AcDbPolyline
90
6
70
1
43
0.0
10
-81.520508075675707
20
28.773502691896237
10
-81.520508075675693
20
18.77350269189624
10
-72.860254037831297
20
13.77350269189626
10
-64.199999999986915
20
18.773502691896276
10
-64.199999999986929
20
28.773502691896276
10
-72.860254037831339
20
33.773502691896262
0
LWPOLYLINE
5
121
100
AcDbEntity
8
0
100
AcDbPolyline
90
24
70
1
43
0.0
10
-153.482032302742
20
57.433756729740651
10
-153.48203230274203
20
67.433756729740651
10
-162.14228634058642
20
72.433756729740651
10
-170.80254037843079
20
67.433756729740622
10
-175.80254037843076
20
67.433756729740651
10
-184.46279441627519
20
72.433756729740651
10
-193.12304845411958
20
67.433756729740622
10
-198.12304845411956
20
67.433756729740651
10
-206.78330249196395
20
72.433756729740651
10
-215.44355652980835
20
67.433756729740622
10
-215.44355652980835
20
57.433756729740608
10
-206.78330249196392
20
52.433756729740622
10
-204.2833024919637
20
48.103629710818218
10
-204.28330249196364
20
38.103629710818382
10
-195.62304845411941
20
33.103629710818517
10
-186.96279441627519
20
38.103629710818453
10
-181.9627944162749
20
38.103629710818382
10
-173.30254037843062
20
33.103629710818517
10
-164.64228634058642
20
38.103629710818453
10
-159.64228634058614
20
38.103629710818382
10
-150.98203230274189
20
33.103629710818517
10
-142.32177826489766
20
38.103629710818453
10
-142.32177826489769
20
48.103629710818282
10
-150.98203230274197
20
53.103629710818161
0
LWPOLYLINE
5
122
100
AcDbEntity
8
0
100
AcDbPolyline
90
6
70
1
43
0.0
10
-206.78330249196392
20
13.773502691896242
10
-198.12304845411956
20
18.773502691896265
10
-198.12304845411956
20
28.773502691896272
10
-206.78330249196395
20
33.773502691896262
10
-215.44355652980835
20
28.773502691896233
10
-215.44355652980835
20
18.773502691896226
0
LWPOLYLINE
5
123
100
AcDbEntity
8
0
100
AcDbPolyline
90
6
70
1
43
0.0
10
-217.94355652980818
20
33.103629710818517
10
-209.28330249196395
20
38.103629710818453
10
-209.28330249196398
20
48.103629710818282
10
-217.94355652980826
20
53.103629710818161
10
-226.60381056765246
20
48.103629710818218
10
-226.60381056765246
20
38.103629710818382
0
LWPOLYLINE
5
124
100
AcDbEntity
8
0
100
AcDbPolyline
90
40
70
1
43
0.0
10
-70.360254037831325
20
38.103629710818481
10
-59.19999999998695
20
31.660254037844414
10
-59.199999999986915
20
15.886751345948159
10
-72.860254037831297
20
8.0000000000000036
10
-84.020508075675679
20
14.443375672974078
10
-95.180762113520046
20
7.9999999999999858
10
-106.34101615136444
20
14.443375672974078
10
-117.50127018920881
20
7.9999999999999858
10
-128.66152422705323
20
14.443375672974078
10
-139.8217782648976
20
7.9999999999999858
10
-150.98203230274197
20
14.443375672974078
10
-162.14228634058634
20
7.9999999999999849
10
-173.30254037843076
20
14.443375672974078
10
-184.46279441627513
20
7.9999999999999858
10
-195.62304845411956
20
14.443375672974078
10
-206.78330249196392
20
7.9999999999999858
10
-220.44355652980835
20
15.886751345948083
10
-220.44355652980815
20
28.773502691896304
10
-231.60381056765246
20
35.21687836487024
10
-231.60381056765266
20
48.103629710818431
10
-242.76406460549708
20
54.54700538379246
10
-242.76406460549711
20
70.320508075688736
10
-231.60381056765246
20
76.763883748662764
10
-231.60381056765246
20
89.65063509461072
10
-217.94355652980829
20
97.537386440558748
10
-206.7833024919637
20
91.094010767584791
10
-195.6230484541195
20
97.537386440558748
10
-184.46279441627493
20
91.094010767584791
10
-173.30254037843073
20
97.537386440558748
10
-162.14228634058622
20
91.094010767584791
10
-150.982032302742
20
97.537386440558748
10
-139.8217782648974
20
91.094010767584791
10
-128.66152422705318
20
97.537386440558748
10
-115.00127018920894
20
89.65063509461082
10
-115.00127018920887
20
76.763883748662835
10
-106.3410161513645
20
71.763883748662806
10
-95.180762113520103
20
78.207259421636905
10
-81.520508075675707
20
70.320508075688792
10
-81.52050807567565
20
57.433756729740367
10
-70.360254037831382
20
50.990381056766424
0
LWPOLYLINE
5
125
100
AcDbEntity
8
0
100
AcDbPolyline
90
22
70
1
43
0.0
10
-182.48266852640185
20
63.56869322027763
10
-180.6826673973336
20
61.768692091209417
10
-180.68266739732263
20
43.76869322027779
10
-182.48266852639088
20
41.968693220277785
10
-187.88367544604063
20
41.968693220277785
10
-189.68367657510882
20
43.768694349346006
10
-191.48367770417713
20
41.9686932202778
10
-196.882666268267
20
41.968693220277792
10
-198.68266739733519
20
43.768694349346006
10
-198.68266739733517
20
61.766677123325934
10
-196.884683494287
20
63.56869322027763
10
-195.08266739733511
20
63.56869322027763
10
-195.08266739733514
20
49.166677123326096
10
-193.28065130038343
20
47.368693220277791
10
-191.48266739733515
20
49.170709317229502
10
-191.48266739733515
20
61.765667946098063
10
-189.68367657519536
20
63.56869322027763
10
-187.88266739733513
20
61.767684042417429
10
-187.88266739733515
20
49.166677123326046
10
-186.08065130038341
20
47.368693220277784
10
-184.28266739733522
20
49.170709317229502
10
-184.28266739733516
20
63.56869322027763
0
LWPOLYLINE
5
126
100
AcDbEntity
8
0
100
AcDbPolyline
90
9
70
1
43
0.0
10
-160.88266739733515
20
63.56869322027778
10
-160.88266739733515
20
41.968693220277785
10
-175.28266739733516
20
41.968693220277785
10
-177.08266739733432
20
43.768693220276973
10
-177.08266739733688
20
50.96869322027834
10
-175.28266739733735
20
52.76869322027779
10
-177.08266739733813
20
54.568693220278341
10
-177.08266739734063
20
61.768693230148486
10
-175.28266740721153
20
63.568693220277702
0
LWPOLYLINE
5
127
100
AcDbEntity
8
0
100
AcDbPolyline
90
6
70
1
43
0.0
10
-164.48266739568908
20
50.968693220277856
10
-171.68266739545541
20
50.968693220277778
10
-173.48266739404795
20
49.16869322043059
10
-173.48266739240191
20
47.368693220516562
10
-171.68266739090876
20
45.568693220277893
10
-164.48266739075083
20
45.5686932202779
0
LWPOLYLINE
5
128
100
AcDbEntity
8
0
100
AcDbPolyline
90
6
70
1
43
0.0
10
-164.48266739733512
20
54.568693220277716
10
-164.48266739733504
20
59.968693220277665
10
-171.68266739749293
20
59.968693220277672
10
-173.48266739734004
20
58.168693220039025
10
-173.48266739734004
20
56.368693220124982
10
-171.68266739710145
20
54.568693220277794
0
LINE
5
129
100
AcDbEntity
8
0
100
AcDbLine
10
-185.08500000000001
20
493.99999999999989
30
0
11
-185.08500000000001
21
489.99999999999989
31
0
0
LINE
5
130
100
AcDbEntity
8
0
100
AcDbLine
10
-84.914999999999964
20
489.99999999999994
30
0
11
-84.914999999999949
21
493.99999999999989
31
0
0
LINE
5
131
100
AcDbEntity
8
0
100
AcDbLine
10
-255.08499999999907
20
0
30
0
11
-255.08499999999907
21
-2.1999999999995885
31
0
0
LINE
5
132
100
AcDbEntity
8
0
100
AcDbLine
10
-44.91499999999894
20
-2.1999999999995885
30
0
11
-44.91499999999894
21
0
31
0
0
LINE
5
133
100
AcDbEntity
8
0
100
AcDbLine
10
-44.999999999998934
20
-2.1999999999995885
30
0
11
-44.91499999999894
21
-2.1999999999995885
31
0
0
LINE
5
134
100
AcDbEntity
8
0
100
AcDbLine
10
-255.08499999999907
20
-2.1999999999995885
30
0
11
-254.99999999999903
21
-2.1999999999995885
31
0
0
LINE
5
135
100
AcDbEntity
8
0
100
AcDbLine
10
-185.08500000000001
20
493.99999999999989
30
0
11
-185
21
493.99999999999989
31
0
0
LINE
5
136
100
AcDbEntity
8
0
100
AcDbLine
10
-84.999999999999943
20
493.99999999999989
30
0
11
-84.914999999999949
21
493.99999999999989
31
0
0
ENDSEC
0
SECTION
2
OBJECTS
0
DICTIONARY
5
C
100
AcDbDictionary
3
ACAD_GROUP
350
D
3
ACAD_MLINESTYLE
350
17
0
DICTIONARY
5
D
100
AcDbDictionary
0
DICTIONARY
5
1A
330
C
100
AcDbDictionary
0
DICTIONARY
5
17
100
AcDbDictionary
0
ENDSEC
0
EOF
