0
SECTION
2
HEADER
9
$INSUNITS
70
4
9
$ACADVER
1
AC1014
9
$HANDSEED
5
FFFF
0
ENDSEC
0
SECTION
2
TABLES
0
TABLE
2
VPORT
5
8
100
AcDbSymbolTable
0
ENDTAB
0
TABLE
2
LTYPE
5
5
100
AcDbSymbolTable
0
LTYPE
5
14
100
AcDbSymbolTableRecord
100
AcDbLinetypeTableRecord
2
BYBLOCK
70
0
0
LTYPE
5
15
100
AcDbSymbolTableRecord
100
AcDbLinetypeTableRecord
2
BYLAYER
70
0
0
ENDTAB
0
TABLE
2
LAYER
5
2
100
AcDbSymbolTable
70
2
0
LAYER
5
50
100
AcDbSymbolTableRecord
100
AcDbLayerTableRecord
2
0
70
0
6
CONTINUOUS
0
ENDTAB
0
TABLE
2
STYLE
5
3
100
AcDbSymbolTable
70
1
0
STYLE
5
11
100
AcDbSymbolTableRecord
100
AcDbTextStyleTableRecord
2
STANDARD
70
0
0
ENDTAB
0
TABLE
2
VIEW
5
6
100
AcDbSymbolTable
70
0
0
ENDTAB
0
TABLE
2
UCS
5
7
100
AcDbSymbolTable
70
0
0
ENDTAB
0
TABLE
2
APPID
5
9
100
AcDbSymbolTable
70
2
0
APPID
5
12
100
AcDbSymbolTableRecord
100
AcDbRegAppTableRecord
2
ACAD
70
0
0
ENDTAB
0
TABLE
2
DIMSTYLE
5
A
100
AcDbSymbolTable
70
1
0
ENDTAB
0
TABLE
2
BLOCK_RECORD
5
1
100
AcDbSymbolTable
70
1
0
BLOCK_RECORD
5
1F
100
AcDbSymbolTableRecord
100
AcDbBlockTableRecord
2
*MODEL_SPACE
0
BLOCK_RECORD
5
1B
100
AcDbSymbolTableRecord
100
AcDbBlockTableRecord
2
*PAPER_SPACE
0
ENDTAB
0
ENDSEC
0
SECTION
2
BLOCKS
0
BLOCK
5
20
100
AcDbEntity
100
AcDbBlockBegin
2
*MODEL_SPACE
0
ENDBLK
5
21
100
AcDbEntity
100
AcDbBlockEnd
0
BLOCK
5
1C
100
AcDbEntity
100
AcDbBlockBegin
2
*PAPER_SPACE
0
ENDBLK
5
1D
100
AcDbEntity
100
AcDbBlockEnd
0
ENDSEC
0
SECTION
2
ENTITIES
0
LWPOLYLINE
5
100
100
AcDbEntity
8
0
100
AcDbPolyline
90
28
70
1
43
0.0
10
59.444401915359741
20
426.33780019755903
42
-0.15816334771930529
10
59.994222154018516
20
426.61824642433703
42
1.9605192944669358
10
49.118246424339738
20
437.49422215401586
42
-0.15816334771937562
10
48.837800197561933
20
436.94440191535756
10
21.042893218813795
20
409.14949493660947
42
0.19891236737966453
10
20.750000000000437
20
408.4423881554232
10
20.750000000000703
20
277.12196202162136
42
0.19891236737966866
10
21.042893218814172
20
276.4148552404348
10
30.45710678118731
20
267.00064167806192
42
-0.19891236737965062
10
30.750000000000753
20
266.29353489687537
10
30.750000000000814
20
179.54836889281432
42
-0.19891236737963977
10
30.45710678118736
20
178.84126211162777
10
21.042893218814228
20
169.42704854925461
42
0.1989123673796504
10
20.750000000000774
20
168.71994176806808
10
20.750000000000831
20
43.254414002968502
42
-0.15816334771944082
10
20.559523809524638
20
42.667326955066699
42
1.9605192944669358
10
35.940476190477028
20
42.667326955066684
42
-0.15816334771943663
10
35.750000000000838
20
43.254414002968495
10
35.750000000000803
20
162.50673833247168
42
-0.19891236737963977
10
36.042893218814257
20
163.21384511365824
10
45.457106781187385
20
172.62805867603137
42
0.19891236737964335
10
45.750000000000817
20
173.33516545721793
10
45.750000000000838
20
272.50673833247174
42
0.19891236737966017
10
45.457106781187349
20
273.21384511365829
10
36.042893218814037
20
282.62805867603151
42
-0.19891236737965073
10
35.75000000000059
20
283.33516545721807
10
35.750000000000554
20
402.22918471982695
42
-0.19891236737967025
10
36.042893218813951
20
402.93629150101333
0
LWPOLYLINE
5
101
100
AcDbEntity
8
0
100
AcDbPolyline
90
19
70
1
43
0.0
10
49.699747468306612
20
277.45648580077761
42
-0.19891236737965176
10
51.750000000000838
20
272.50673833247197
10
51.750000000000824
20
173.33516545721793
42
-0.19891236737964405
10
49.699747468306903
20
168.38541798891231
10
41.75000000000081
20
160.43567052060624
10
41.750000000000853
20
44.705773105863415
42
-1.7122794893232494
10
14.750000000000815
20
44.705773105863429
10
14.750000000000771
20
168.71994176806808
42
-0.19891236737965823
10
16.800252531694966
20
173.6696892363739
10
24.750000000000803
20
181.61943670467977
10
24.75000000000076
20
264.22246708500984
10
16.800252531694934
20
272.17221455331548
42
-0.19891236737966192
10
14.750000000000703
20
277.12196202162136
10
14.750000000000439
20
408.4423881554232
42
-0.19891236737966239
10
16.800252531694575
20
413.39213562372885
10
43.568893646848778
20
440.16077673888304
42
-1.7122794893232676
10
62.660776738885112
20
421.06889364684594
10
41.750000000000554
20
400.15811690796136
10
41.750000000000597
20
285.40623326908354
0
ENDSEC
0
SECTION
2
OBJECTS
0
DICTIONARY
5
C
100
AcDbDictionary
3
ACAD_GROUP
350
D
3
ACAD_MLINESTYLE
350
17
0
DICTIONARY
5
D
100
AcDbDictionary
0
DICTIONARY
5
1A
330
C
100
AcDbDictionary
0
DICTIONARY
5
17
100
AcDbDictionary
0
ENDSEC
0
EOF
