0
SECTION
2
HEADER
9
$INSUNITS
70
4
9
$ACADVER
1
AC1014
9
$HANDSEED
5
FFFF
0
ENDSEC
0
SECTION
2
TABLES
0
TABLE
2
VPORT
5
8
100
AcDbSymbolTable
0
ENDTAB
0
TABLE
2
LTYPE
5
5
100
AcDbSymbolTable
0
LTYPE
5
14
100
AcDbSymbolTableRecord
100
AcDbLinetypeTableRecord
2
BYBLOCK
70
0
0
LTYPE
5
15
100
AcDbSymbolTableRecord
100
AcDbLinetypeTableRecord
2
BYLAYER
70
0
0
ENDTAB
0
TABLE
2
LAYER
5
2
100
AcDbSymbolTable
70
2
0
LAYER
5
50
100
AcDbSymbolTableRecord
100
AcDbLayerTableRecord
2
0
70
0
6
CONTINUOUS
0
ENDTAB
0
TABLE
2
STYLE
5
3
100
AcDbSymbolTable
70
1
0
STYLE
5
11
100
AcDbSymbolTableRecord
100
AcDbTextStyleTableRecord
2
STANDARD
70
0
0
ENDTAB
0
TABLE
2
VIEW
5
6
100
AcDbSymbolTable
70
0
0
ENDTAB
0
TABLE
2
UCS
5
7
100
AcDbSymbolTable
70
0
0
ENDTAB
0
TABLE
2
APPID
5
9
100
AcDbSymbolTable
70
2
0
APPID
5
12
100
AcDbSymbolTableRecord
100
AcDbRegAppTableRecord
2
ACAD
70
0
0
ENDTAB
0
TABLE
2
DIMSTYLE
5
A
100
AcDbSymbolTable
70
1
0
ENDTAB
0
TABLE
2
BLOCK_RECORD
5
1
100
AcDbSymbolTable
70
1
0
BLOCK_RECORD
5
1F
100
AcDbSymbolTableRecord
100
AcDbBlockTableRecord
2
*MODEL_SPACE
0
BLOCK_RECORD
5
1B
100
AcDbSymbolTableRecord
100
AcDbBlockTableRecord
2
*PAPER_SPACE
0
ENDTAB
0
ENDSEC
0
SECTION
2
BLOCKS
0
BLOCK
5
20
100
AcDbEntity
100
AcDbBlockBegin
2
*MODEL_SPACE
0
ENDBLK
5
21
100
AcDbEntity
100
AcDbBlockEnd
0
BLOCK
5
1C
100
AcDbEntity
100
AcDbBlockBegin
2
*PAPER_SPACE
0
ENDBLK
5
1D
100
AcDbEntity
100
AcDbBlockEnd
0
ENDSEC
0
SECTION
2
ENTITIES
0
LWPOLYLINE
5
100
100
AcDbEntity
8
0
100
AcDbPolyline
90
4
70
1
43
0.0
10
-238.91221403136484
20
385.868117074493
10
-240.01476787470421
20
383.95843776752344
42
3.7320506699900879
10
-239.29634278621262
20
383.60649263884346
10
-238.46319834113098
20
385.64815137279436
0
LWPOLYLINE
5
101
100
AcDbEntity
8
0
100
AcDbPolyline
90
10
70
1
43
0.0
10
-240.30000000004355
20
416.89999999999083
10
-240.90000000003681
20
416.89999999999361
42
0.99999999999999989
10
-240.90000000001015
20
415.59999999995455
10
-240.90000000002681
20
414.99999999998244
42
0.99999999999999989
10
-238.1000000000268
20
414.99999999997021
10
-238.1000000000268
20
415.59999999997922
42
0.99999999999999989
10
-238.10000000012371
20
416.89999999997917
10
-238.70000000008051
20
416.89999999998378
10
-238.70000000005291
20
414.99999999997283
42
-0.99999999999999989
10
-240.30000000000072
20
414.99999999997982
0
LWPOLYLINE
5
102
100
AcDbEntity
8
0
100
AcDbPolyline
90
8
70
1
43
0.0
10
-232.25000000004877
20
348.49999999997647
42
-0.41421356237321988
10
-231.75000000004874
20
347.99999999997647
10
-231.75000000004869
20
340.99999999997647
42
-0.41421356237307422
10
-232.25000000004877
20
340.49999999997652
10
-246.75000000004877
20
340.49999999997652
42
-0.41421356237328233
10
-247.25000000004877
20
340.99999999997641
10
-247.2500000000488
20
347.99999999997635
42
-0.41421356237328233
10
-246.75000000004877
20
348.49999999997641
0
LWPOLYLINE
5
103
100
AcDbEntity
8
0
100
AcDbPolyline
90
8
70
1
43
0.0
10
-232.25000000004877
20
334.49999999997647
42
-0.41421356237303258
10
-231.75000000004874
20
333.99999999997647
10
-231.75000000004874
20
326.99999999997658
42
-0.41421356237328233
10
-232.25000000004877
20
326.49999999997652
10
-246.75000000004877
20
326.49999999997647
42
-0.41421356237307422
10
-247.25000000004883
20
326.99999999997647
10
-247.25000000004886
20
333.99999999997647
42
-0.41421356237307422
10
-246.75000000004877
20
334.49999999997647
0
CIRCLE
5
104
100
AcDbEntity
8
0
100
AcDbCircle
10
-239.50000000005087
20
457.99999999997544
30
0
40
8.0000000000000071
210
0
220
0
230
1
0
CIRCLE
5
105
100
AcDbEntity
8
0
100
AcDbCircle
10
-239.5000000000488
20
371.60000042332274
30
0
40
2.5
210
0
220
-0
230
1
0
CIRCLE
5
106
100
AcDbEntity
8
0
100
AcDbCircle
10
-239.5000000000488
20
431.6000004233228
30
0
40
1.5000000000000213
210
0
220
-0
230
1
0
LWPOLYLINE
5
107
100
AcDbEntity
8
0
100
AcDbPolyline
90
8
70
1
43
0.0
10
-224.50000000004877
20
322.99999999997647
42
-0.41421356237310897
10
-227.50000000004877
20
319.99999999997647
10
-251.50000000004877
20
319.99999999997647
42
-0.41421356237310897
10
-254.50000000004877
20
322.99999999997647
10
-254.5000000000488
20
469.99999999997658
42
-0.41421356237308815
10
-251.50000000004877
20
472.99999999997652
10
-227.50000000004877
20
472.99999999997652
42
-0.41421356237308815
10
-224.50000000004874
20
469.99999999997658
0
CIRCLE
5
108
100
AcDbEntity
8
0
100
AcDbCircle
10
-239.5000000000488
20
391.59999999997632
30
0
40
3.4000000000000341
210
0
220
-0
230
1
0
CIRCLE
5
109
100
AcDbEntity
8
0
100
AcDbCircle
10
-239.5000000000488
20
407.9999999999763
30
0
40
3.4000000000000341
210
0
220
-0
230
1
0
LWPOLYLINE
5
110
100
AcDbEntity
8
0
100
AcDbPolyline
90
7
70
1
43
0.0
10
-239.36560542850088
20
370.46349108247477
10
-240.10876142905755
20
369.72033508191799
10
-240.10876142905755
20
370.12033508191797
42
-5.0589035287935422
10
-238.89123857104008
20
370.12033508191797
10
-238.89123857104005
20
370.80664708303141
42
2.9459050045457946
10
-240.10876142905755
20
370.80664708303146
10
-240.10876142905755
20
371.20664708303144
0
LWPOLYLINE
5
111
100
AcDbEntity
8
0
100
AcDbPolyline
90
8
70
1
43
0.0
10
-251.50000000004877
20
473.0849999999765
10
-227.50000000004877
20
473.0849999999765
42
-0.41421356237308832
10
-224.41500000004874
20
469.99999999997658
10
-224.41500000004876
20
322.99999999997647
42
-0.41421356237310858
10
-227.50000000004877
20
319.91499999997643
10
-251.50000000004877
20
319.91499999997643
42
-0.41421356237310858
10
-254.58500000004878
20
322.99999999997647
10
-254.58500000004878
20
469.99999999997658
42
-0.41421356237308832
0
CIRCLE
5
112
100
AcDbEntity
8
0
100
AcDbCircle
10
-239.5000000000488
20
431.6000004233228
30
0
40
1.4150000000000214
210
0
220
-0
230
1
0
ENDSEC
0
SECTION
2
OBJECTS
0
DICTIONARY
5
C
100
AcDbDictionary
3
ACAD_GROUP
350
D
3
ACAD_MLINESTYLE
350
17
0
DICTIONARY
5
D
100
AcDbDictionary
0
DICTIONARY
5
1A
330
C
100
AcDbDictionary
0
DICTIONARY
5
17
100
AcDbDictionary
0
ENDSEC
0
EOF
