0
SECTION
2
HEADER
9
$INSUNITS
70
4
9
$ACADVER
1
AC1014
9
$HANDSEED
5
FFFF
0
ENDSEC
0
SECTION
2
TABLES
0
TABLE
2
VPORT
5
8
100
AcDbSymbolTable
0
ENDTAB
0
TABLE
2
LTYPE
5
5
100
AcDbSymbolTable
0
LTYPE
5
14
100
AcDbSymbolTableRecord
100
AcDbLinetypeTableRecord
2
BYBLOCK
70
0
0
LTYPE
5
15
100
AcDbSymbolTableRecord
100
AcDbLinetypeTableRecord
2
BYLAYER
70
0
0
ENDTAB
0
TABLE
2
LAYER
5
2
100
AcDbSymbolTable
70
2
0
LAYER
5
50
100
AcDbSymbolTableRecord
100
AcDbLayerTableRecord
2
0
70
0
6
CONTINUOUS
0
ENDTAB
0
TABLE
2
STYLE
5
3
100
AcDbSymbolTable
70
1
0
STYLE
5
11
100
AcDbSymbolTableRecord
100
AcDbTextStyleTableRecord
2
STANDARD
70
0
0
ENDTAB
0
TABLE
2
VIEW
5
6
100
AcDbSymbolTable
70
0
0
ENDTAB
0
TABLE
2
UCS
5
7
100
AcDbSymbolTable
70
0
0
ENDTAB
0
TABLE
2
APPID
5
9
100
AcDbSymbolTable
70
2
0
APPID
5
12
100
AcDbSymbolTableRecord
100
AcDbRegAppTableRecord
2
ACAD
70
0
0
ENDTAB
0
TABLE
2
DIMSTYLE
5
A
100
AcDbSymbolTable
70
1
0
ENDTAB
0
TABLE
2
BLOCK_RECORD
5
1
100
AcDbSymbolTable
70
1
0
BLOCK_RECORD
5
1F
100
AcDbSymbolTableRecord
100
AcDbBlockTableRecord
2
*MODEL_SPACE
0
BLOCK_RECORD
5
1B
100
AcDbSymbolTableRecord
100
AcDbBlockTableRecord
2
*PAPER_SPACE
0
ENDTAB
0
ENDSEC
0
SECTION
2
BLOCKS
0
BLOCK
5
20
100
AcDbEntity
100
AcDbBlockBegin
2
*MODEL_SPACE
0
ENDBLK
5
21
100
AcDbEntity
100
AcDbBlockEnd
0
BLOCK
5
1C
100
AcDbEntity
100
AcDbBlockBegin
2
*PAPER_SPACE
0
ENDBLK
5
1D
100
AcDbEntity
100
AcDbBlockEnd
0
ENDSEC
0
SECTION
2
ENTITIES
0
LWPOLYLINE
5
100
100
AcDbEntity
8
0
100
AcDbPolyline
90
16
70
1
43
0.0
10
-74.480762113533174
20
99.169872981075287
10
-63.320508075688778
20
92.726497308101244
10
-52.160254037844389
20
99.169872981075287
10
-41.000000000000014
20
92.726497308101244
10
-27.339745962155611
20
100.61324865404934
10
-27.339745962155611
20
116.38675134594565
10
-38.500000000000014
20
122.83012701891974
10
-38.5
20
135.71687836486782
10
-52.160254037844382
20
143.60362971081599
10
-65.820508075688792
20
135.71687836486785
10
-65.820508075688778
20
122.83012701891971
10
-74.480762113533146
20
117.83012701891971
10
-85.641016151377571
20
124.27350269189378
10
-99.301270189221952
20
116.38675134594567
10
-99.301270189221952
20
100.61324865404934
10
-85.641016151377556
20
92.726497308101244
0
LWPOLYLINE
5
101
100
AcDbEntity
8
0
100
AcDbPolyline
90
20
70
1
43
0.0
10
-443.01923788646684
20
78.499999999997215
10
-443.01923788646661
20
65.613248654049102
10
-429.35898384862213
20
57.726497308101166
10
-418.19872981077776
20
64.169872981075386
10
-407.0384757729334
20
57.726497308101365
10
-393.37822173508903
20
65.61324865404967
10
-393.37822173508931
20
81.386751345945939
10
-407.03847577293379
20
89.273502691893867
10
-418.1987298107781
20
82.830127018919782
10
-426.85898384862236
20
87.830127018919782
10
-426.85898384862253
20
100.71687836486794
10
-438.01923788646673
20
107.16025403784195
10
-438.01923788646695
20
120.04700538379011
10
-451.67949192431144
20
127.93375672973802
10
-465.3397459621558
20
120.04700538378967
10
-465.3397459621558
20
107.16025403784157
10
-476.50000000000011
20
100.71687836486731
10
-476.49999999999983
20
84.943375672971086
10
-462.83974596215535
20
77.056624327023172
10
-451.67949192431109
20
83.499999999997243
0
LWPOLYLINE
5
102
100
AcDbEntity
8
0
100
AcDbPolyline
90
22
70
1
43
0.0
10
-141.44228634059948
20
99.169872981075287
10
-130.28203230275508
20
92.726497308101273
10
-116.62177826491067
20
100.61324865404934
10
-116.62177826491067
20
113.49999999999753
10
-105.46152422706632
20
119.94337567297163
10
-105.46152422706629
20
135.71687836486785
10
-119.12177826491067
20
143.60362971081599
10
-132.78203230275508
20
135.71687836486788
10
-132.78203230275508
20
122.83012701891974
10
-141.44228634059945
20
117.83012701891971
10
-150.10254037844385
20
122.83012701891971
10
-150.10254037844385
20
135.71687836486782
10
-163.76279441628822
20
143.60362971081599
10
-174.92304845413261
20
137.1602540378419
10
-186.08330249197701
20
143.60362971081599
10
-199.7435565298214
20
135.71687836486788
10
-199.7435565298214
20
119.94337567297163
10
-186.08330249197701
20
112.05662432702346
10
-174.92304845413261
20
118.49999999999754
10
-166.26279441628824
20
113.49999999999753
10
-166.26279441628824
20
100.61324865404934
10
-152.60254037844385
20
92.726497308101244
0
LWPOLYLINE
5
103
100
AcDbEntity
8
0
100
AcDbPolyline
90
8
70
1
43
0.0
10
-498.9999999999946
20
490
10
-1.0000000000000142
20
490
10
-1.0000000000000142
20
0
10
-499.0000000000004
20
0
10
-499.0000000000004
20
50
10
-495.00000000000045
20
50
10
-495.00000000000045
20
440
10
-498.9999999999946
20
440
0
LWPOLYLINE
5
104
100
AcDbEntity
8
0
100
AcDbPolyline
90
6
70
1
43
0.0
10
-454.17949192431109
20
87.830127018919541
10
-462.83974596215546
20
82.830127018919413
10
-471.49999999999989
20
87.830127018919285
10
-471.50000000000006
20
97.830127018919271
10
-462.83974596215569
20
102.83012701891941
10
-454.17949192431126
20
97.830127018919541
0
LWPOLYLINE
5
105
100
AcDbEntity
8
0
100
AcDbPolyline
90
6
70
1
43
0.0
10
-443.01923788646673
20
107.16025403784188
10
-451.67949192431109
20
102.16025403784175
10
-460.33974596215558
20
107.16025403784164
10
-460.33974596215569
20
117.16025403784161
10
-451.67949192431138
20
122.16025403784175
10
-443.0192378864669
20
117.16025403784188
0
LWPOLYLINE
5
106
100
AcDbEntity
8
0
100
AcDbPolyline
90
6
70
1
43
0.0
10
-431.85898384862236
20
87.830127018919711
10
-440.51923788646667
20
82.830127018919598
10
-449.17949192431115
20
87.83012701891947
10
-449.17949192431132
20
97.830127018919455
10
-440.51923788646695
20
102.8301270189196
10
-431.85898384862247
20
97.830127018919711
0
LWPOLYLINE
5
107
100
AcDbEntity
8
0
100
AcDbPolyline
90
6
70
1
43
0.0
10
-420.69872981077788
20
68.499999999997542
10
-429.35898384862219
20
63.499999999997421
10
-438.01923788646667
20
68.4999999999973
10
-438.01923788646684
20
78.499999999997286
10
-429.35898384862247
20
83.499999999997414
10
-420.69872981077799
20
78.499999999997542
0
LWPOLYLINE
5
108
100
AcDbEntity
8
0
100
AcDbPolyline
90
6
70
1
43
0.0
10
-415.6987298107781
20
78.49999999999747
10
-407.03847577293374
20
83.499999999997598
10
-398.37822173508926
20
78.499999999997726
10
-398.37822173508914
20
68.499999999997726
10
-407.03847577293345
20
63.499999999997605
10
-415.69872981077793
20
68.499999999997485
0
LWPOLYLINE
5
109
100
AcDbEntity
8
0
100
AcDbPolyline
90
6
70
1
43
0.0
10
-186.08330249197701
20
117.83012701891971
10
-194.7435565298214
20
122.83012701891974
10
-194.7435565298214
20
132.83012701891974
10
-186.08330249197701
20
137.83012701891974
10
-177.42304845413261
20
132.83012701891971
10
-177.42304845413261
20
122.83012701891974
0
LWPOLYLINE
5
110
100
AcDbEntity
8
0
100
AcDbPolyline
90
6
70
1
43
0.0
10
-163.76279441628824
20
117.83012701891971
10
-172.42304845413261
20
122.83012701891974
10
-172.42304845413261
20
132.83012701891974
10
-163.76279441628822
20
137.83012701891974
10
-155.10254037844385
20
132.83012701891971
10
-155.10254037844385
20
122.83012701891974
0
LWPOLYLINE
5
111
100
AcDbEntity
8
0
100
AcDbPolyline
90
6
70
1
43
0.0
10
-161.26279441628824
20
113.49999999999753
10
-152.60254037844385
20
118.49999999999753
10
-143.94228634059945
20
113.49999999999753
10
-143.94228634059945
20
103.4999999999975
10
-152.60254037844385
20
98.499999999997513
10
-161.26279441628824
20
103.4999999999975
0
LWPOLYLINE
5
112
100
AcDbEntity
8
0
100
AcDbPolyline
90
6
70
1
43
0.0
10
-138.94228634059948
20
113.49999999999753
10
-130.28203230275508
20
118.49999999999753
10
-121.62177826491067
20
113.49999999999753
10
-121.62177826491067
20
103.4999999999975
10
-130.28203230275508
20
98.499999999997513
10
-138.94228634059948
20
103.4999999999975
0
LWPOLYLINE
5
113
100
AcDbEntity
8
0
100
AcDbPolyline
90
6
70
1
43
0.0
10
-119.12177826491072
20
117.83012701891971
10
-127.78203230275508
20
122.83012701891974
10
-127.78203230275508
20
132.83012701891974
10
-119.12177826491067
20
137.83012701891974
10
-110.46152422706629
20
132.83012701891971
10
-110.46152422706632
20
122.83012701891974
0
LWPOLYLINE
5
114
100
AcDbEntity
8
0
100
AcDbPolyline
90
6
70
1
43
0.0
10
-94.301270189221952
20
113.49999999999753
10
-85.641016151377556
20
118.49999999999753
10
-76.980762113533146
20
113.49999999999753
10
-76.980762113533146
20
103.4999999999975
10
-85.641016151377556
20
98.499999999997513
10
-94.301270189221952
20
103.4999999999975
0
LWPOLYLINE
5
115
100
AcDbEntity
8
0
100
AcDbPolyline
90
6
70
1
43
0.0
10
-71.980762113533189
20
113.49999999999753
10
-63.320508075688778
20
118.49999999999753
10
-54.660254037844382
20
113.49999999999753
10
-54.660254037844382
20
103.4999999999975
10
-63.320508075688778
20
98.499999999997513
10
-71.980762113533189
20
103.4999999999975
0
LWPOLYLINE
5
116
100
AcDbEntity
8
0
100
AcDbPolyline
90
6
70
1
43
0.0
10
-49.660254037844417
20
113.49999999999753
10
-41.000000000000014
20
118.49999999999753
10
-32.339745962155611
20
113.49999999999753
10
-32.339745962155611
20
103.4999999999975
10
-41.000000000000014
20
98.499999999997513
10
-49.660254037844417
20
103.4999999999975
0
LWPOLYLINE
5
117
100
AcDbEntity
8
0
100
AcDbPolyline
90
6
70
1
43
0.0
10
-60.820508075688792
20
132.83012701891974
10
-52.160254037844382
20
137.83012701891974
10
-43.500000000000007
20
132.83012701891971
10
-43.500000000000014
20
122.83012701891974
10
-52.16025403784441
20
117.83012701891971
10
-60.820508075688778
20
122.83012701891974
0
ENDSEC
0
SECTION
2
OBJECTS
0
DICTIONARY
5
C
100
AcDbDictionary
3
ACAD_GROUP
350
D
3
ACAD_MLINESTYLE
350
17
0
DICTIONARY
5
D
100
AcDbDictionary
0
DICTIONARY
5
1A
330
C
100
AcDbDictionary
0
DICTIONARY
5
17
100
AcDbDictionary
0
ENDSEC
0
EOF
