0
SECTION
2
HEADER
9
$INSUNITS
70
4
9
$ACADVER
1
AC1014
9
$HANDSEED
5
FFFF
0
ENDSEC
0
SECTION
2
TABLES
0
TABLE
2
VPORT
5
8
100
AcDbSymbolTable
0
ENDTAB
0
TABLE
2
LTYPE
5
5
100
AcDbSymbolTable
0
LTYPE
5
14
100
AcDbSymbolTableRecord
100
AcDbLinetypeTableRecord
2
BYBLOCK
70
0
0
LTYPE
5
15
100
AcDbSymbolTableRecord
100
AcDbLinetypeTableRecord
2
BYLAYER
70
0
0
ENDTAB
0
TABLE
2
LAYER
5
2
100
AcDbSymbolTable
70
2
0
LAYER
5
50
100
AcDbSymbolTableRecord
100
AcDbLayerTableRecord
2
0
70
0
6
CONTINUOUS
0
ENDTAB
0
TABLE
2
STYLE
5
3
100
AcDbSymbolTable
70
1
0
STYLE
5
11
100
AcDbSymbolTableRecord
100
AcDbTextStyleTableRecord
2
STANDARD
70
0
0
ENDTAB
0
TABLE
2
VIEW
5
6
100
AcDbSymbolTable
70
0
0
ENDTAB
0
TABLE
2
UCS
5
7
100
AcDbSymbolTable
70
0
0
ENDTAB
0
TABLE
2
APPID
5
9
100
AcDbSymbolTable
70
2
0
APPID
5
12
100
AcDbSymbolTableRecord
100
AcDbRegAppTableRecord
2
ACAD
70
0
0
ENDTAB
0
TABLE
2
DIMSTYLE
5
A
100
AcDbSymbolTable
70
1
0
ENDTAB
0
TABLE
2
BLOCK_RECORD
5
1
100
AcDbSymbolTable
70
1
0
BLOCK_RECORD
5
1F
100
AcDbSymbolTableRecord
100
AcDbBlockTableRecord
2
*MODEL_SPACE
0
BLOCK_RECORD
5
1B
100
AcDbSymbolTableRecord
100
AcDbBlockTableRecord
2
*PAPER_SPACE
0
ENDTAB
0
ENDSEC
0
SECTION
2
BLOCKS
0
BLOCK
5
20
100
AcDbEntity
100
AcDbBlockBegin
2
*MODEL_SPACE
0
ENDBLK
5
21
100
AcDbEntity
100
AcDbBlockEnd
0
BLOCK
5
1C
100
AcDbEntity
100
AcDbBlockBegin
2
*PAPER_SPACE
0
ENDBLK
5
1D
100
AcDbEntity
100
AcDbBlockEnd
0
ENDSEC
0
SECTION
2
ENTITIES
0
LWPOLYLINE
5
100
100
AcDbEntity
8
0
100
AcDbPolyline
90
28
70
1
43
0.0
10
-31.00960424550199
20
289.35773424958006
10
-31.009604245501976
20
434.8223645358454
42
-0.15856219177574496
10
-30.818213365011626
20
435.41071077047297
42
1.9605152413534932
10
-46.199165745888024
20
435.434674599441
42
-0.15776369512889687
10
-46.00960424550199
20
434.84885087315547
10
-46.009604245501976
20
295.57093768515477
42
-0.19891236737963144
10
-46.302497464298902
20
294.86383090400813
10
-55.707106781148362
20
285.45922158715234
42
0.19891236737966128
10
-55.999999999961432
20
284.7521148059667
10
-55.999999999961105
20
53.555441711732698
42
-0.25819888974704996
10
-56.468749999966491
20
52.708226604739671
42
0.11314051646946023
10
-61.208226604722277
20
47.968749999971081
42
-0.25819888974775768
10
-62.055441711650658
20
47.499999999999972
10
-96.4791847198304
20
47.499999999999957
42
-0.19891236737966422
10
-97.186291501016939
20
47.792893218813404
10
-125.33780019755953
20
75.944401915357076
42
-0.15816334771947713
10
-125.61824642433719
20
76.494222154015162
42
1.9605192944669529
10
-136.49422215401847
20
65.618246424338139
42
-0.1581633477193895
10
-135.94440191536032
20
65.337800197560355
10
-103.39949493661351
20
32.79289321881339
42
0.1989123673796564
10
-102.692388155427
20
32.49999999999995
10
-62.055441711687237
20
32.500000000000007
42
-0.25819888974716509
10
-61.20822660470408
20
32.031249999999829
42
1.2551486871827489
10
-40.531249999972879
20
52.708226604750472
42
-0.25819888974739852
10
-40.999999999961155
20
53.555441711711218
10
-40.999999999961396
20
278.53891137038778
42
-0.19891236737964391
10
-40.707106781160654
20
279.24601815154364
10
-31.302497464314314
20
288.65062746839624
42
0.19891236737966045
0
LWPOLYLINE
5
101
100
AcDbEntity
8
0
100
AcDbPolyline
90
17
70
1
43
0.0
10
-52.009604245501976
20
433.4012768753804
42
-1.7122767181123737
10
-25.009604245502011
20
433.36722708435605
10
-25.00960424550199
20
289.35773424958006
42
-0.19891236737965973
10
-27.059856777195055
20
284.40798678127697
10
-34.99999999996141
20
276.46784355850536
10
-34.999999999961119
20
56.085707942145426
42
-1.0912090667261312
10
-64.585707942106467
20
26.499999999999957
10
-102.69238815542701
20
26.49999999999995
42
-0.1989123673796557
10
-107.64213562373277
20
28.550252531694078
10
-139.16077673888609
20
60.068893646847542
42
-1.7122794893233393
10
-120.06889364684551
20
79.160776738880415
10
-94.408116907964938
20
53.49999999999995
10
-64.585707942106538
20
53.499999999999957
42
-0.043615470197306772
10
-61.999999999961148
20
56.085707942145362
10
-61.999999999961439
20
284.7521148059667
42
-0.19891236737965984
10
-59.949747468267624
20
289.70186227427166
10
-52.009604245501997
20
297.64200549704265
0
ENDSEC
0
SECTION
2
OBJECTS
0
DICTIONARY
5
C
100
AcDbDictionary
3
ACAD_GROUP
350
D
3
ACAD_MLINESTYLE
350
17
0
DICTIONARY
5
D
100
AcDbDictionary
0
DICTIONARY
5
1A
330
C
100
AcDbDictionary
0
DICTIONARY
5
17
100
AcDbDictionary
0
ENDSEC
0
EOF
