0
SECTION
2
HEADER
9
$INSUNITS
70
4
9
$ACADVER
1
AC1014
9
$HANDSEED
5
FFFF
0
ENDSEC
0
SECTION
2
TABLES
0
TABLE
2
VPORT
5
8
100
AcDbSymbolTable
0
ENDTAB
0
TABLE
2
LTYPE
5
5
100
AcDbSymbolTable
0
LTYPE
5
14
100
AcDbSymbolTableRecord
100
AcDbLinetypeTableRecord
2
BYBLOCK
70
0
0
LTYPE
5
15
100
AcDbSymbolTableRecord
100
AcDbLinetypeTableRecord
2
BYLAYER
70
0
0
ENDTAB
0
TABLE
2
LAYER
5
2
100
AcDbSymbolTable
70
2
0
LAYER
5
50
100
AcDbSymbolTableRecord
100
AcDbLayerTableRecord
2
0
70
0
6
CONTINUOUS
0
ENDTAB
0
TABLE
2
STYLE
5
3
100
AcDbSymbolTable
70
1
0
STYLE
5
11
100
AcDbSymbolTableRecord
100
AcDbTextStyleTableRecord
2
STANDARD
70
0
0
ENDTAB
0
TABLE
2
VIEW
5
6
100
AcDbSymbolTable
70
0
0
ENDTAB
0
TABLE
2
UCS
5
7
100
AcDbSymbolTable
70
0
0
ENDTAB
0
TABLE
2
APPID
5
9
100
AcDbSymbolTable
70
2
0
APPID
5
12
100
AcDbSymbolTableRecord
100
AcDbRegAppTableRecord
2
ACAD
70
0
0
ENDTAB
0
TABLE
2
DIMSTYLE
5
A
100
AcDbSymbolTable
70
1
0
ENDTAB
0
TABLE
2
BLOCK_RECORD
5
1
100
AcDbSymbolTable
70
1
0
BLOCK_RECORD
5
1F
100
AcDbSymbolTableRecord
100
AcDbBlockTableRecord
2
*MODEL_SPACE
0
BLOCK_RECORD
5
1B
100
AcDbSymbolTableRecord
100
AcDbBlockTableRecord
2
*PAPER_SPACE
0
ENDTAB
0
ENDSEC
0
SECTION
2
BLOCKS
0
BLOCK
5
20
100
AcDbEntity
100
AcDbBlockBegin
2
*MODEL_SPACE
0
ENDBLK
5
21
100
AcDbEntity
100
AcDbBlockEnd
0
BLOCK
5
1C
100
AcDbEntity
100
AcDbBlockBegin
2
*PAPER_SPACE
0
ENDBLK
5
1D
100
AcDbEntity
100
AcDbBlockEnd
0
ENDSEC
0
SECTION
2
ENTITIES
0
LWPOLYLINE
5
100
100
AcDbEntity
8
0
100
AcDbPolyline
90
8
70
1
43
0.0
10
254.50000000004843
20
322.99999999997647
10
254.50000000004846
20
469.99999999997658
42
0.41421356237307771
10
251.5000000000484
20
472.99999999997652
10
227.50000000004843
20
472.99999999997652
42
0.41421356237307771
10
224.50000000004837
20
469.99999999997658
10
224.50000000004843
20
322.99999999997647
42
0.41421356237311935
10
227.50000000004843
20
319.99999999997647
10
251.5000000000484
20
319.99999999997647
42
0.41421356237311935
0
CIRCLE
5
101
100
AcDbEntity
8
0
100
AcDbCircle
10
48.499999999961091
20
39.999999999999993
30
0
40
5.6749999999999989
210
-3.8480003507563223e-77
220
-6.3627924390387071e-123
230
1
0
LWPOLYLINE
5
102
100
AcDbEntity
8
0
100
AcDbPolyline
90
12
70
1
43
0.0
10
84.999999999999687
20
0.99999999999998312
10
84.999999999999687
20
4.999999999999992
10
-3.1390445798251677e-13
20
5
10
-3.730349362740526e-13
20
498.9999999999946
10
84.999999999999687
20
498.999999999995
10
84.999999999999687
20
494.999999999995
10
184.99999999999969
20
494.99999999999773
10
184.99999999999966
20
498.99999999999517
10
269.99999999999824
20
498.99999999999523
10
269.99999999999966
20
4.999999999999682
10
184.99999999999969
20
4.9999999999999591
10
184.99999999999969
20
1.0000000000000204
0
LWPOLYLINE
5
103
100
AcDbEntity
8
0
100
AcDbPolyline
90
17
70
1
43
0.0
10
52.009604245502004
20
433.40127687538052
10
52.009604245502004
20
297.64200549704265
10
59.949747468267624
20
289.70186227427166
42
-0.19891236737966009
10
61.999999999961439
20
284.7521148059667
10
61.999999999961148
20
56.085707942145305
42
-0.043615470197306327
10
64.585707942106495
20
53.499999999999943
10
94.408116907964924
20
53.499999999999943
10
120.06889364684548
20
79.160776738880415
42
-1.7122794893233393
10
139.16077673888609
20
60.068893646847528
10
107.64213562373274
20
28.550252531694099
42
-0.1989123673796557
10
102.69238815542701
20
26.499999999999986
10
64.585707942106481
20
26.499999999999982
42
-1.0912090667261327
10
34.999999999961162
20
56.085707942145433
10
34.999999999961418
20
276.46784355850536
10
27.059856777195066
20
284.40798678127697
42
-0.19891236737965973
10
25.009604245502
20
289.35773424958006
10
25.009604245502022
20
433.36722708435605
42
-1.712276718112371
0
LWPOLYLINE
5
104
100
AcDbEntity
8
0
100
AcDbPolyline
90
8
70
1
43
0.0
10
224.58500000004832
20
469.99999999997658
42
-0.41421356237307005
10
227.50000000004843
20
472.91499999997654
10
251.5000000000484
20
472.91499999997649
42
-0.41421356237307722
10
254.41500000004845
20
469.99999999997658
10
254.41500000004837
20
322.99999999997652
42
-0.41421356237312001
10
251.5000000000484
20
320.08499999997645
10
227.50000000004843
20
320.08499999997639
42
-0.41421356237312001
10
224.58500000004844
20
322.99999999997647
0
LINE
5
105
100
AcDbEntity
8
0
100
AcDbLine
10
84.914999999999679
20
4.999999999999992
30
0
11
84.914999999999679
21
0.99999999999998312
31
0
0
LINE
5
106
100
AcDbEntity
8
0
100
AcDbLine
10
185.0849999999997
20
1.0000000000000204
30
8.6552075460562544e-45
11
185.0849999999997
21
4.9999999999999591
31
0
0
LINE
5
107
100
AcDbEntity
8
0
100
AcDbLine
10
184.99999999999969
20
1.0000000000000204
30
8.6552075460562544e-45
11
185.0849999999997
21
1.0000000000000204
31
8.6552075460562544e-45
0
LINE
5
108
100
AcDbEntity
8
0
100
AcDbLine
10
84.999999999999687
20
0.99999999999998312
30
0
11
84.914999999999679
21
0.99999999999998312
31
0
0
LINE
5
109
100
AcDbEntity
8
0
100
AcDbLine
10
184.91499999999962
20
498.99999999999517
30
-1.6535321879032842e-44
11
184.91499999999968
21
495.08499999999771
31
-1.8514765436335457e-45
0
LINE
5
110
100
AcDbEntity
8
0
100
AcDbLine
10
184.91499999999968
20
495.08499999999771
30
-1.8514765436335457e-45
11
85.084999999999681
21
495.08499999999503
31
-6.2780944327622128e-43
0
LINE
5
111
100
AcDbEntity
8
0
100
AcDbLine
10
85.084999999999681
20
495.08499999999503
30
-6.2780944327622128e-43
11
85.084999999999681
21
498.999999999995
31
0
0
LINE
5
112
100
AcDbEntity
8
0
100
AcDbLine
10
84.999999999999687
20
498.999999999995
30
0
11
85.084999999999681
21
498.999999999995
31
0
0
LINE
5
113
100
AcDbEntity
8
0
100
AcDbLine
10
184.99999999999966
20
498.99999999999517
30
-1.6535321879032842e-44
11
184.91499999999962
21
498.99999999999517
31
-1.6535321879032842e-44
0
ARC
5
114
100
AcDbEntity
8
0
100
AcDbCircle
10
85.084999999999681
20
495.08499999999503
30
-6.2780944327622128e-43
40
1.0000000000000142
210
0
220
-1.2372830554624347e-43
230
1
100
AcDbArc
50
-270
51
0
0
ARC
5
115
100
AcDbEntity
8
0
100
AcDbCircle
10
184.91499999999968
20
495.08499999999771
30
-1.8514765436335457e-45
40
1.0000000000000142
210
-3.6536416002808863e-45
220
0
230
1
100
AcDbArc
50
-180
51
90.000000000003254
0
ENDSEC
0
SECTION
2
OBJECTS
0
DICTIONARY
5
C
100
AcDbDictionary
3
ACAD_GROUP
350
D
3
ACAD_MLINESTYLE
350
17
0
DICTIONARY
5
D
100
AcDbDictionary
0
DICTIONARY
5
1A
330
C
100
AcDbDictionary
0
DICTIONARY
5
17
100
AcDbDictionary
0
ENDSEC
0
EOF
