0
SECTION
2
HEADER
9
$INSUNITS
70
4
9
$ACADVER
1
AC1014
9
$HANDSEED
5
FFFF
0
ENDSEC
0
SECTION
2
TABLES
0
TABLE
2
VPORT
5
8
100
AcDbSymbolTable
0
ENDTAB
0
TABLE
2
LTYPE
5
5
100
AcDbSymbolTable
0
LTYPE
5
14
100
AcDbSymbolTableRecord
100
AcDbLinetypeTableRecord
2
BYBLOCK
70
0
0
LTYPE
5
15
100
AcDbSymbolTableRecord
100
AcDbLinetypeTableRecord
2
BYLAYER
70
0
0
ENDTAB
0
TABLE
2
LAYER
5
2
100
AcDbSymbolTable
70
2
0
LAYER
5
50
100
AcDbSymbolTableRecord
100
AcDbLayerTableRecord
2
0
70
0
6
CONTINUOUS
0
ENDTAB
0
TABLE
2
STYLE
5
3
100
AcDbSymbolTable
70
1
0
STYLE
5
11
100
AcDbSymbolTableRecord
100
AcDbTextStyleTableRecord
2
STANDARD
70
0
0
ENDTAB
0
TABLE
2
VIEW
5
6
100
AcDbSymbolTable
70
0
0
ENDTAB
0
TABLE
2
UCS
5
7
100
AcDbSymbolTable
70
0
0
ENDTAB
0
TABLE
2
APPID
5
9
100
AcDbSymbolTable
70
2
0
APPID
5
12
100
AcDbSymbolTableRecord
100
AcDbRegAppTableRecord
2
ACAD
70
0
0
ENDTAB
0
TABLE
2
DIMSTYLE
5
A
100
AcDbSymbolTable
70
1
0
ENDTAB
0
TABLE
2
BLOCK_RECORD
5
1
100
AcDbSymbolTable
70
1
0
BLOCK_RECORD
5
1F
100
AcDbSymbolTableRecord
100
AcDbBlockTableRecord
2
*MODEL_SPACE
0
BLOCK_RECORD
5
1B
100
AcDbSymbolTableRecord
100
AcDbBlockTableRecord
2
*PAPER_SPACE
0
ENDTAB
0
ENDSEC
0
SECTION
2
BLOCKS
0
BLOCK
5
20
100
AcDbEntity
100
AcDbBlockBegin
2
*MODEL_SPACE
0
ENDBLK
5
21
100
AcDbEntity
100
AcDbBlockEnd
0
BLOCK
5
1C
100
AcDbEntity
100
AcDbBlockBegin
2
*PAPER_SPACE
0
ENDBLK
5
1D
100
AcDbEntity
100
AcDbBlockEnd
0
ENDSEC
0
SECTION
2
ENTITIES
0
LWPOLYLINE
5
100
100
AcDbEntity
8
0
100
AcDbPolyline
90
16
70
1
43
0.0
10
231.45000000004836
20
333.99999999997635
42
-0.41421356237318308
10
232.7500000000484
20
335.29999999997654
10
246.25000000004837
20
335.29999999997654
42
-0.41421356237312712
10
247.55000000004841
20
333.99999999997652
10
247.55000000004841
20
332.24999999997851
10
249.25000000004925
20
332.24999999997829
42
-0.99999999999999989
10
249.25000000004746
20
328.74999999997476
10
247.55000000004841
20
328.74999999997834
10
247.55000000004839
20
326.99999999997658
42
-0.41421356237316709
10
246.25000000004837
20
325.69999999997651
10
232.75000000004837
20
325.69999999997651
42
-0.41421356237311907
10
231.45000000004839
20
326.99999999997652
10
231.45000000004842
20
328.7499999999784
10
229.75000000004837
20
328.74999999997476
42
-0.99999999999999989
10
229.75000000004843
20
332.2499999999784
10
231.45000000004842
20
332.2499999999784
0
LWPOLYLINE
5
101
100
AcDbEntity
8
0
100
AcDbPolyline
90
16
70
1
43
0.0
10
232.75000000004837
20
339.69999999997651
42
-0.41421356237311102
10
231.45000000004836
20
340.99999999997647
10
231.45000000004842
20
342.7499999999747
10
229.75000000004837
20
342.7499999999747
42
-0.99999999999999989
10
229.75000000004843
20
346.24999999997834
10
231.45000000004842
20
346.2499999999747
10
231.45000000004836
20
347.99999999997652
42
-0.414213562373063
10
232.75000000004837
20
349.29999999997654
10
246.25000000004843
20
349.29999999997648
42
-0.41421356237309503
10
247.55000000004841
20
347.99999999997652
10
247.55000000004841
20
346.24999999997465
10
249.2500000000484
20
346.24999999997834
42
-0.99999999999999989
10
249.2500000000484
20
342.7499999999747
10
247.55000000004841
20
342.7499999999747
10
247.55000000004841
20
340.99999999997647
42
-0.414213562373063
10
246.25000000004837
20
339.69999999997646
0
LWPOLYLINE
5
102
100
AcDbEntity
8
0
100
AcDbPolyline
90
4
70
1
43
0.0
10
257.00000000004837
20
319.99999999997652
10
222.00000000004854
20
319.99999999997652
10
222.00000000004837
20
354.99999999997658
10
257.00000000004837
20
354.99999999997658
0
LINE
5
103
100
AcDbEntity
8
0
100
AcDbLine
10
227.00000000004837
20
344.99999999997658
30
7.1054273576010019e-14
11
227.00000000004837
21
319.99999999997658
31
7.1054273576010019e-14
0
LINE
5
104
100
AcDbEntity
8
0
100
AcDbLine
10
227.00000000004837
20
324.99999999997658
30
7.1054273576010019e-14
11
257.00000000004837
21
324.99999999997658
31
7.1054273576010019e-14
0
LINE
5
105
100
AcDbEntity
8
0
100
AcDbLine
10
222.00000000004837
20
344.99999999997658
30
7.1054273576010019e-14
11
227.00000000004837
21
344.99999999997658
31
7.1054273576010019e-14
0
ENDSEC
0
SECTION
2
OBJECTS
0
DICTIONARY
5
C
100
AcDbDictionary
3
ACAD_GROUP
350
D
3
ACAD_MLINESTYLE
350
17
0
DICTIONARY
5
D
100
AcDbDictionary
0
DICTIONARY
5
1A
330
C
100
AcDbDictionary
0
DICTIONARY
5
17
100
AcDbDictionary
0
ENDSEC
0
EOF
