<svg xmlns="http://www.w3.org/2000/svg" width="270.01mm" height="498.01mm" viewBox="0 0 765.383 1411.682">
  <defs>
    <style>
      .a, .b {
        fill: none;
        stroke-linecap: round;
        stroke-linejoin: round;
        stroke-width: 0.028px;
      }

      .a {
        stroke: #000;
      }

      .b {
        stroke: red;
      }

      .c {
        fill: blue;
      }
    </style>
  </defs>
  <title>BackWall</title>
  <path class="a" d="M522.283,850.394a4.961,4.961,0,1,1,4.961,4.96,4.961,4.961,0,0,1-4.961-4.96Z" transform="translate(-467.702 -144.553)"/>
  <path class="a" d="M1168.583,850.394a4.961,4.961,0,1,1,4.96,4.96,4.961,4.961,0,0,1-4.96-4.96Z" transform="translate(-467.702 -144.553)"/>
  <path class="a" d="M1139.528,1510.866a14.173,14.173,0,1,1,14.173,14.173,14.172,14.172,0,0,1-14.173-14.173Z" transform="translate(-467.702 -144.553)"/>
  <path class="a" d="M523.7,1340.532a24.095,24.095,0,1,1,24.094,24.1,24.094,24.094,0,0,1-24.094-24.1Z" transform="translate(-467.702 -144.553)"/>
  <path class="a" d="M523.7,1439.745a24.095,24.095,0,1,1,24.094,24.094,24.095,24.095,0,0,1-24.094-24.094Z" transform="translate(-467.702 -144.553)"/>
  <path class="a" d="M1036.063,1493.858a14.174,14.174,0,0,1,14.173-14.173h5.67a5.669,5.669,0,0,0,5.669-5.669V1343.622a5.669,5.669,0,0,0-5.669-5.669h-73.7a14.174,14.174,0,0,1-14.174-14.173v-5.67a5.669,5.669,0,0,0-5.669-5.669H690.236a5.669,5.669,0,0,0-5.669,5.669v34.016a14.173,14.173,0,0,1-14.173,14.173h-5.67a5.669,5.669,0,0,0-5.669,5.67v130.393a5.669,5.669,0,0,0,5.669,5.669h73.7a14.173,14.173,0,0,1,14.173,14.174v5.669a5.67,5.67,0,0,0,5.67,5.669h272.126a5.669,5.669,0,0,0,5.669-5.669Z" transform="translate(-467.702 -144.553)"/>
  <path class="a" d="M658.346,1527.874a6.378,6.378,0,1,1,6.378,6.378,6.379,6.379,0,0,1-6.378-6.378Z" transform="translate(-467.702 -144.553)"/>
  <path class="a" d="M1049.528,1318.11a6.378,6.378,0,1,1,6.378,6.378,6.378,6.378,0,0,1-6.378-6.378Z" transform="translate(-467.702 -144.553)"/>
  <path class="a" d="M658.346,1346.457a6.378,6.378,0,1,1,6.378,6.378,6.378,6.378,0,0,1-6.378-6.378Z" transform="translate(-467.702 -144.553)"/>
  <path class="a" d="M1049.528,1499.528a6.378,6.378,0,1,1,6.378,6.378,6.377,6.377,0,0,1-6.378-6.378Z" transform="translate(-467.702 -144.553)"/>
  <path class="a" d="M726.378,1527.874a6.378,6.378,0,1,1,6.378,6.378,6.378,6.378,0,0,1-6.378-6.378Z" transform="translate(-467.702 -144.553)"/>
  <path class="a" d="M981.5,1318.11a6.378,6.378,0,1,1,6.378,6.378,6.379,6.379,0,0,1-6.378-6.378Z" transform="translate(-467.702 -144.553)"/>
  <path class="a" d="M658.346,1318.11a6.378,6.378,0,1,1,6.378,6.378,6.379,6.379,0,0,1-6.378-6.378Z" transform="translate(-467.702 -144.553)"/>
  <path class="a" d="M1049.528,1527.874a6.378,6.378,0,1,1,6.378,6.378,6.378,6.378,0,0,1-6.378-6.378Z" transform="translate(-467.702 -144.553)"/>
  <path class="a" d="M496.65,1266.123a5.1,5.1,0,1,1,5.1,5.1,5.1,5.1,0,0,1-5.1-5.1Z" transform="translate(-467.702 -144.553)"/>
  <path class="a" d="M496.65,900.454a5.1,5.1,0,1,1,5.1,5.1,5.1,5.1,0,0,1-5.1-5.1Z" transform="translate(-467.702 -144.553)"/>
  <path class="a" d="M755.623,1174.521a5.1,5.1,0,1,1,5.1,5.1,5.1,5.1,0,0,1-5.1-5.1Z" transform="translate(-467.702 -144.553)"/>
  <path class="a" d="M755.623,236.863a5.1,5.1,0,1,1,5.1,5.1,5.1,5.1,0,0,1-5.1-5.1Z" transform="translate(-467.702 -144.553)"/>
  <rect class="a" x="279.68" y="117.822" width="326.098" height="886.635" rx="8.504" ry="8.504"/>
  <path class="a" d="M728.107,1135.666a5.1,5.1,0,1,1,5.1,5.1,5.1,5.1,0,0,1-5.1-5.1Z" transform="translate(-467.702 -144.553)"/>
  <path class="a" d="M664.477,900.454a5.1,5.1,0,1,1,5.1,5.1,5.1,5.1,0,0,1-5.1-5.1Z" transform="translate(-467.702 -144.553)"/>
  <path class="a" d="M593.008,1266.123a5.1,5.1,0,1,1,5.1,5.1,5.1,5.1,0,0,1-5.1-5.1Z" transform="translate(-467.702 -144.553)"/>
  <path class="a" d="M691.994,939.308a5.1,5.1,0,1,1,5.1,5.1,5.1,5.1,0,0,1-5.1-5.1Z" transform="translate(-467.702 -144.553)"/>
  <path class="a" d="M1055.035,1174.521a5.1,5.1,0,1,1,5.1,5.1,5.1,5.1,0,0,1-5.1-5.1Z" transform="translate(-467.702 -144.553)"/>
  <path class="a" d="M728.107,275.718a5.1,5.1,0,1,1,5.1,5.1,5.1,5.1,0,0,1-5.1-5.1Z" transform="translate(-467.702 -144.553)"/>
  <path class="a" d="M1055.035,236.863a5.1,5.1,0,1,1,5.1,5.1,5.1,5.1,0,0,1-5.1-5.1Z" transform="translate(-467.702 -144.553)"/>
  <path class="a" d="M728.107,705.692a5.1,5.1,0,1,1,5.1,5.1,5.1,5.1,0,0,1-5.1-5.1Z" transform="translate(-467.702 -144.553)"/>
  <path class="a" d="M691.994,1227.268a5.1,5.1,0,1,1,5.1,5.1,5.1,5.1,0,0,1-5.1-5.1Z" transform="translate(-467.702 -144.553)"/>
  <line class="b" x1="609.463" y1="1400.329" x2="609.463" y2="28.361"/>
  <line class="b" x1="609.463" y1="1111.195" x2="157.337" y2="1111.195"/>
  <line class="b" x1="157.337" y1="1111.195" x2="157.337" y2="1391.825"/>
  <path class="a" d="M708.9,152.83v-8.263H467.717v11.339h17.007V925.965h189.7a8.5,8.5,0,0,1,8.5,8.5v297.638a8.5,8.5,0,0,1-8.5,8.5H484.724v304.271h223.7v11.338H992.367v-11.338h223.7V155.906h17.008V144.567H991.885v8.263a2.835,2.835,0,1,1-2.835,2.835H711.737a2.835,2.835,0,1,1-2.835-2.835Z" transform="translate(-467.702 -144.553)"/>
  <line class="a" x1="279.68" y1="141.125" x2="605.778" y2="141.125"/>
  <line class="a" x1="605.778" y1="465.517" x2="279.68" y2="465.517"/>
  <path class="a" d="M760.283,302.686a4.961,4.961,0,1,1,4.96,4.961,4.961,4.961,0,0,1-4.96-4.961Z" transform="translate(-467.702 -144.553)"/>
  <path class="a" d="M1050.659,302.686a4.961,4.961,0,1,1,4.961,4.961,4.961,4.961,0,0,1-4.961-4.961Z" transform="translate(-467.702 -144.553)"/>
  <path class="a" d="M760.283,593.062a4.961,4.961,0,1,1,4.96,4.961,4.961,4.961,0,0,1-4.96-4.961Z" transform="translate(-467.702 -144.553)"/>
  <path class="a" d="M1050.659,593.062a4.961,4.961,0,1,1,4.961,4.961,4.961,4.961,0,0,1-4.961-4.961Z" transform="translate(-467.702 -144.553)"/>
  <line class="b" x1="406.78" y1="442.962" x2="543.683" y2="406.279"/>
  <line class="b" x1="303.822" y1="342.009" x2="404.042" y2="442.229"/>
  <line class="b" x1="339.771" y1="202.368" x2="303.088" y2="339.271"/>
  <line class="b" x1="478.678" y1="163.68" x2="341.776" y2="200.363"/>
  <line class="b" x1="581.636" y1="264.634" x2="481.417" y2="164.414"/>
  <line class="b" x1="545.687" y1="404.275" x2="582.37" y2="267.372"/>
  <polyline class="a" points="308.027 465.517 308.027 947.407 279.68 947.407"/>
  <polyline class="a" points="336.373 465.517 336.373 947.407 308.027 947.407"/>
  <rect class="a" x="368.518" y="494.66" width="56.693" height="405.354"/>
  <rect class="a" x="354.104" y="480.246" width="85.521" height="434.183" rx="8.745" ry="8.745"/>
  <path class="c" d="M976.287,811.752l3.125-5.413a2.268,2.268,0,1,0-2.037-1l-2.361,5.788Z" transform="translate(-467.702 -144.553)"/>
  <path class="c" d="M980.22,899.717h1.7a1.843,1.843,0,0,0,0-3.686v-1.7a3.969,3.969,0,1,0-7.937,0v1.7a1.843,1.843,0,0,0,0,3.686h1.7v-5.386a2.268,2.268,0,1,1,4.535,0Z" transform="translate(-467.702 -144.553)"/>
  <rect class="a" x="488.282" y="538.597" width="43.937" height="22.677" rx="1.417" ry="1.417"/>
  <rect class="a" x="488.282" y="498.912" width="43.937" height="22.677" rx="1.417" ry="1.417"/>
  <path class="a" d="M1000.63,1016.22a22.677,22.677,0,1,1-22.677-22.677,22.677,22.677,0,0,1,22.677,22.677Z" transform="translate(-467.702 -144.553)"/>
  <path class="a" d="M985.039,771.307a7.087,7.087,0,1,1-7.086-7.087,7.086,7.086,0,0,1,7.086,7.087Z" transform="translate(-467.702 -144.553)"/>
  <path class="a" d="M987.591,828a9.638,9.638,0,1,1-9.638-9.638A9.638,9.638,0,0,1,987.591,828Z" transform="translate(-467.702 -144.553)"/>
  <path class="a" d="M987.591,874.488a9.638,9.638,0,1,1-9.638-9.638,9.638,9.638,0,0,1,9.638,9.638Z" transform="translate(-467.702 -144.553)"/>
  <path class="c" d="M977.572,768.085l2.106-2.106v1.134a4.536,4.536,0,1,1-3.451,0v1.945a2.838,2.838,0,1,0,3.451,0v1.134Z" transform="translate(-467.702 -144.553)"/>
  <rect class="a" x="467.49" y="480.246" width="85.521" height="434.183" rx="8.745" ry="8.745"/>
  <path class="a" d="M981.964,941.386a4.011,4.011,0,1,1-4.011-4.011,4.011,4.011,0,0,1,4.011,4.011Z" transform="translate(-467.702 -144.553)"/>
  <polyline class="a" points="308.027 947.407 308.027 970.084 279.68 970.084"/>
  <polyline class="a" points="336.373 947.407 336.373 970.084 308.027 970.084"/>
  <polyline class="a" points="605.778 785.832 577.431 785.832 577.431 465.517"/>
  <path class="a" d="M1059.307,629.2a4.961,4.961,0,1,1,4.961-4.961,4.961,4.961,0,0,1-4.961,4.961Z" transform="translate(-467.702 -144.553)"/>
  <path class="a" d="M1059.307,921.172a4.961,4.961,0,1,1,4.961-4.96,4.961,4.961,0,0,1-4.961,4.96Z" transform="translate(-467.702 -144.553)"/>
  <line class="b" x1="604.361" y1="508.037" x2="578.849" y2="508.037"/>
  <line class="b" x1="578.849" y1="743.313" x2="604.361" y2="743.313"/>
  <path class="a" d="M825.024,1081.417a4.961,4.961,0,1,1,4.96,4.961,4.96,4.96,0,0,1-4.96-4.961Z" transform="translate(-467.702 -144.553)"/>
  <rect class="a" x="350.093" y="926.943" width="235.276" height="28.346"/>
  <polyline class="a" points="605.778 848.194 577.431 848.194 577.431 785.832"/>
  <line class="b" x1="604.361" y1="834.021" x2="578.849" y2="834.021"/>
  <path class="a" d="M1055.055,1035.975a4.961,4.961,0,1,1,4.961-4.96,4.96,4.96,0,0,1-4.961,4.96Z" transform="translate(-467.702 -144.553)"/>
  <polyline class="a" points="605.778 910.557 577.431 910.557 577.431 848.194"/>
  <line class="b" x1="578.849" y1="862.368" x2="604.361" y2="862.368"/>
  <path class="a" d="M723.537,1371.969a3.685,3.685,0,0,1,3.685-3.686H765.49a3.685,3.685,0,0,1,3.685,3.686v4.96h4.819a4.961,4.961,0,1,1,0,9.921h-4.819v4.961a3.685,3.685,0,0,1-3.685,3.685H727.222a3.685,3.685,0,0,1-3.685-3.685v-4.961h-4.818a4.961,4.961,0,1,1,0-9.921h4.818Z" transform="translate(-467.702 -144.553)"/>
  <path class="a" d="M727.222,1355.811a3.685,3.685,0,0,1-3.685-3.685v-4.961h-4.818a4.961,4.961,0,1,1,0-9.921h4.818v-4.961a3.685,3.685,0,0,1,3.685-3.685H765.49a3.685,3.685,0,0,1,3.685,3.685v4.961h4.819a4.961,4.961,0,1,1,0,9.921h-4.819v4.961a3.685,3.685,0,0,1-3.685,3.685Z" transform="translate(-467.702 -144.553)"/>
  <polyline class="a" points="328.26 1167.888 328.26 1267.101 229.048 1267.101 229.048 1167.888"/>
  <line class="b" x1="243.221" y1="1196.235" x2="243.221" y2="1265.683"/>
  <line class="b" x1="243.221" y1="1252.928" x2="326.843" y2="1252.928"/>
  <line class="b" x1="230.465" y1="1196.235" x2="243.221" y2="1196.235"/>
  <path class="a" d="M805.175,1354.961a4.961,4.961,0,1,1,4.961,4.96,4.961,4.961,0,0,1-4.961-4.96Z" transform="translate(-467.702 -144.553)"/>
  <path class="a" d="M833.522,1354.961a4.961,4.961,0,1,1,4.96,4.96,4.961,4.961,0,0,1-4.96-4.96Z" transform="translate(-467.702 -144.553)"/>
  <polyline class="a" points="399.126 1196.235 399.126 1224.581 328.26 1224.581"/>
  <line class="b" x1="384.953" y1="1197.652" x2="384.953" y2="1223.164"/>
  <polyline class="a" points="413.3 1167.888 413.3 1196.235 328.26 1196.235"/>
  <path class="a" d="M908.505,1360.633a4.961,4.961,0,1,1,4.961,4.96,4.961,4.961,0,0,1-4.961-4.96Z" transform="translate(-467.702 -144.553)"/>
  <path class="a" d="M919.088,1384.062a24.095,24.095,0,1,1,0-46.859l40.2,9.648a14.173,14.173,0,0,1,0,27.564Z" transform="translate(-467.702 -144.553)"/>
  <path class="a" d="M951.022,1417.32a4.961,4.961,0,1,1-4.96-4.961,4.96,4.96,0,0,1,4.96,4.961Z" transform="translate(-467.702 -144.553)"/>
  <path class="a" d="M940.44,1393.891a24.094,24.094,0,1,1,0,46.858l-40.205-9.647a14.173,14.173,0,0,1,0-27.564Z" transform="translate(-467.702 -144.553)"/>
</svg>
