<svg xmlns="http://www.w3.org/2000/svg" width="270.01mm" height="498.01mm" viewBox="0 0 765.383 1411.682">
  <defs>
    <style>
      .a, .b {
        fill: none;
        stroke-linecap: round;
        stroke-linejoin: round;
        stroke-width: 0.028px;
      }

      .a {
        stroke: #000;
      }

      .b {
        stroke: red;
      }
    </style>
  </defs>
  <title>BottomWall</title>
  <path class="a" d="M554.882,1468.346a6.378,6.378,0,1,1,6.378,6.378,6.377,6.377,0,0,1-6.378-6.378Z" transform="translate(-467.702 -144.553)"/>
  <path class="a" d="M554.882,232.441a6.378,6.378,0,1,1,6.378,6.378,6.377,6.377,0,0,1-6.378-6.378Z" transform="translate(-467.702 -144.553)"/>
  <path class="a" d="M1133.15,1468.346a6.378,6.378,0,1,1,6.378,6.378,6.377,6.377,0,0,1-6.378-6.378Z" transform="translate(-467.702 -144.553)"/>
  <path class="a" d="M1133.15,232.441a6.378,6.378,0,1,1,6.378,6.378,6.377,6.377,0,0,1-6.378-6.378Z" transform="translate(-467.702 -144.553)"/>
  <path class="a" d="M649.134,201.26a6.378,6.378,0,1,1,6.378,6.378,6.377,6.377,0,0,1-6.378-6.378Z" transform="translate(-467.702 -144.553)"/>
  <path class="a" d="M996.378,555.591a6.378,6.378,0,1,1,6.378,6.378,6.377,6.377,0,0,1-6.378-6.378Z" transform="translate(-467.702 -144.553)"/>
  <path class="a" d="M996.378,201.26a6.378,6.378,0,1,1,6.378,6.378,6.377,6.377,0,0,1-6.378-6.378Z" transform="translate(-467.702 -144.553)"/>
  <path class="a" d="M649.134,555.591a6.378,6.378,0,1,1,6.378,6.378,6.377,6.377,0,0,1-6.378-6.378Z" transform="translate(-467.702 -144.553)"/>
  <path class="a" d="M642.047,1318.11c0-109.587,88.838-198.425,198.425-198.425S1038.9,1208.523,1038.9,1318.11s-88.838,198.425-198.426,198.425S642.047,1427.7,642.047,1318.11Z" transform="translate(-467.702 -144.553)"/>
  <line class="b" x1="155.92" y1="1400.329" x2="155.92" y2="28.361"/>
  <line class="b" x1="608.046" y1="28.361" x2="608.046" y2="1400.329"/>
  <line class="b" x1="619.384" y1="28.361" x2="56.707" y2="28.361"/>
  <line class="b" x1="42.534" y1="28.361" x2="17.022" y2="28.361"/>
  <path class="a" d="M991.885,1547.957v8.263h241.186v-99.212H1218.9v-425.2h-14.174v-14.173h28.347V408.189h-28.347V394.016H1218.9V252.283h-14.174V238.11h28.347V144.567h-127.8V158.74a2.835,2.835,0,1,1-2.835,2.835h-11.1v-5.91H524.409v5.91h-11.1a2.835,2.835,0,1,1-2.835-2.835V144.567h-42.76V1556.22H708.9v-8.263a2.835,2.835,0,1,1,2.835-2.834H989.05a2.835,2.835,0,1,1,2.835,2.834Z" transform="translate(-467.702 -144.553)"/>
</svg>
