<svg xmlns="http://www.w3.org/2000/svg" width="484.01mm" height="484.01mm" viewBox="0 0 1371.997 1371.997">
  <defs>
    <style>
      .a {
        fill: lime;
      }

      .b {
        fill: none;
        stroke: #000;
        stroke-linecap: round;
        stroke-linejoin: round;
        stroke-width: 0.028px;
      }
    </style>
  </defs>
  <title>CenterWall</title>
  <polygon class="a" points="1261.431 1137.204 1269.227 1132.704 1269.227 1123.703 1261.431 1119.202 1253.636 1123.703 1253.636 1132.704 1261.431 1137.204"/>
  <polygon class="a" points="1261.431 1312.952 1269.227 1308.452 1269.227 1299.451 1261.431 1294.95 1253.636 1299.451 1253.636 1308.452 1261.431 1312.952"/>
  <polygon class="a" points="1054.502 1137.204 1062.298 1132.704 1062.298 1123.703 1054.502 1119.202 1046.707 1123.703 1046.707 1132.704 1054.502 1137.204"/>
  <polygon class="a" points="1054.502 1312.952 1062.298 1308.452 1062.298 1299.451 1054.502 1294.95 1046.707 1299.451 1046.707 1308.452 1054.502 1312.952"/>
  <path class="b" d="M581.811,223.937a4.961,4.961,0,1,1,4.961,4.961,4.961,4.961,0,0,1-4.961-4.961Z" transform="translate(-164.395 -164.395)"/>
  <path class="b" d="M610.157,223.937a4.961,4.961,0,1,1,4.961,4.961,4.961,4.961,0,0,1-4.961-4.961Z" transform="translate(-164.395 -164.395)"/>
  <path class="b" d="M254.126,234.34a4.961,4.961,0,1,1,4.961,4.961,4.96,4.96,0,0,1-4.961-4.961Z" transform="translate(-164.395 -164.395)"/>
  <path class="b" d="M546.094,234.34a4.961,4.961,0,1,1,4.961,4.961,4.96,4.96,0,0,1-4.961-4.961Z" transform="translate(-164.395 -164.395)"/>
  <path class="b" d="M488.268,822.657a4.961,4.961,0,1,1,4.96,4.96,4.961,4.961,0,0,1-4.96-4.96Z" transform="translate(-164.395 -164.395)"/>
  <path class="b" d="M488.268,606.8a4.961,4.961,0,1,1,4.96,4.961,4.96,4.96,0,0,1-4.96-4.961Z" transform="translate(-164.395 -164.395)"/>
  <path class="b" d="M488.268,781.753a4.961,4.961,0,1,1,4.96,4.96,4.961,4.961,0,0,1-4.96-4.96Z" transform="translate(-164.395 -164.395)"/>
  <path class="b" d="M271.134,997.611a4.961,4.961,0,1,1,4.96,4.961,4.961,4.961,0,0,1-4.96-4.961Z" transform="translate(-164.395 -164.395)"/>
  <path class="b" d="M271.134,822.657a4.961,4.961,0,1,1,4.96,4.96,4.961,4.961,0,0,1-4.96-4.96Z" transform="translate(-164.395 -164.395)"/>
  <path class="b" d="M271.134,606.8a4.961,4.961,0,1,1,4.96,4.961,4.96,4.96,0,0,1-4.96-4.961Z" transform="translate(-164.395 -164.395)"/>
  <path class="b" d="M271.134,781.753a4.961,4.961,0,1,1,4.96,4.96,4.961,4.961,0,0,1-4.96-4.96Z" transform="translate(-164.395 -164.395)"/>
  <path class="b" d="M488.268,997.611a4.961,4.961,0,1,1,4.96,4.961,4.961,4.961,0,0,1-4.96-4.961Z" transform="translate(-164.395 -164.395)"/>
  <rect class="b" x="215.447" y="850.408" width="22.677" height="14.173"/>
  <rect class="b" x="215.447" y="411.038" width="22.677" height="14.173"/>
  <polygon class="a" points="399.699 240.462 391.904 244.962 391.904 253.964 399.699 258.464 407.494 253.964 407.494 244.962 399.699 240.462"/>
  <polygon class="a" points="142.313 115.737 134.518 120.238 134.518 129.239 142.313 133.74 150.109 129.239 150.109 120.238 142.313 115.737"/>
  <polygon class="a" points="407.636 115.737 399.841 120.238 399.841 129.239 407.636 133.74 415.431 129.239 415.431 120.238 407.636 115.737"/>
  <polygon class="a" points="150.25 240.462 142.455 244.962 142.455 253.964 150.25 258.464 158.046 253.964 158.046 244.962 150.25 240.462"/>
  <rect class="b" x="1012.663" y="991.573" width="267.647" height="62.929" rx="14.173" ry="14.173"/>
  <rect class="b" x="982.672" y="56.707" width="255.118" height="42.52" rx="14.173" ry="14.173"/>
  <rect class="b" x="532.417" y="439.195" width="85.039" height="212.409" rx="14.173" ry="14.173"/>
  <rect class="b" x="734.187" y="1173.557" width="198.425" height="141.732" rx="14.173" ry="14.173"/>
  <rect class="b" x="659.976" y="991.573" width="267.647" height="62.929" rx="14.173" ry="14.173"/>
  <rect class="b" x="532.417" y="155.92" width="85.039" height="212.409" rx="14.173" ry="14.173"/>
  <rect class="b" x="532.417" y="722.471" width="85.039" height="212.409" rx="14.173" ry="14.173"/>
  <rect class="b" x="464.896" y="1173.557" width="198.425" height="141.732" rx="14.173" ry="14.173"/>
  <path class="b" d="M533.622,532.913A6.378,6.378,0,1,1,540,539.291a6.379,6.379,0,0,1-6.378-6.378Z" transform="translate(-164.395 -164.395)"/>
  <path class="b" d="M235.984,1071.5a6.378,6.378,0,1,1,6.378,6.378,6.379,6.379,0,0,1-6.378-6.378Z" transform="translate(-164.395 -164.395)"/>
  <path class="b" d="M235.984,532.913a6.378,6.378,0,1,1,6.378,6.378,6.379,6.379,0,0,1-6.378-6.378Z" transform="translate(-164.395 -164.395)"/>
  <path class="b" d="M533.622,1071.5a6.378,6.378,0,1,1,6.378,6.378,6.379,6.379,0,0,1-6.378-6.378Z" transform="translate(-164.395 -164.395)"/>
  <path class="b" d="M1516.252,270.048a5.1,5.1,0,1,1,5.1,5.1,5.1,5.1,0,0,1-5.1-5.1Z" transform="translate(-164.395 -164.395)"/>
  <path class="b" d="M1516.252,697.188a5.1,5.1,0,1,1,5.1,5.1,5.1,5.1,0,0,1-5.1-5.1Z" transform="translate(-164.395 -164.395)"/>
  <path class="b" d="M1516.252,1124.328a5.1,5.1,0,1,1,5.1,5.1,5.1,5.1,0,0,1-5.1-5.1Z" transform="translate(-164.395 -164.395)"/>
  <path class="b" d="M185.209,1272.047v-5.669a4.961,4.961,0,1,0-9.921,0v5.669a4.961,4.961,0,1,0,9.921,0Z" transform="translate(-164.395 -164.395)"/>
  <path class="b" d="M1009.594,1272.047v-5.669a4.961,4.961,0,1,0-9.921,0v5.669a4.961,4.961,0,1,0,9.921,0Z" transform="translate(-164.395 -164.395)"/>
  <rect class="b" x="1325.92" y="809.617" width="2.438" height="28.885"/>
  <rect class="b" x="1325.92" y="579.217" width="2.438" height="28.885"/>
  <path class="b" d="M1453.465,871.8a4.961,4.961,0,1,1,4.96,4.961,4.96,4.96,0,0,1-4.96-4.961Z" transform="translate(-164.395 -164.395)"/>
  <path class="b" d="M1388.665,295.8a4.961,4.961,0,1,1,4.96,4.961,4.96,4.96,0,0,1-4.96-4.961Z" transform="translate(-164.395 -164.395)"/>
  <path class="b" d="M1014.265,295.8a4.961,4.961,0,1,1,4.96,4.961,4.96,4.96,0,0,1-4.96-4.961Z" transform="translate(-164.395 -164.395)"/>
  <path class="b" d="M1453.465,742.2a4.961,4.961,0,1,1,4.96,4.961,4.96,4.96,0,0,1-4.96-4.961Z" transform="translate(-164.395 -164.395)"/>
  <path class="b" d="M809.065,1094.995a4.961,4.961,0,1,1,4.96,4.961,4.96,4.96,0,0,1-4.96-4.961Z" transform="translate(-164.395 -164.395)"/>
  <rect class="b" x="1325.92" y="752.017" width="2.438" height="28.885"/>
  <rect class="b" x="1325.92" y="867.217" width="2.438" height="28.885"/>
  <rect class="b" x="1325.92" y="636.817" width="2.438" height="28.885"/>
  <path class="b" d="M1453.465,1094.995a4.961,4.961,0,1,1,4.96,4.961,4.96,4.96,0,0,1-4.96-4.961Z" transform="translate(-164.395 -164.395)"/>
  <path class="b" d="M809.065,742.2a4.961,4.961,0,1,1,4.96,4.961,4.96,4.96,0,0,1-4.96-4.961Z" transform="translate(-164.395 -164.395)"/>
  <path class="b" d="M809.065,295.8a4.961,4.961,0,1,1,4.96,4.961,4.96,4.96,0,0,1-4.96-4.961Z" transform="translate(-164.395 -164.395)"/>
  <path class="b" d="M1014.265,742.2a4.961,4.961,0,1,1,4.96,4.961,4.96,4.96,0,0,1-4.96-4.961Z" transform="translate(-164.395 -164.395)"/>
  <path class="b" d="M1014.265,1094.995a4.961,4.961,0,1,1,4.96,4.961,4.96,4.96,0,0,1-4.96-4.961Z" transform="translate(-164.395 -164.395)"/>
  <rect class="b" x="1325.92" y="694.417" width="2.438" height="28.885"/>
  <rect class="b" x="1325.92" y="924.817" width="2.438" height="28.885"/>
  <path class="b" d="M192.756,1281.26v255.118H164.409V164.409H1536.378V1536.378H547.087V1281.26a14.173,14.173,0,0,0-14.174-14.173H206.929A14.172,14.172,0,0,0,192.756,1281.26Z" transform="translate(-164.395 -164.395)"/>
  <polygon class="b" points="292.224 223.851 303.421 235.049 393.789 235.049 393.789 99.468 303.421 99.468 292.224 110.665 292.224 155.82 303.662 167.258 292.224 178.697 292.224 223.851"/>
  <polygon class="b" points="224.051 235.049 257.867 235.049 269.065 223.851 269.065 110.665 257.867 99.468 246.869 99.468 246.869 190.035 235.29 201.615 223.71 190.035 223.71 110.665 212.613 99.568 201.515 110.665 201.515 190.035 189.936 201.615 178.356 190.035 178.356 99.468 167.358 99.468 156.161 110.665 156.161 223.851 167.358 235.049 201.174 235.049 212.613 223.61 224.051 235.049"/>
  <polygon class="b" points="314.419 144.681 314.419 133.143 325.899 121.663 371.594 121.663 371.594 156.161 325.899 156.161 314.419 144.681"/>
  <polygon class="b" points="314.419 201.374 314.419 189.836 325.899 178.356 371.594 178.356 371.594 212.854 325.899 212.854 314.419 201.374"/>
</svg>
