<svg xmlns="http://www.w3.org/2000/svg" width="270.01mm" height="496.21mm" viewBox="0 0 765.383 1406.58">
  <defs>
    <style>
      .a {
        fill: blue;
      }

      .b, .c {
        fill: none;
        stroke-linecap: round;
        stroke-linejoin: round;
        stroke-width: 0.028px;
      }

      .b {
        stroke: red;
      }

      .c {
        stroke: #000;
      }
    </style>
  </defs>
  <title>FrontWall</title>
  <path class="a" d="M1033.625,1439.423v-36.53l-31.636-18.264V1348.1l-38.722-22.356-31.635,18.265-24.549-14.173v-36.53l-38.722-22.356-31.635,18.265-31.636-18.265-31.635,18.265-31.635-18.265-31.636,18.265-31.635-18.265-31.636,18.265-31.635-18.265-38.722,22.356v36.53L544.921,1348.1v44.713l31.635,18.264v36.53l31.635,18.264v36.53l38.722,22.356,31.636-18.265,31.635,18.265,31.636-18.265,31.635,18.265,31.635-18.265,31.636,18.265,31.635-18.265L900,1524.756l31.636-18.265,31.635,18.265,31.636-18.265,31.635,18.265,38.722-22.356v-44.712Zm-94.907-83.141,24.549-14.173,24.549,14.173v28.347L963.267,1398.8l-24.549-14.173Zm-14.173,0v28.347L900,1398.8l-24.548-14.173v-28.347L900,1342.109Zm-80.733-54.794,24.549-14.173,24.549,14.173v28.347l-24.549,14.173-24.549-14.173Zm17.462,54.794v28.347L836.726,1398.8l-24.549-14.173v-28.347l24.549-14.173Zm-80.732-54.794,24.548-14.173,24.549,14.173v28.347l-24.549,14.173-24.548-14.173Zm-63.271,0,24.549-14.173,24.548,14.173v28.347l-24.548,14.173-24.549-14.173Zm-63.271,0,24.549-14.173,24.549,14.173v28.347l-24.549,14.173L654,1329.835Zm-63.271,0,24.549-14.173,24.549,14.173v28.347l-24.549,14.173-24.549-14.173Zm-31.635,83.141v-28.347l24.549-14.173,24.548,14.173v28.347L583.643,1398.8Zm31.635,54.794v-28.347l24.549-14.173,24.549,14.173v28.347L615.278,1453.6Zm80.733,54.794-24.549,14.173-24.548-14.173V1465.87l24.548-14.173,24.549,14.173Zm63.271,0-24.549,14.173-24.549-14.173V1465.87l24.549-14.173,24.549,14.173Zm63.271,0-24.549,14.173-24.549-14.173V1465.87l24.549-14.173L798,1465.87Zm-17.462-54.794H766.368L741.82,1453.6l-24.549-14.173H703.1L678.549,1453.6,654,1439.423v-28.347l-7.087-12.274-24.548-14.173v-28.347l24.548-14.173,24.549,14.173h14.173l24.549-14.173,24.549,14.173h14.173l24.549-14.173L798,1356.282v28.347l7.086,12.274,24.549,14.173v28.347L805.09,1453.6Zm80.732,54.794-24.548,14.173-24.549-14.173V1465.87l24.549-14.173,24.548,14.173Zm-17.462-54.794v-28.347l24.549-14.173,24.549,14.173v28.347L868.361,1453.6Zm80.733,54.794L900,1508.39l-24.548-14.173V1465.87L900,1451.7l24.549,14.173Zm-17.462-54.794v-28.347l24.549-14.173,24.549,14.173v28.347L931.632,1453.6Zm80.733,54.794-24.549,14.173-24.549-14.173V1465.87l24.549-14.173,24.549,14.173Zm-17.462-54.794v-28.347L994.9,1396.9l24.548,14.173v28.347L994.9,1453.6Zm80.733,54.794-24.549,14.173-24.549-14.173V1465.87l24.549-14.173,24.549,14.173Z" transform="translate(-467.702 -147.104)"/>
  <path class="b" d="M1092.19,760.942l22.534-22.534V413.127l-59.274-59.275a43.937,43.937,0,1,1,54.118-54.119l75.88,75.88a19.843,19.843,0,0,1,5.812,14.031V761.891a19.842,19.842,0,0,1-5.812,14.03l-22.535,22.535v234.15l22.535,22.535a19.843,19.843,0,0,1,5.812,14.031v351.536a43.937,43.937,0,1,1-76.536,0V1092.655l-22.534-22.535a19.839,19.839,0,0,1-5.812-14.031V774.973A19.839,19.839,0,0,1,1092.19,760.942Z" transform="translate(-467.702 -147.104)"/>
  <polygon class="c" points="240.718 0.014 240.718 11.353 0.014 11.353 0.014 1400.329 42.293 1400.329 42.293 1406.565 42.534 1406.565 637.809 1406.565 638.05 1406.565 638.05 1400.329 748.361 1400.329 748.361 1258.597 765.369 1258.597 765.369 153.085 748.361 153.085 748.361 11.353 524.665 11.353 524.665 0.014 524.424 0.014 240.959 0.014 240.718 0.014"/>
  <polygon class="a" points="248.095 1220.134 253.197 1225.237 253.197 1276.26 248.095 1281.363 232.785 1281.363 227.682 1276.26 222.58 1281.363 207.276 1281.363 202.174 1276.26 202.174 1225.242 207.27 1220.134 212.378 1220.134 212.378 1260.959 217.486 1266.056 222.583 1260.948 222.583 1225.245 227.682 1220.134 232.788 1225.24 232.788 1260.959 237.896 1266.056 242.992 1260.948 242.992 1220.134 248.095 1220.134"/>
  <path class="a" d="M736.207,1367.238l-5.1,5.1v20.409l5.1,5.1-5.1,5.1v20.409l5.1,5.1h40.819v-61.229Zm30.614,51.024h-20.41l-5.1-5.1v-5.1l5.1-5.1h20.41Zm0-25.512h-20.41l-5.1-5.1v-5.1l5.1-5.1h20.41Z" transform="translate(-467.702 -147.104)"/>
</svg>
