<svg xmlns="http://www.w3.org/2000/svg" width="212.51mm" height="484.01mm" viewBox="0 0 602.391 1371.997">
  <defs>
    <style>
      .a, .b {
        fill: none;
        stroke-linecap: round;
        stroke-linejoin: round;
        stroke-width: 0.028px;
      }

      .a {
        stroke: #000;
      }

      .b {
        stroke: red;
      }

      .c {
        fill: lime;
      }
    </style>
  </defs>
  <title>FrontBlackWall</title>
  <polygon class="a" points="138.912 0.014 138.912 1082.849 602.376 1082.849 602.376 1371.983 39.699 1371.983 39.699 1366.313 25.526 1366.313 25.526 1371.983 0.014 1371.983 0.014 0.014 138.912 0.014"/>
  <line class="b" x1="591.038" y1="1363.479" x2="591.038" y2="1082.849"/>
  <polygon class="c" points="222.124 696.716 226.625 704.511 235.626 704.511 240.127 696.716 235.626 688.921 226.625 688.921 222.124 696.716"/>
  <polygon class="c" points="530.503 987.092 526.002 979.297 517.001 979.297 512.5 987.092 517.001 994.887 526.002 994.887 530.503 987.092"/>
  <polygon class="c" points="226.625 994.887 235.626 994.887 240.127 987.092 235.626 979.297 226.625 979.297 222.124 987.092 226.625 994.887"/>
  <polygon class="c" points="517.001 688.921 512.5 696.716 517.001 704.511 526.002 704.511 530.503 696.716 526.002 688.921 517.001 688.921"/>
  <rect class="c" x="593.872" y="1041.958" width="8.504" height="10.419"/>
  <rect class="c" x="593.872" y="217.573" width="8.504" height="10.419"/>
  <rect class="c" x="150.25" y="223.243" width="8.504" height="10.419"/>
  <polygon class="a" points="602.376 227.992 602.376 1041.958 602.376 1052.376 602.376 1068.676 150.25 1068.676 150.25 1052.376 150.25 1041.958 150.25 233.661 150.25 223.243 150.25 206.943 602.376 206.943 602.376 217.573 602.376 227.992"/>
  <rect class="c" x="150.25" y="1041.958" width="8.504" height="10.419"/>
  <polygon class="a" points="419.702 1003.831 538.241 885.292 494.852 723.365 332.925 679.977 214.386 798.516 257.774 960.443 419.702 1003.831"/>
  <polygon class="a" points="275.897 942.321 239.142 805.149 339.558 704.732 476.73 741.487 513.485 878.659 413.068 979.076 275.897 942.321"/>
</svg>
