<svg xmlns="http://www.w3.org/2000/svg" width="498.01mm" height="490.01mm" viewBox="0 0 1411.682 1389.005">
  <defs>
    <style>
      .a {
        fill: none;
        stroke: #000;
        stroke-linecap: round;
        stroke-linejoin: round;
        stroke-width: 0.028px;
      }

      .b {
        fill: blue;
      }
    </style>
  </defs>
  <title>LeftWall</title>
  <polygon class="a" points="0.014 0.014 1411.668 0.014 1411.668 1388.991 0.014 1388.991 0.014 1247.258 11.353 1247.258 11.353 141.746 0.014 141.746 0.014 0.014"/>
  <path class="b" d="M405.245,1291.823l-31.635,18.265-24.549-14.173v-36.53l-31.635-18.264v-36.53L278.7,1182.235l-38.722,22.356v36.53l-31.636,18.264V1304.1l38.722,22.357,31.636-18.265,24.549,14.173v36.53l38.722,22.356,31.635-18.265,31.635,18.265,38.722-22.356v-44.713Zm-133.628,4.092-24.549,14.173-24.548-14.173v-28.347l24.548-14.173,24.549,14.173Zm-17.462-54.794v-28.347L278.7,1198.6l24.549,14.173v28.347L278.7,1255.294Zm31.635,54.794v-28.347l24.549-14.173,24.549,14.173v28.347l-24.549,14.173Zm80.733,54.794-24.548,14.173-24.549-14.173v-28.347l24.549-14.173,24.548,14.173Zm63.271,0-24.549,14.173L380.7,1350.709v-28.347l24.548-14.173,24.549,14.173Z" transform="translate(-144.553 -155.891)"/>
  <path class="b" d="M1221.387,1137.816l-38.722,22.357V1196.7l-24.549,14.173-24.548-14.173v-36.529l-38.722-22.357-31.636,18.265-31.635-18.265-38.722,22.357v44.712l38.722,22.356,31.635-18.265,24.549,14.174v36.529l38.722,22.356,31.635-18.264,31.636,18.264,38.722-22.356V1223.15l31.635-18.265v-44.712ZM1056.124,1196.7l-24.549,14.173-24.549-14.173v-28.347l24.549-14.173,24.549,14.173Zm14.173,0v-28.347l24.549-14.173,24.548,14.173V1196.7l-24.548,14.173Zm80.733,54.794-24.549,14.173-24.549-14.173V1223.15l24.549-14.174,24.549,14.174Zm63.271,0-24.549,14.173L1165.2,1251.5V1223.15l24.549-14.174,24.549,14.174Zm31.635-54.794-24.549,14.173-24.549-14.173v-28.347l24.549-14.173,24.549,14.173Z" transform="translate(-144.553 -155.891)"/>
  <path class="b" d="M1449.921,1196.7v-36.529l-38.722-22.357-38.722,22.357V1196.7l-24.549,14.173-31.635-18.264-38.722,22.356v44.712l38.722,22.356,31.635-18.264,31.636,18.264,31.635-18.264,31.636,18.264,38.722-22.356v-44.712ZM1340.842,1251.5l-24.549,14.173-24.549-14.173V1223.15l24.549-14.174,24.549,14.174Zm63.271,0-24.549,14.173-24.549-14.173V1223.15l24.549-14.174,24.549,14.174Zm-17.462-54.794v-28.347l24.548-14.173,24.549,14.173V1196.7l-24.549,14.173Zm80.732,54.794-24.548,14.173-24.549-14.173V1223.15l24.549-14.174,24.548,14.174Z" transform="translate(-144.553 -155.891)"/>
</svg>
