<svg xmlns="http://www.w3.org/2000/svg" width="270.01mm" height="498.01mm" viewBox="0 0 765.383 1411.682">
  <defs>
    <style>
      .a, .b {
        fill: none;
        stroke-linecap: round;
        stroke-linejoin: round;
        stroke-width: 0.028px;
      }

      .a {
        stroke: #000;
      }

      .b {
        stroke: red;
      }
    </style>
  </defs>
  <title>TopWall</title>
  <path class="a" d="M589.11,1445.669a16.087,16.087,0,1,1,16.087,16.087,16.086,16.086,0,0,1-16.087-16.087Z" transform="translate(-467.702 -144.553)"/>
  <path class="b" d="M615.145,330.516V715.345l22.508,22.508a19.843,19.843,0,0,1,5.812,14.031v648.188a59.491,59.491,0,0,1,7.329,7.33H735.33l72.739-72.74a43.937,43.937,0,1,1,54.119,54.119l-89.344,89.344a19.843,19.843,0,0,1-14.031,5.812H650.794a59.528,59.528,0,1,1-83.865-83.865v-624.7l-22.507-22.508a19.839,19.839,0,0,1-5.812-14.031V330.613a43.937,43.937,0,1,1,76.535-.1Z" transform="translate(-467.702 -144.553)"/>
  <rect class="a" x="636.633" y="73.956" width="84.557" height="433.219" rx="8.263" ry="8.263"/>
  <path class="a" d="M708.9,152.83v-8.263H467.717V1544.882h240.7v11.338H992.367v-11.338h240.7V144.567H991.885v8.263a2.835,2.835,0,1,1-2.835,2.835H711.737a2.835,2.835,0,1,1-2.835-2.835Z" transform="translate(-467.702 -144.553)"/>
</svg>
