<svg xmlns="http://www.w3.org/2000/svg" width="124.01mm" height="160.01mm" viewBox="0 0 351.524 453.572">
  <defs>
    <style>
      .a {
        fill: none;
        stroke: #000;
        stroke-linecap: round;
        stroke-linejoin: round;
        stroke-width: 0.028px;
      }
    </style>
  </defs>
  <title>Translucent</title>
  <polygon class="a" points="150.25 117.166 295.912 201.264 295.912 369.46 150.25 453.557 4.589 369.46 4.589 201.264 150.25 117.166"/>
  <polygon class="a" points="27.748 214.635 27.748 356.089 150.25 426.816 272.753 356.089 272.753 214.635 150.25 143.908 27.748 214.635"/>
  <polygon class="a" points="91.064 136.559 0.014 136.559 0.014 0.014 91.064 0.014 102.543 11.494 102.543 57.048 91.305 68.287 102.543 79.525 102.543 125.079 91.064 136.559"/>
  <polygon class="a" points="79.384 45.51 79.384 34.371 68.187 23.173 23.173 23.173 23.173 56.707 68.187 56.707 79.384 45.51"/>
  <polygon class="a" points="79.384 102.203 79.384 91.064 68.187 79.866 23.173 79.866 23.173 113.4 68.187 113.4 79.384 102.203"/>
  <polygon class="a" points="197.957 11.594 209.437 0.114 221.117 0.114 221.117 90.964 232.214 102.061 243.312 90.964 243.312 11.594 254.891 0.014 266.471 11.594 266.471 90.964 277.568 102.061 288.666 90.964 288.666 0.114 300.345 0.114 311.825 11.594 311.825 125.179 300.345 136.659 266.13 136.659 254.891 125.42 243.653 136.659 209.437 136.659 197.957 125.179 197.957 11.594"/>
  <rect class="a" x="328.833" y="0.014" width="22.677" height="453.543"/>
</svg>
